<svg width="360" height="359" viewBox="0 0 360 359" fill="none" xmlns="http://www.w3.org/2000/svg">
<circle cx="179.987" cy="179.329" r="179.329" fill="white"/>
<path fill-rule="evenodd" clip-rule="evenodd" d="M146.377 94.6851C143.606 96.2013 138.503 100.083 135.039 103.312C131.574 106.542 124.426 112.941 119.154 117.535C112.24 123.562 108.866 129.04 107.045 137.203C105.656 143.425 101.106 153.659 96.9329 159.946C90.3438 169.87 89.5072 173.042 90.5756 184.012C92.5233 204.016 96.4818 224.614 99.445 230.166C102.882 236.61 116.778 248.452 120.903 248.452C122.616 248.452 127.197 251.78 131.083 255.848C140.217 265.408 149.643 269.209 161.743 268.208C177.494 266.904 177.796 265.199 177.836 177.128L177.874 99.484L170.441 95.6302C161.77 91.1346 153.463 90.8086 146.377 94.6851ZM190.473 94.9201L184.173 98.2381L183.508 179.582L182.843 260.925L189.23 265.123C198.518 271.226 214.211 268.501 224.164 259.06C228.5 254.946 236.37 249.579 241.651 247.128C253.221 241.763 263.545 227.429 263.545 216.727C263.545 212.434 265.364 203.561 267.589 197.013C272.608 182.24 270.877 171.738 261.01 157.136C256.913 151.069 253.534 143.263 253.501 139.788C253.431 131.535 245.191 118.156 237.854 114.381C234.661 112.736 227.991 107.507 223.033 102.759C212.785 92.9465 200.04 89.8761 190.473 94.9201ZM167.233 105.817C170.864 108.367 172.835 112.367 172.835 117.189C172.835 125.556 169.176 126.663 162.264 120.39C158.848 117.287 156.849 116.903 154.803 118.955C150.399 123.372 154.322 129.571 164.114 133.675C172.814 137.319 173.079 137.825 172.338 149.356L171.575 161.268L160.788 161.501C152.747 161.675 148.222 163.444 143.011 168.45C134.595 176.539 126.565 177.057 121.525 169.84C117.441 163.995 112.361 165.349 112.361 172.284C112.361 174.704 111.076 177.972 109.506 179.546C107.937 181.121 107.332 184.184 108.163 186.354C109.408 189.612 110.786 189.789 116.055 187.38C120.885 185.174 124.002 185.177 128.858 187.395C138.072 191.608 139.03 191.264 144.636 181.737C148.023 175.981 152.296 172.569 157.585 171.404C169.141 168.859 172.835 173.214 172.835 189.374C172.835 200.983 172.144 202.965 168.103 202.965C162.171 202.965 157.162 197.127 158.192 191.411C159.553 183.855 153.138 184.633 149.074 192.515C143.775 202.79 136.246 204.809 127.477 198.307C123.634 195.459 119.837 193.784 119.038 194.582C117.673 195.952 119.731 218.319 121.404 220.31C121.828 220.818 127.52 218.637 134.051 215.469C147.03 209.166 155.277 208.451 165.905 212.704C172.535 215.355 172.835 216.234 172.835 233.047C172.835 253.051 169.488 258.56 157.343 258.56C152.289 258.56 147.257 256.04 142.217 250.986C133.799 242.543 133.57 234.952 141.698 233.785C145.75 233.201 147.72 234.947 149.812 240.962C152.906 249.864 158.976 249.95 158.976 241.09C158.976 237.985 161.103 233.876 163.701 231.96C166.442 229.941 167.798 226.833 166.931 224.566C165.207 220.063 161.279 219.444 158.901 223.302C157.91 224.912 153.037 225.314 146.476 224.328C135.399 222.661 134.222 223.257 126.27 234.553C122.788 239.498 122.536 239.433 114.531 231.49C108.257 225.263 105.901 220.257 104.429 210.01C103.373 202.659 101.766 192.965 100.854 188.467C98.6488 177.563 101.065 168.968 108.304 161.976C112.061 158.344 114.767 152.168 115.619 145.277C116.861 135.255 123.037 124.626 127.623 124.626C128.659 124.626 130.695 128.045 132.146 132.222C134.247 138.264 133.915 141.345 130.521 147.276C127.102 153.247 126.88 155.36 129.41 157.897C131.937 160.432 133.353 159.936 136.523 155.395C139.602 150.988 142.517 149.886 149.641 150.445C160.911 151.324 164.514 143.94 154.095 141.317C139.592 137.668 134.855 117.497 146.204 107.71C154.118 100.881 159.518 100.396 167.233 105.817ZM216.3 109.751C222.635 117.403 221.871 128.745 214.523 136.111C211.122 139.523 206.654 142.315 204.593 142.315C199.324 142.315 196.719 147.521 200.741 150.013C202.585 151.157 207.118 151.486 210.812 150.745C215.718 149.76 218.983 150.96 222.914 155.193C230.693 163.565 235.528 158.236 229.476 147.958C226.122 142.265 225.648 138.828 227.465 133.359C228.773 129.425 231.118 125.778 232.676 125.257C236.967 123.825 243.687 135.798 243.911 145.279C244.04 150.69 246.663 156.631 251.271 161.945C261.05 173.226 262.572 181.202 257.598 195.121C255.313 201.519 253.446 210.364 253.453 214.774C253.466 223.027 243.077 238.359 237.493 238.328C235.883 238.318 232.555 234.765 230.095 230.434C225.94 223.11 224.912 222.668 215.524 224.174C209.653 225.117 203.212 224.609 200.146 222.964C192.433 218.822 188.694 225.463 195.527 231.167C198.291 233.474 200.552 238.402 200.552 242.119C200.552 250.524 205.576 249.44 210.139 240.052C216.416 227.133 226.86 233.497 221.664 247.074C218.205 256.116 197.304 261.873 190.977 255.528C186.842 251.381 186.945 217.02 191.103 213.712C198.69 207.673 211.991 207.865 224.451 214.19C237.607 220.869 241.963 220.513 239.57 212.957C238.743 210.346 239.371 205.77 240.96 202.788C245.703 193.903 240.152 191.368 230.929 198.204C222.035 204.802 216.738 203.288 211.344 192.609C207.357 184.717 202.048 184.843 200.927 192.856C200.017 199.364 196.608 202.858 191.103 202.927C186.378 202.985 186.897 176.663 191.7 172.668C198.755 166.795 208.534 171.657 218.971 186.228C222.032 190.499 223.267 190.643 231.451 187.673C238.965 184.949 241.235 184.962 244.589 187.754C251.14 193.208 253.71 187.719 249.858 176.486C245.892 164.91 242.288 162.729 238.587 169.663C234.059 178.149 228.347 178.288 219.092 170.138C210.648 162.701 208.403 161.877 195.512 161.468C189.833 161.288 189.137 160.106 188.452 149.447C187.726 138.151 188.084 137.435 196.447 133.455C205.906 128.955 209.794 122.776 205.732 118.702C204.024 116.989 201.663 117.54 198.523 120.39C195.956 122.72 192.526 124.626 190.904 124.626C186.403 124.626 187.389 111.75 192.305 106.302C197.752 100.265 209.89 102.009 216.3 109.751Z" fill="#D04330"/>
</svg>
