<svg width="179" height="25" viewBox="0 0 179 25" fill="none" xmlns="http://www.w3.org/2000/svg">
<rect x="0.25" y="0.25" width="29.0748" height="24.1457" fill="black" stroke="#8F9297" stroke-width="0.5"/>
<rect x="0.25" y="0.25" width="29.0748" height="5.95482" fill="#D1D7DD" stroke="#8F9297" stroke-width="0.5"/>
<path d="M12.6274 15.8252C12.5341 15.8785 12.4341 15.9172 12.3274 15.9412C12.2234 15.9679 12.1114 15.9812 11.9914 15.9812C11.8447 15.9812 11.7087 15.9559 11.5834 15.9052C11.4607 15.8519 11.3541 15.7732 11.2634 15.6692C11.1727 15.5625 11.1007 15.4279 11.0474 15.2652C10.9967 15.1025 10.9714 14.9105 10.9714 14.6892C10.9714 14.4785 10.9981 14.2932 11.0514 14.1332C11.1074 13.9732 11.1821 13.8385 11.2754 13.7292C11.3687 13.6199 11.4781 13.5372 11.6034 13.4812C11.7287 13.4252 11.8621 13.3972 12.0034 13.3972C12.1021 13.3972 12.2021 13.4105 12.3034 13.4372C12.4074 13.4639 12.5087 13.5079 12.6074 13.5692L12.5114 13.8412C12.3354 13.7399 12.1701 13.6892 12.0154 13.6892C11.9061 13.6892 11.8074 13.7132 11.7194 13.7612C11.6341 13.8065 11.5607 13.8732 11.4994 13.9612C11.4381 14.0492 11.3901 14.1545 11.3554 14.2772C11.3234 14.3999 11.3074 14.5372 11.3074 14.6892C11.3074 14.8599 11.3247 15.0079 11.3594 15.1332C11.3967 15.2585 11.4474 15.3625 11.5114 15.4452C11.5754 15.5279 11.6514 15.5892 11.7394 15.6292C11.8301 15.6692 11.9274 15.6892 12.0314 15.6892C12.1087 15.6892 12.1901 15.6799 12.2754 15.6612C12.3607 15.6399 12.4487 15.6039 12.5394 15.5532L12.6274 15.8252ZM14.0834 15.6732C14.0834 15.7532 14.0567 15.8239 14.0034 15.8852C13.9501 15.9465 13.8794 15.9772 13.7914 15.9772C13.7007 15.9772 13.6287 15.9465 13.5754 15.8852C13.5221 15.8239 13.4954 15.7532 13.4954 15.6732C13.4954 15.5905 13.5221 15.5185 13.5754 15.4572C13.6287 15.3959 13.7007 15.3652 13.7914 15.3652C13.8794 15.3652 13.9501 15.3959 14.0034 15.4572C14.0567 15.5185 14.0834 15.5905 14.0834 15.6732ZM14.0834 14.3812C14.0834 14.4612 14.0567 14.5319 14.0034 14.5932C13.9501 14.6545 13.8794 14.6852 13.7914 14.6852C13.7007 14.6852 13.6287 14.6545 13.5754 14.5932C13.5221 14.5319 13.4954 14.4612 13.4954 14.3812C13.4954 14.2985 13.5221 14.2265 13.5754 14.1652C13.6287 14.1039 13.7007 14.0732 13.7914 14.0732C13.8794 14.0732 13.9501 14.1039 14.0034 14.1652C14.0567 14.2265 14.0834 14.2985 14.0834 14.3812ZM15.0674 13.1332H15.3994L16.5074 16.5892H16.1714L15.0674 13.1332ZM16.8194 16.3092H18.7554V16.5892H16.8194V16.3092Z" fill="white"/>
<rect x="19.0107" y="1.07593" width="2.11249" height="2.15161" fill="#8691A2"/>
<rect x="22.1816" y="1.07593" width="2.11249" height="2.15161" fill="#8691A2"/>
<rect x="25.3506" y="1.07593" width="3.16873" height="2.15161" fill="#8691A2"/>
<path d="M50.448 7.68C49.84 7.68 49.2907 7.78667 48.8 8C48.3093 8.20267 47.8933 8.50667 47.552 8.912C47.2107 9.30667 46.9493 9.792 46.768 10.368C46.5867 10.9333 46.496 11.5733 46.496 12.288C46.496 13.2267 46.64 14.0427 46.928 14.736C47.2267 15.4293 47.664 15.9627 48.24 16.336C48.8267 16.7093 49.5573 16.896 50.432 16.896C50.9333 16.896 51.408 16.8533 51.856 16.768C52.304 16.6827 52.7413 16.576 53.168 16.448V17.696C52.7413 17.856 52.2987 17.9733 51.84 18.048C51.392 18.1227 50.8533 18.16 50.224 18.16C49.0613 18.16 48.0907 17.92 47.312 17.44C46.5333 16.96 45.9467 16.2773 45.552 15.392C45.168 14.5067 44.976 13.4667 44.976 12.272C44.976 11.408 45.0933 10.6187 45.328 9.904C45.5733 9.18933 45.9253 8.57067 46.384 8.048C46.8533 7.52533 47.4293 7.12533 48.112 6.848C48.7947 6.56 49.5787 6.416 50.464 6.416C51.0507 6.416 51.616 6.47467 52.16 6.592C52.704 6.70933 53.1893 6.87467 53.616 7.088L53.04 8.304C52.688 8.144 52.2933 8 51.856 7.872C51.4293 7.744 50.96 7.68 50.448 7.68ZM62.6054 13.696C62.6054 14.4107 62.5094 15.0453 62.3174 15.6C62.136 16.144 61.8694 16.608 61.5174 16.992C61.176 17.376 60.7547 17.6693 60.2534 17.872C59.7627 18.064 59.2134 18.16 58.6054 18.16C58.04 18.16 57.5174 18.064 57.0374 17.872C56.5574 17.6693 56.1414 17.376 55.7894 16.992C55.4374 16.608 55.16 16.144 54.9574 15.6C54.7654 15.0453 54.6694 14.4107 54.6694 13.696C54.6694 12.7467 54.8294 11.9467 55.1494 11.296C55.4694 10.6347 55.928 10.1333 56.5254 9.792C57.1227 9.44 57.832 9.264 58.6534 9.264C59.432 9.264 60.1147 9.44 60.7014 9.792C61.2987 10.1333 61.7627 10.6347 62.0934 11.296C62.4347 11.9467 62.6054 12.7467 62.6054 13.696ZM56.1254 13.696C56.1254 14.368 56.2107 14.9547 56.3814 15.456C56.5627 15.9467 56.84 16.3253 57.2134 16.592C57.5867 16.8587 58.0614 16.992 58.6374 16.992C59.2134 16.992 59.688 16.8587 60.0614 16.592C60.4347 16.3253 60.7067 15.9467 60.8774 15.456C61.0587 14.9547 61.1494 14.368 61.1494 13.696C61.1494 13.0133 61.0587 12.432 60.8774 11.952C60.696 11.472 60.4187 11.104 60.0454 10.848C59.6827 10.5813 59.208 10.448 58.6214 10.448C57.7467 10.448 57.112 10.736 56.7174 11.312C56.3227 11.888 56.1254 12.6827 56.1254 13.696ZM73.9249 9.264C74.8955 9.264 75.6209 9.51467 76.1009 10.016C76.5809 10.5067 76.8209 11.3067 76.8209 12.416V18H75.4289V12.48C75.4289 11.808 75.2849 11.3013 74.9969 10.96C74.7195 10.6187 74.2822 10.448 73.6849 10.448C72.8529 10.448 72.2555 10.688 71.8929 11.168C71.5409 11.648 71.3649 12.3467 71.3649 13.264V18H69.9729V12.48C69.9729 12.032 69.9089 11.6587 69.7809 11.36C69.6529 11.0507 69.4609 10.8213 69.2049 10.672C68.9489 10.5227 68.6182 10.448 68.2129 10.448C67.6369 10.448 67.1835 10.5707 66.8529 10.816C66.5222 11.0507 66.2822 11.3973 66.1329 11.856C65.9942 12.3147 65.9249 12.88 65.9249 13.552V18H64.5169V9.424H65.6529L65.8609 10.592H65.9409C66.1222 10.2933 66.3409 10.048 66.5969 9.856C66.8635 9.65333 67.1569 9.504 67.4769 9.408C67.7969 9.312 68.1275 9.264 68.4689 9.264C69.1302 9.264 69.6795 9.38133 70.1169 9.616C70.5649 9.85067 70.8902 10.2133 71.0929 10.704H71.1729C71.4609 10.2133 71.8502 9.85067 72.3409 9.616C72.8422 9.38133 73.3702 9.264 73.9249 9.264ZM88.558 9.264C89.5287 9.264 90.254 9.51467 90.734 10.016C91.214 10.5067 91.454 11.3067 91.454 12.416V18H90.062V12.48C90.062 11.808 89.918 11.3013 89.63 10.96C89.3527 10.6187 88.9153 10.448 88.318 10.448C87.486 10.448 86.8887 10.688 86.526 11.168C86.174 11.648 85.998 12.3467 85.998 13.264V18H84.606V12.48C84.606 12.032 84.542 11.6587 84.414 11.36C84.286 11.0507 84.094 10.8213 83.838 10.672C83.582 10.5227 83.2513 10.448 82.846 10.448C82.27 10.448 81.8167 10.5707 81.486 10.816C81.1553 11.0507 80.9153 11.3973 80.766 11.856C80.6273 12.3147 80.558 12.88 80.558 13.552V18H79.15V9.424H80.286L80.494 10.592H80.574C80.7553 10.2933 80.974 10.048 81.23 9.856C81.4967 9.65333 81.79 9.504 82.11 9.408C82.43 9.312 82.7607 9.264 83.102 9.264C83.7633 9.264 84.3127 9.38133 84.75 9.616C85.198 9.85067 85.5233 10.2133 85.726 10.704H85.806C86.094 10.2133 86.4833 9.85067 86.974 9.616C87.4753 9.38133 88.0033 9.264 88.558 9.264ZM97.0311 9.28C98.0765 9.28 98.8498 9.50933 99.3511 9.968C99.8525 10.4267 100.103 11.1573 100.103 12.16V18H99.0791L98.8071 16.784H98.7431C98.4978 17.0933 98.2418 17.3547 97.9751 17.568C97.7191 17.7707 97.4205 17.92 97.0791 18.016C96.7485 18.112 96.3431 18.16 95.8631 18.16C95.3511 18.16 94.8871 18.0693 94.4711 17.888C94.0658 17.7067 93.7458 17.4293 93.5111 17.056C93.2765 16.672 93.1591 16.192 93.1591 15.616C93.1591 14.7627 93.4951 14.1067 94.1671 13.648C94.8391 13.1787 95.8738 12.9227 97.2711 12.88L98.7271 12.832V12.32C98.7271 11.6053 98.5725 11.1093 98.2631 10.832C97.9538 10.5547 97.5165 10.416 96.9511 10.416C96.5031 10.416 96.0765 10.4853 95.6711 10.624C95.2658 10.752 94.8871 10.9013 94.5351 11.072L94.1031 10.016C94.4765 9.81333 94.9191 9.64267 95.4311 9.504C95.9431 9.35467 96.4765 9.28 97.0311 9.28ZM97.4471 13.856C96.3805 13.8987 95.6391 14.0693 95.2231 14.368C94.8178 14.6667 94.6151 15.088 94.6151 15.632C94.6151 16.112 94.7591 16.464 95.0471 16.688C95.3458 16.912 95.7245 17.024 96.1831 17.024C96.9085 17.024 97.5111 16.8267 97.9911 16.432C98.4711 16.0267 98.7111 15.408 98.7111 14.576V13.808L97.4471 13.856ZM106.56 9.264C107.584 9.264 108.357 9.51467 108.88 10.016C109.403 10.5067 109.664 11.3067 109.664 12.416V18H108.272V12.512C108.272 11.8187 108.117 11.3013 107.808 10.96C107.499 10.6187 107.013 10.448 106.352 10.448C105.403 10.448 104.747 10.7147 104.384 11.248C104.021 11.7813 103.84 12.5493 103.84 13.552V18H102.432V9.424H103.568L103.776 10.592H103.856C104.048 10.2933 104.283 10.048 104.56 9.856C104.848 9.65333 105.163 9.504 105.504 9.408C105.845 9.312 106.197 9.264 106.56 9.264ZM115.043 18.16C113.976 18.16 113.123 17.792 112.483 17.056C111.843 16.3093 111.523 15.2 111.523 13.728C111.523 12.256 111.843 11.1467 112.483 10.4C113.133 9.64267 113.992 9.264 115.059 9.264C115.507 9.264 115.896 9.32267 116.227 9.44C116.557 9.54667 116.845 9.696 117.091 9.888C117.336 10.08 117.544 10.2933 117.715 10.528H117.811C117.8 10.3893 117.779 10.1867 117.747 9.92C117.725 9.64267 117.715 9.424 117.715 9.264V5.84H119.123V18H117.987L117.779 16.848H117.715C117.544 17.0933 117.336 17.3173 117.091 17.52C116.845 17.712 116.552 17.8667 116.211 17.984C115.88 18.1013 115.491 18.16 115.043 18.16ZM115.267 16.992C116.173 16.992 116.808 16.7467 117.171 16.256C117.544 15.7547 117.731 15.0027 117.731 14V13.744C117.731 12.6773 117.555 11.8613 117.203 11.296C116.851 10.72 116.2 10.432 115.251 10.432C114.493 10.432 113.923 10.736 113.539 11.344C113.165 11.9413 112.979 12.7467 112.979 13.76C112.979 14.784 113.165 15.5787 113.539 16.144C113.923 16.7093 114.499 16.992 115.267 16.992ZM128.579 6.576C130.072 6.576 131.16 6.86933 131.843 7.456C132.525 8.04267 132.867 8.86933 132.867 9.936C132.867 10.4053 132.787 10.8587 132.627 11.296C132.477 11.7227 132.227 12.1067 131.875 12.448C131.523 12.7893 131.053 13.0613 130.467 13.264C129.88 13.456 129.16 13.552 128.307 13.552H126.995V18H125.555V6.576H128.579ZM128.451 7.808H126.995V12.32H128.147C128.872 12.32 129.475 12.2453 129.955 12.096C130.435 11.936 130.792 11.6853 131.027 11.344C131.261 11.0027 131.379 10.5547 131.379 10C131.379 9.264 131.144 8.71467 130.675 8.352C130.205 7.98933 129.464 7.808 128.451 7.808ZM138.73 9.264C138.89 9.264 139.061 9.27467 139.242 9.296C139.434 9.30667 139.599 9.328 139.738 9.36L139.562 10.656C139.423 10.624 139.269 10.5973 139.098 10.576C138.938 10.5547 138.783 10.544 138.634 10.544C138.303 10.544 137.989 10.6133 137.69 10.752C137.391 10.8907 137.125 11.088 136.89 11.344C136.655 11.5893 136.469 11.888 136.33 12.24C136.202 12.592 136.138 12.9867 136.138 13.424V18H134.73V9.424H135.882L136.042 10.992H136.106C136.287 10.672 136.506 10.384 136.762 10.128C137.018 9.86133 137.311 9.65333 137.642 9.504C137.973 9.344 138.335 9.264 138.73 9.264ZM148.163 13.696C148.163 14.4107 148.067 15.0453 147.875 15.6C147.694 16.144 147.427 16.608 147.075 16.992C146.734 17.376 146.312 17.6693 145.811 17.872C145.32 18.064 144.771 18.16 144.163 18.16C143.598 18.16 143.075 18.064 142.595 17.872C142.115 17.6693 141.699 17.376 141.347 16.992C140.995 16.608 140.718 16.144 140.515 15.6C140.323 15.0453 140.227 14.4107 140.227 13.696C140.227 12.7467 140.387 11.9467 140.707 11.296C141.027 10.6347 141.486 10.1333 142.083 9.792C142.68 9.44 143.39 9.264 144.211 9.264C144.99 9.264 145.672 9.44 146.259 9.792C146.856 10.1333 147.32 10.6347 147.651 11.296C147.992 11.9467 148.163 12.7467 148.163 13.696ZM141.683 13.696C141.683 14.368 141.768 14.9547 141.939 15.456C142.12 15.9467 142.398 16.3253 142.771 16.592C143.144 16.8587 143.619 16.992 144.195 16.992C144.771 16.992 145.246 16.8587 145.619 16.592C145.992 16.3253 146.264 15.9467 146.435 15.456C146.616 14.9547 146.707 14.368 146.707 13.696C146.707 13.0133 146.616 12.432 146.435 11.952C146.254 11.472 145.976 11.104 145.603 10.848C145.24 10.5813 144.766 10.448 144.179 10.448C143.304 10.448 142.67 10.736 142.275 11.312C141.88 11.888 141.683 12.6827 141.683 13.696ZM159.482 9.264C160.453 9.264 161.178 9.51467 161.658 10.016C162.138 10.5067 162.378 11.3067 162.378 12.416V18H160.986V12.48C160.986 11.808 160.842 11.3013 160.554 10.96C160.277 10.6187 159.84 10.448 159.242 10.448C158.41 10.448 157.813 10.688 157.45 11.168C157.098 11.648 156.922 12.3467 156.922 13.264V18H155.53V12.48C155.53 12.032 155.466 11.6587 155.338 11.36C155.21 11.0507 155.018 10.8213 154.762 10.672C154.506 10.5227 154.176 10.448 153.77 10.448C153.194 10.448 152.741 10.5707 152.41 10.816C152.08 11.0507 151.84 11.3973 151.69 11.856C151.552 12.3147 151.482 12.88 151.482 13.552V18H150.074V9.424H151.21L151.418 10.592H151.498C151.68 10.2933 151.898 10.048 152.154 9.856C152.421 9.65333 152.714 9.504 153.034 9.408C153.354 9.312 153.685 9.264 154.026 9.264C154.688 9.264 155.237 9.38133 155.674 9.616C156.122 9.85067 156.448 10.2133 156.65 10.704H156.73C157.018 10.2133 157.408 9.85067 157.898 9.616C158.4 9.38133 158.928 9.264 159.482 9.264ZM168.788 9.264C169.844 9.264 170.692 9.632 171.332 10.368C171.982 11.104 172.308 12.2133 172.308 13.696C172.308 14.6667 172.158 15.488 171.86 16.16C171.572 16.8213 171.161 17.3227 170.628 17.664C170.105 17.9947 169.486 18.16 168.772 18.16C168.334 18.16 167.945 18.1013 167.604 17.984C167.262 17.8667 166.969 17.7173 166.724 17.536C166.489 17.344 166.286 17.136 166.116 16.912H166.02C166.041 17.0933 166.062 17.3227 166.084 17.6C166.105 17.8773 166.116 18.1173 166.116 18.32V21.84H164.708V9.424H165.86L166.052 10.592H166.116C166.286 10.3467 166.489 10.1227 166.724 9.92C166.969 9.71733 167.257 9.55733 167.588 9.44C167.929 9.32267 168.329 9.264 168.788 9.264ZM168.532 10.448C167.956 10.448 167.492 10.56 167.14 10.784C166.788 10.9973 166.532 11.3227 166.372 11.76C166.212 12.1973 166.126 12.752 166.116 13.424V13.696C166.116 14.4 166.19 14.9973 166.34 15.488C166.489 15.9787 166.74 16.352 167.092 16.608C167.454 16.864 167.945 16.992 168.564 16.992C169.086 16.992 169.513 16.848 169.844 16.56C170.185 16.272 170.436 15.8827 170.596 15.392C170.766 14.8907 170.852 14.32 170.852 13.68C170.852 12.6987 170.66 11.9147 170.276 11.328C169.902 10.7413 169.321 10.448 168.532 10.448ZM177.095 17.008C177.309 17.008 177.527 16.992 177.751 16.96C177.975 16.9173 178.157 16.8747 178.295 16.832V17.904C178.146 17.9787 177.933 18.0373 177.655 18.08C177.378 18.1333 177.111 18.16 176.855 18.16C176.407 18.16 175.991 18.0853 175.607 17.936C175.234 17.776 174.93 17.504 174.695 17.12C174.461 16.736 174.343 16.1973 174.343 15.504V10.512H173.127V9.84L174.359 9.28L174.919 7.456H175.751V9.424H178.231V10.512H175.751V15.472C175.751 15.9947 175.874 16.384 176.119 16.64C176.375 16.8853 176.701 17.008 177.095 17.008Z" fill="black"/>
</svg>
