<svg width="1065" height="1078" viewBox="0 0 1065 1078" fill="none" xmlns="http://www.w3.org/2000/svg">
<path d="M215.406 1007.83L215.549 1009.13V1072H1059V6H6V66.2204L215.406 1007.83Z" fill="#3B3B3B" stroke="#080808" stroke-width="12" stroke-linejoin="bevel"/>
<mask id="mask0_23_1100" style="mask-type:alpha" maskUnits="userSpaceOnUse" x="0" y="0" width="1065" height="1078">
<path d="M209.549 1078H1065V0H0V66.8796L209.549 1009.13V1078Z" fill="#D9D9D9"/>
</mask>
<g mask="url(#mask0_23_1100)">
<path d="M1048.18 43.7627C1065.57 33.3596 1065 26.043 1065 26.043C1065 26.043 1054.21 24.8342 1036.82 35.2373C1019.43 45.6404 1020 52.957 1020 52.957C1020 52.957 1030.79 54.1658 1048.18 43.7627Z" fill="#ACACAC" fill-opacity="0.24"/>
<path d="M1048.18 557.763C1065.57 547.36 1065 540.043 1065 540.043C1065 540.043 1054.21 538.834 1036.82 549.237C1019.43 559.64 1020 566.957 1020 566.957C1020 566.957 1030.79 568.166 1048.18 557.763Z" fill="#ACACAC" fill-opacity="0.24"/>
<path d="M453.178 43.7627C470.57 33.3596 469.998 26.043 469.998 26.043C469.998 26.043 459.214 24.8342 441.822 35.2373C424.43 45.6404 425.002 52.957 425.002 52.957C425.002 52.957 435.786 54.1658 453.178 43.7627Z" fill="#ACACAC" fill-opacity="0.24"/>
<path d="M455.178 557.763C472.57 547.36 471.998 540.043 471.998 540.043C471.998 540.043 461.214 538.834 443.822 549.237C426.43 559.64 427.002 566.957 427.002 566.957C427.002 566.957 437.786 568.166 455.178 557.763Z" fill="#ACACAC" fill-opacity="0.24"/>
<path d="M1048.18 298.763C1065.57 288.36 1065 281.043 1065 281.043C1065 281.043 1054.21 279.834 1036.82 290.237C1019.43 300.64 1020 307.957 1020 307.957C1020 307.957 1030.79 309.166 1048.18 298.763Z" fill="#ACACAC" fill-opacity="0.24"/>
<path d="M1048.18 812.763C1065.57 802.36 1065 795.043 1065 795.043C1065 795.043 1054.21 793.834 1036.82 804.237C1019.43 814.64 1020 821.957 1020 821.957C1020 821.957 1030.79 823.166 1048.18 812.763Z" fill="#ACACAC" fill-opacity="0.24"/>
<path d="M453.178 298.763C470.57 288.36 469.998 281.043 469.998 281.043C469.998 281.043 459.214 279.834 441.822 290.237C424.43 300.64 425.002 307.957 425.002 307.957C425.002 307.957 435.786 309.166 453.178 298.763Z" fill="#ACACAC" fill-opacity="0.24"/>
<path d="M455.178 812.763C472.57 802.36 471.998 795.043 471.998 795.043C471.998 795.043 461.214 793.834 443.822 804.237C426.43 814.64 427.002 821.957 427.002 821.957C427.002 821.957 437.786 823.166 455.178 812.763Z" fill="#ACACAC" fill-opacity="0.24"/>
<path d="M748.178 43.7627C765.57 33.3596 764.998 26.043 764.998 26.043C764.998 26.043 754.214 24.8342 736.822 35.2373C719.43 45.6404 720.002 52.957 720.002 52.957C720.002 52.957 730.786 54.1658 748.178 43.7627Z" fill="#ACACAC" fill-opacity="0.24"/>
<path d="M748.178 557.763C765.57 547.36 764.998 540.043 764.998 540.043C764.998 540.043 754.214 538.834 736.822 549.237C719.43 559.64 720.002 566.957 720.002 566.957C720.002 566.957 730.786 568.166 748.178 557.763Z" fill="#ACACAC" fill-opacity="0.24"/>
<path d="M153.178 43.7627C170.57 33.3596 169.998 26.043 169.998 26.043C169.998 26.043 159.214 24.8342 141.822 35.2373C124.43 45.6404 125.002 52.957 125.002 52.957C125.002 52.957 135.786 54.1658 153.178 43.7627Z" fill="#ACACAC" fill-opacity="0.24"/>
<path d="M155.178 557.763C172.57 547.36 171.998 540.043 171.998 540.043C171.998 540.043 161.214 538.834 143.822 549.237C126.43 559.64 127.002 566.957 127.002 566.957C127.002 566.957 137.786 568.166 155.178 557.763Z" fill="#ACACAC" fill-opacity="0.24"/>
<path d="M748.178 298.763C765.57 288.36 764.998 281.043 764.998 281.043C764.998 281.043 754.214 279.834 736.822 290.237C719.43 300.64 720.002 307.957 720.002 307.957C720.002 307.957 730.786 309.166 748.178 298.763Z" fill="#ACACAC" fill-opacity="0.24"/>
<path d="M748.178 812.763C765.57 802.36 764.998 795.043 764.998 795.043C764.998 795.043 754.214 793.834 736.822 804.237C719.43 814.64 720.002 821.957 720.002 821.957C720.002 821.957 730.786 823.166 748.178 812.763Z" fill="#ACACAC" fill-opacity="0.24"/>
<path d="M153.178 298.763C170.57 288.36 169.998 281.043 169.998 281.043C169.998 281.043 159.214 279.834 141.822 290.237C124.43 300.64 125.002 307.957 125.002 307.957C125.002 307.957 135.786 309.166 153.178 298.763Z" fill="#ACACAC" fill-opacity="0.24"/>
<path d="M155.178 812.763C172.57 802.36 171.998 795.043 171.998 795.043C171.998 795.043 161.214 793.834 143.822 804.237C126.43 814.64 127.002 821.957 127.002 821.957C127.002 821.957 137.786 823.166 155.178 812.763Z" fill="#ACACAC" fill-opacity="0.24"/>
<path d="M1048.18 169.763C1065.57 159.36 1065 152.043 1065 152.043C1065 152.043 1054.21 150.834 1036.82 161.237C1019.43 171.64 1020 178.957 1020 178.957C1020 178.957 1030.79 180.166 1048.18 169.763Z" fill="#ACACAC" fill-opacity="0.24"/>
<path d="M1048.18 683.763C1065.57 673.36 1065 666.043 1065 666.043C1065 666.043 1054.21 664.834 1036.82 675.237C1019.43 685.64 1020 692.957 1020 692.957C1020 692.957 1030.79 694.166 1048.18 683.763Z" fill="#ACACAC" fill-opacity="0.24"/>
<path d="M453.178 169.763C470.57 159.36 469.998 152.043 469.998 152.043C469.998 152.043 459.214 150.834 441.822 161.237C424.43 171.64 425.002 178.957 425.002 178.957C425.002 178.957 435.786 180.166 453.178 169.763Z" fill="#ACACAC" fill-opacity="0.24"/>
<path d="M455.178 683.763C472.57 673.36 471.998 666.043 471.998 666.043C471.998 666.043 461.214 664.834 443.822 675.237C426.43 685.64 427.002 692.957 427.002 692.957C427.002 692.957 437.786 694.166 455.178 683.763Z" fill="#ACACAC" fill-opacity="0.24"/>
<path d="M1048.18 424.763C1065.57 414.36 1065 407.043 1065 407.043C1065 407.043 1054.21 405.834 1036.82 416.237C1019.43 426.64 1020 433.957 1020 433.957C1020 433.957 1030.79 435.166 1048.18 424.763Z" fill="#ACACAC" fill-opacity="0.24"/>
<path d="M1048.18 938.763C1065.57 928.36 1065 921.043 1065 921.043C1065 921.043 1054.21 919.834 1036.82 930.237C1019.43 940.64 1020 947.957 1020 947.957C1020 947.957 1030.79 949.166 1048.18 938.763Z" fill="#ACACAC" fill-opacity="0.24"/>
<path d="M453.178 424.763C470.57 414.36 469.998 407.043 469.998 407.043C469.998 407.043 459.214 405.834 441.822 416.237C424.43 426.64 425.002 433.957 425.002 433.957C425.002 433.957 435.786 435.166 453.178 424.763Z" fill="#ACACAC" fill-opacity="0.24"/>
<path d="M455.178 938.763C472.57 928.36 471.998 921.043 471.998 921.043C471.998 921.043 461.214 919.834 443.822 930.237C426.43 940.64 427.002 947.957 427.002 947.957C427.002 947.957 437.786 949.166 455.178 938.763Z" fill="#ACACAC" fill-opacity="0.24"/>
<path d="M748.178 169.763C765.57 159.36 764.998 152.043 764.998 152.043C764.998 152.043 754.214 150.834 736.822 161.237C719.43 171.64 720.002 178.957 720.002 178.957C720.002 178.957 730.786 180.166 748.178 169.763Z" fill="#ACACAC" fill-opacity="0.24"/>
<path d="M748.178 683.763C765.57 673.36 764.998 666.043 764.998 666.043C764.998 666.043 754.214 664.834 736.822 675.237C719.43 685.64 720.002 692.957 720.002 692.957C720.002 692.957 730.786 694.166 748.178 683.763Z" fill="#ACACAC" fill-opacity="0.24"/>
<path d="M153.178 169.763C170.57 159.36 169.998 152.043 169.998 152.043C169.998 152.043 159.214 150.834 141.822 161.237C124.43 171.64 125.002 178.957 125.002 178.957C125.002 178.957 135.786 180.166 153.178 169.763Z" fill="#ACACAC" fill-opacity="0.24"/>
<path d="M155.178 683.763C172.57 673.36 171.998 666.043 171.998 666.043C171.998 666.043 161.214 664.834 143.822 675.237C126.43 685.64 127.002 692.957 127.002 692.957C127.002 692.957 137.786 694.166 155.178 683.763Z" fill="#ACACAC" fill-opacity="0.24"/>
<path d="M748.178 424.763C765.57 414.36 764.998 407.043 764.998 407.043C764.998 407.043 754.214 405.834 736.822 416.237C719.43 426.64 720.002 433.957 720.002 433.957C720.002 433.957 730.786 435.166 748.178 424.763Z" fill="#ACACAC" fill-opacity="0.24"/>
<path d="M748.178 938.763C765.57 928.36 764.998 921.043 764.998 921.043C764.998 921.043 754.214 919.834 736.822 930.237C719.43 940.64 720.002 947.957 720.002 947.957C720.002 947.957 730.786 949.166 748.178 938.763Z" fill="#ACACAC" fill-opacity="0.24"/>
<path d="M153.178 424.763C170.57 414.36 169.998 407.043 169.998 407.043C169.998 407.043 159.214 405.834 141.822 416.237C124.43 426.64 125.002 433.957 125.002 433.957C125.002 433.957 135.786 435.166 153.178 424.763Z" fill="#ACACAC" fill-opacity="0.24"/>
<path d="M88.1783 424.763C105.57 414.36 104.998 407.043 104.998 407.043C104.998 407.043 94.2139 405.834 76.8217 416.237C59.4295 426.64 60.0022 433.957 60.0022 433.957C60.0022 433.957 70.7861 435.166 88.1783 424.763Z" fill="#ACACAC" fill-opacity="0.24"/>
<path d="M1002.82 106.763C985.43 96.3596 986.002 89.043 986.002 89.043C986.002 89.043 996.786 87.8342 1014.18 98.2373C1031.57 108.64 1031 115.957 1031 115.957C1031 115.957 1020.21 117.166 1002.82 106.763Z" fill="#ACACAC" fill-opacity="0.24"/>
<path d="M1002.82 620.763C985.43 610.36 986.002 603.043 986.002 603.043C986.002 603.043 996.786 601.834 1014.18 612.237C1031.57 622.64 1031 629.957 1031 629.957C1031 629.957 1020.21 631.166 1002.82 620.763Z" fill="#ACACAC" fill-opacity="0.24"/>
<path d="M407.822 106.763C390.43 96.3596 391.002 89.043 391.002 89.043C391.002 89.043 401.786 87.8342 419.178 98.2373C436.57 108.64 435.998 115.957 435.998 115.957C435.998 115.957 425.214 117.166 407.822 106.763Z" fill="#ACACAC" fill-opacity="0.24"/>
<path d="M409.822 620.763C392.43 610.36 393.002 603.043 393.002 603.043C393.002 603.043 403.786 601.834 421.178 612.237C438.57 622.64 437.998 629.957 437.998 629.957C437.998 629.957 427.214 631.166 409.822 620.763Z" fill="#ACACAC" fill-opacity="0.24"/>
<path d="M1002.82 361.763C985.43 351.36 986.002 344.043 986.002 344.043C986.002 344.043 996.786 342.834 1014.18 353.237C1031.57 363.64 1031 370.957 1031 370.957C1031 370.957 1020.21 372.166 1002.82 361.763Z" fill="#ACACAC" fill-opacity="0.24"/>
<path d="M1002.82 875.763C985.43 865.36 986.002 858.043 986.002 858.043C986.002 858.043 996.786 856.834 1014.18 867.237C1031.57 877.64 1031 884.957 1031 884.957C1031 884.957 1020.21 886.166 1002.82 875.763Z" fill="#ACACAC" fill-opacity="0.24"/>
<path d="M407.822 361.763C390.43 351.36 391.002 344.043 391.002 344.043C391.002 344.043 401.786 342.834 419.178 353.237C436.57 363.64 435.998 370.957 435.998 370.957C435.998 370.957 425.214 372.166 407.822 361.763Z" fill="#ACACAC" fill-opacity="0.24"/>
<path d="M409.822 875.763C392.43 865.36 393.002 858.043 393.002 858.043C393.002 858.043 403.786 856.834 421.178 867.237C438.57 877.64 437.998 884.957 437.998 884.957C437.998 884.957 427.214 886.166 409.822 875.763Z" fill="#ACACAC" fill-opacity="0.24"/>
<path d="M702.822 106.763C685.43 96.3596 686.002 89.043 686.002 89.043C686.002 89.043 696.786 87.8342 714.178 98.2373C731.57 108.64 730.998 115.957 730.998 115.957C730.998 115.957 720.214 117.166 702.822 106.763Z" fill="#ACACAC" fill-opacity="0.24"/>
<path d="M702.822 620.763C685.43 610.36 686.002 603.043 686.002 603.043C686.002 603.043 696.786 601.834 714.178 612.237C731.57 622.64 730.998 629.957 730.998 629.957C730.998 629.957 720.214 631.166 702.822 620.763Z" fill="#ACACAC" fill-opacity="0.24"/>
<path d="M107.822 106.763C90.4295 96.3596 91.0022 89.043 91.0022 89.043C91.0022 89.043 101.786 87.8342 119.178 98.2373C136.57 108.64 135.998 115.957 135.998 115.957C135.998 115.957 125.214 117.166 107.822 106.763Z" fill="#ACACAC" fill-opacity="0.24"/>
<path d="M109.822 620.763C92.4295 610.36 93.0022 603.043 93.0022 603.043C93.0022 603.043 103.786 601.834 121.178 612.237C138.57 622.64 137.998 629.957 137.998 629.957C137.998 629.957 127.214 631.166 109.822 620.763Z" fill="#ACACAC" fill-opacity="0.24"/>
<path d="M702.822 361.763C685.43 351.36 686.002 344.043 686.002 344.043C686.002 344.043 696.786 342.834 714.178 353.237C731.57 363.64 730.998 370.957 730.998 370.957C730.998 370.957 720.214 372.166 702.822 361.763Z" fill="#ACACAC" fill-opacity="0.24"/>
<path d="M702.822 875.763C685.43 865.36 686.002 858.043 686.002 858.043C686.002 858.043 696.786 856.834 714.178 867.237C731.57 877.64 730.998 884.957 730.998 884.957C730.998 884.957 720.214 886.166 702.822 875.763Z" fill="#ACACAC" fill-opacity="0.24"/>
<path d="M107.822 361.763C90.4295 351.36 91.0022 344.043 91.0022 344.043C91.0022 344.043 101.786 342.834 119.178 353.237C136.57 363.64 135.998 370.957 135.998 370.957C135.998 370.957 125.214 372.166 107.822 361.763Z" fill="#ACACAC" fill-opacity="0.24"/>
<path d="M1002.82 232.763C985.43 222.36 986.002 215.043 986.002 215.043C986.002 215.043 996.786 213.834 1014.18 224.237C1031.57 234.64 1031 241.957 1031 241.957C1031 241.957 1020.21 243.166 1002.82 232.763Z" fill="#ACACAC" fill-opacity="0.24"/>
<path d="M1002.82 746.763C985.43 736.36 986.002 729.043 986.002 729.043C986.002 729.043 996.786 727.834 1014.18 738.237C1031.57 748.64 1031 755.957 1031 755.957C1031 755.957 1020.21 757.166 1002.82 746.763Z" fill="#ACACAC" fill-opacity="0.24"/>
<path d="M407.822 232.763C390.43 222.36 391.002 215.043 391.002 215.043C391.002 215.043 401.786 213.834 419.178 224.237C436.57 234.64 435.998 241.957 435.998 241.957C435.998 241.957 425.214 243.166 407.822 232.763Z" fill="#ACACAC" fill-opacity="0.24"/>
<path d="M409.822 746.763C392.43 736.36 393.002 729.043 393.002 729.043C393.002 729.043 403.786 727.834 421.178 738.237C438.57 748.64 437.998 755.957 437.998 755.957C437.998 755.957 427.214 757.166 409.822 746.763Z" fill="#ACACAC" fill-opacity="0.24"/>
<path d="M1002.82 487.763C985.43 477.36 986.002 470.043 986.002 470.043C986.002 470.043 996.786 468.834 1014.18 479.237C1031.57 489.64 1031 496.957 1031 496.957C1031 496.957 1020.21 498.166 1002.82 487.763Z" fill="#ACACAC" fill-opacity="0.24"/>
<path d="M1002.82 1001.76C985.43 991.36 986.002 984.043 986.002 984.043C986.002 984.043 996.786 982.834 1014.18 993.237C1031.57 1003.64 1031 1010.96 1031 1010.96C1031 1010.96 1020.21 1012.17 1002.82 1001.76Z" fill="#ACACAC" fill-opacity="0.24"/>
<path d="M407.822 487.763C390.43 477.36 391.002 470.043 391.002 470.043C391.002 470.043 401.786 468.834 419.178 479.237C436.57 489.64 435.998 496.957 435.998 496.957C435.998 496.957 425.214 498.166 407.822 487.763Z" fill="#ACACAC" fill-opacity="0.24"/>
<path d="M409.822 1001.76C392.43 991.36 393.002 984.043 393.002 984.043C393.002 984.043 403.786 982.834 421.178 993.237C438.57 1003.64 437.998 1010.96 437.998 1010.96C437.998 1010.96 427.214 1012.17 409.822 1001.76Z" fill="#ACACAC" fill-opacity="0.24"/>
<path d="M523.178 1061.76C540.57 1051.36 539.998 1044.04 539.998 1044.04C539.998 1044.04 529.214 1042.83 511.822 1053.24C494.43 1063.64 495.002 1070.96 495.002 1070.96C495.002 1070.96 505.786 1072.17 523.178 1061.76Z" fill="#ACACAC" fill-opacity="0.24"/>
<path d="M702.822 232.763C685.43 222.36 686.002 215.043 686.002 215.043C686.002 215.043 696.786 213.834 714.178 224.237C731.57 234.64 730.998 241.957 730.998 241.957C730.998 241.957 720.214 243.166 702.822 232.763Z" fill="#ACACAC" fill-opacity="0.24"/>
<path d="M702.822 746.763C685.43 736.36 686.002 729.043 686.002 729.043C686.002 729.043 696.786 727.834 714.178 738.237C731.57 748.64 730.998 755.957 730.998 755.957C730.998 755.957 720.214 757.166 702.822 746.763Z" fill="#ACACAC" fill-opacity="0.24"/>
<path d="M107.822 232.763C90.4295 222.36 91.0022 215.043 91.0022 215.043C91.0022 215.043 101.786 213.834 119.178 224.237C136.57 234.64 135.998 241.957 135.998 241.957C135.998 241.957 125.214 243.166 107.822 232.763Z" fill="#ACACAC" fill-opacity="0.24"/>
<path d="M702.822 487.763C685.43 477.36 686.002 470.043 686.002 470.043C686.002 470.043 696.786 468.834 714.178 479.237C731.57 489.64 730.998 496.957 730.998 496.957C730.998 496.957 720.214 498.166 702.822 487.763Z" fill="#ACACAC" fill-opacity="0.24"/>
<path d="M702.822 1001.76C685.43 991.36 686.002 984.043 686.002 984.043C686.002 984.043 696.786 982.834 714.178 993.237C731.57 1003.64 730.998 1010.96 730.998 1010.96C730.998 1010.96 720.214 1012.17 702.822 1001.76Z" fill="#ACACAC" fill-opacity="0.24"/>
<path d="M230.178 1061.76C247.57 1051.36 246.998 1044.04 246.998 1044.04C246.998 1044.04 236.214 1042.83 218.822 1053.24C201.43 1063.64 202.002 1070.96 202.002 1070.96C202.002 1070.96 212.786 1072.17 230.178 1061.76Z" fill="#ACACAC" fill-opacity="0.24"/>
<path d="M107.822 487.763C90.4295 477.36 91.0022 470.043 91.0022 470.043C91.0022 470.043 101.786 468.834 119.178 479.237C136.57 489.64 135.998 496.957 135.998 496.957C135.998 496.957 125.214 498.166 107.822 487.763Z" fill="#ACACAC" fill-opacity="0.24"/>
<path d="M823.178 1061.76C840.57 1051.36 839.998 1044.04 839.998 1044.04C839.998 1044.04 829.214 1042.83 811.822 1053.24C794.43 1063.64 795.002 1070.96 795.002 1070.96C795.002 1070.96 805.786 1072.17 823.178 1061.76Z" fill="#ACACAC" fill-opacity="0.24"/>
<path d="M973.178 43.7627C990.57 33.3596 989.998 26.043 989.998 26.043C989.998 26.043 979.214 24.8342 961.822 35.2373C944.43 45.6404 945.002 52.957 945.002 52.957C945.002 52.957 955.786 54.1658 973.178 43.7627Z" fill="#ACACAC" fill-opacity="0.24"/>
<path d="M973.178 557.763C990.57 547.36 989.998 540.043 989.998 540.043C989.998 540.043 979.214 538.834 961.822 549.237C944.43 559.64 945.002 566.957 945.002 566.957C945.002 566.957 955.786 568.166 973.178 557.763Z" fill="#ACACAC" fill-opacity="0.24"/>
<path d="M378.178 43.7627C395.57 33.3596 394.998 26.043 394.998 26.043C394.998 26.043 384.214 24.8342 366.822 35.2373C349.43 45.6404 350.002 52.957 350.002 52.957C350.002 52.957 360.786 54.1658 378.178 43.7627Z" fill="#ACACAC" fill-opacity="0.24"/>
<path d="M380.178 557.763C397.57 547.36 396.998 540.043 396.998 540.043C396.998 540.043 386.214 538.834 368.822 549.237C351.43 559.64 352.002 566.957 352.002 566.957C352.002 566.957 362.786 568.166 380.178 557.763Z" fill="#ACACAC" fill-opacity="0.24"/>
<path d="M973.178 298.763C990.57 288.36 989.998 281.043 989.998 281.043C989.998 281.043 979.214 279.834 961.822 290.237C944.43 300.64 945.002 307.957 945.002 307.957C945.002 307.957 955.786 309.166 973.178 298.763Z" fill="#ACACAC" fill-opacity="0.24"/>
<path d="M973.178 812.763C990.57 802.36 989.998 795.043 989.998 795.043C989.998 795.043 979.214 793.834 961.822 804.237C944.43 814.64 945.002 821.957 945.002 821.957C945.002 821.957 955.786 823.166 973.178 812.763Z" fill="#ACACAC" fill-opacity="0.24"/>
<path d="M378.178 298.763C395.57 288.36 394.998 281.043 394.998 281.043C394.998 281.043 384.214 279.834 366.822 290.237C349.43 300.64 350.002 307.957 350.002 307.957C350.002 307.957 360.786 309.166 378.178 298.763Z" fill="#ACACAC" fill-opacity="0.24"/>
<path d="M380.178 812.763C397.57 802.36 396.998 795.043 396.998 795.043C396.998 795.043 386.214 793.834 368.822 804.237C351.43 814.64 352.002 821.957 352.002 821.957C352.002 821.957 362.786 823.166 380.178 812.763Z" fill="#ACACAC" fill-opacity="0.24"/>
<path d="M673.178 43.7627C690.57 33.3596 689.998 26.043 689.998 26.043C689.998 26.043 679.214 24.8342 661.822 35.2373C644.43 45.6404 645.002 52.957 645.002 52.957C645.002 52.957 655.786 54.1658 673.178 43.7627Z" fill="#ACACAC" fill-opacity="0.24"/>
<path d="M673.178 557.763C690.57 547.36 689.998 540.043 689.998 540.043C689.998 540.043 679.214 538.834 661.822 549.237C644.43 559.64 645.002 566.957 645.002 566.957C645.002 566.957 655.786 568.166 673.178 557.763Z" fill="#ACACAC" fill-opacity="0.24"/>
<path d="M78.1783 43.7627C95.5705 33.3596 94.9978 26.043 94.9978 26.043C94.9978 26.043 84.2139 24.8342 66.8217 35.2373C49.4295 45.6404 50.0022 52.957 50.0022 52.957C50.0022 52.957 60.7861 54.1658 78.1783 43.7627Z" fill="#ACACAC" fill-opacity="0.24"/>
<path d="M673.178 298.763C690.57 288.36 689.998 281.043 689.998 281.043C689.998 281.043 679.214 279.834 661.822 290.237C644.43 300.64 645.002 307.957 645.002 307.957C645.002 307.957 655.786 309.166 673.178 298.763Z" fill="#ACACAC" fill-opacity="0.24"/>
<path d="M673.178 812.763C690.57 802.36 689.998 795.043 689.998 795.043C689.998 795.043 679.214 793.834 661.822 804.237C644.43 814.64 645.002 821.957 645.002 821.957C645.002 821.957 655.786 823.166 673.178 812.763Z" fill="#ACACAC" fill-opacity="0.24"/>
<path d="M78.1783 298.763C95.5705 288.36 94.9978 281.043 94.9978 281.043C94.9978 281.043 84.2139 279.834 66.8217 290.237C49.4295 300.64 50.0022 307.957 50.0022 307.957C50.0022 307.957 60.7861 309.166 78.1783 298.763Z" fill="#ACACAC" fill-opacity="0.24"/>
<path d="M973.178 169.763C990.57 159.36 989.998 152.043 989.998 152.043C989.998 152.043 979.214 150.834 961.822 161.237C944.43 171.64 945.002 178.957 945.002 178.957C945.002 178.957 955.786 180.166 973.178 169.763Z" fill="#ACACAC" fill-opacity="0.24"/>
<path d="M973.178 683.763C990.57 673.36 989.998 666.043 989.998 666.043C989.998 666.043 979.214 664.834 961.822 675.237C944.43 685.64 945.002 692.957 945.002 692.957C945.002 692.957 955.786 694.166 973.178 683.763Z" fill="#ACACAC" fill-opacity="0.24"/>
<path d="M378.178 169.763C395.57 159.36 394.998 152.043 394.998 152.043C394.998 152.043 384.214 150.834 366.822 161.237C349.43 171.64 350.002 178.957 350.002 178.957C350.002 178.957 360.786 180.166 378.178 169.763Z" fill="#ACACAC" fill-opacity="0.24"/>
<path d="M380.178 683.763C397.57 673.36 396.998 666.043 396.998 666.043C396.998 666.043 386.214 664.834 368.822 675.237C351.43 685.64 352.002 692.957 352.002 692.957C352.002 692.957 362.786 694.166 380.178 683.763Z" fill="#ACACAC" fill-opacity="0.24"/>
<path d="M973.178 424.763C990.57 414.36 989.998 407.043 989.998 407.043C989.998 407.043 979.214 405.834 961.822 416.237C944.43 426.64 945.002 433.957 945.002 433.957C945.002 433.957 955.786 435.166 973.178 424.763Z" fill="#ACACAC" fill-opacity="0.24"/>
<path d="M973.178 938.763C990.57 928.36 989.998 921.043 989.998 921.043C989.998 921.043 979.214 919.834 961.822 930.237C944.43 940.64 945.002 947.957 945.002 947.957C945.002 947.957 955.786 949.166 973.178 938.763Z" fill="#ACACAC" fill-opacity="0.24"/>
<path d="M378.178 424.763C395.57 414.36 394.998 407.043 394.998 407.043C394.998 407.043 384.214 405.834 366.822 416.237C349.43 426.64 350.002 433.957 350.002 433.957C350.002 433.957 360.786 435.166 378.178 424.763Z" fill="#ACACAC" fill-opacity="0.24"/>
<path d="M380.178 938.763C397.57 928.36 396.998 921.043 396.998 921.043C396.998 921.043 386.214 919.834 368.822 930.237C351.43 940.64 352.002 947.957 352.002 947.957C352.002 947.957 362.786 949.166 380.178 938.763Z" fill="#ACACAC" fill-opacity="0.24"/>
<path d="M673.178 169.763C690.57 159.36 689.998 152.043 689.998 152.043C689.998 152.043 679.214 150.834 661.822 161.237C644.43 171.64 645.002 178.957 645.002 178.957C645.002 178.957 655.786 180.166 673.178 169.763Z" fill="#ACACAC" fill-opacity="0.24"/>
<path d="M673.178 683.763C690.57 673.36 689.998 666.043 689.998 666.043C689.998 666.043 679.214 664.834 661.822 675.237C644.43 685.64 645.002 692.957 645.002 692.957C645.002 692.957 655.786 694.166 673.178 683.763Z" fill="#ACACAC" fill-opacity="0.24"/>
<path d="M78.1783 169.763C95.5705 159.36 94.9978 152.043 94.9978 152.043C94.9978 152.043 84.2139 150.834 66.8217 161.237C49.4295 171.64 50.0022 178.957 50.0022 178.957C50.0022 178.957 60.7861 180.166 78.1783 169.763Z" fill="#ACACAC" fill-opacity="0.24"/>
<path d="M673.178 424.763C690.57 414.36 689.998 407.043 689.998 407.043C689.998 407.043 679.214 405.834 661.822 416.237C644.43 426.64 645.002 433.957 645.002 433.957C645.002 433.957 655.786 435.166 673.178 424.763Z" fill="#ACACAC" fill-opacity="0.24"/>
<path d="M673.178 938.763C690.57 928.36 689.998 921.043 689.998 921.043C689.998 921.043 679.214 919.834 661.822 930.237C644.43 940.64 645.002 947.957 645.002 947.957C645.002 947.957 655.786 949.166 673.178 938.763Z" fill="#ACACAC" fill-opacity="0.24"/>
<path d="M777.822 106.763C760.43 96.3596 761.002 89.043 761.002 89.043C761.002 89.043 771.786 87.8342 789.178 98.2373C806.57 108.64 805.998 115.957 805.998 115.957C805.998 115.957 795.214 117.166 777.822 106.763Z" fill="#ACACAC" fill-opacity="0.24"/>
<path d="M777.822 620.763C760.43 610.36 761.002 603.043 761.002 603.043C761.002 603.043 771.786 601.834 789.178 612.237C806.57 622.64 805.998 629.957 805.998 629.957C805.998 629.957 795.214 631.166 777.822 620.763Z" fill="#ACACAC" fill-opacity="0.24"/>
<path d="M182.822 106.763C165.43 96.3596 166.002 89.043 166.002 89.043C166.002 89.043 176.786 87.8342 194.178 98.2373C211.57 108.64 210.998 115.957 210.998 115.957C210.998 115.957 200.214 117.166 182.822 106.763Z" fill="#ACACAC" fill-opacity="0.24"/>
<path d="M184.822 620.763C167.43 610.36 168.002 603.043 168.002 603.043C168.002 603.043 178.786 601.834 196.178 612.237C213.57 622.64 212.998 629.957 212.998 629.957C212.998 629.957 202.214 631.166 184.822 620.763Z" fill="#ACACAC" fill-opacity="0.24"/>
<path d="M777.822 361.763C760.43 351.36 761.002 344.043 761.002 344.043C761.002 344.043 771.786 342.834 789.178 353.237C806.57 363.64 805.998 370.957 805.998 370.957C805.998 370.957 795.214 372.166 777.822 361.763Z" fill="#ACACAC" fill-opacity="0.24"/>
<path d="M777.822 875.763C760.43 865.36 761.002 858.043 761.002 858.043C761.002 858.043 771.786 856.834 789.178 867.237C806.57 877.64 805.998 884.957 805.998 884.957C805.998 884.957 795.214 886.166 777.822 875.763Z" fill="#ACACAC" fill-opacity="0.24"/>
<path d="M182.822 361.763C165.43 351.36 166.002 344.043 166.002 344.043C166.002 344.043 176.786 342.834 194.178 353.237C211.57 363.64 210.998 370.957 210.998 370.957C210.998 370.957 200.214 372.166 182.822 361.763Z" fill="#ACACAC" fill-opacity="0.24"/>
<path d="M184.822 875.763C167.43 865.36 168.002 858.043 168.002 858.043C168.002 858.043 178.786 856.834 196.178 867.237C213.57 877.64 212.998 884.957 212.998 884.957C212.998 884.957 202.214 886.166 184.822 875.763Z" fill="#ACACAC" fill-opacity="0.24"/>
<path d="M477.822 106.763C460.43 96.3596 461.002 89.043 461.002 89.043C461.002 89.043 471.786 87.8342 489.178 98.2373C506.57 108.64 505.998 115.957 505.998 115.957C505.998 115.957 495.214 117.166 477.822 106.763Z" fill="#ACACAC" fill-opacity="0.24"/>
<path d="M477.822 620.763C460.43 610.36 461.002 603.043 461.002 603.043C461.002 603.043 471.786 601.834 489.178 612.237C506.57 622.64 505.998 629.957 505.998 629.957C505.998 629.957 495.214 631.166 477.822 620.763Z" fill="#ACACAC" fill-opacity="0.24"/>
<path d="M477.822 361.763C460.43 351.36 461.002 344.043 461.002 344.043C461.002 344.043 471.786 342.834 489.178 353.237C506.57 363.64 505.998 370.957 505.998 370.957C505.998 370.957 495.214 372.166 477.822 361.763Z" fill="#ACACAC" fill-opacity="0.24"/>
<path d="M477.822 875.763C460.43 865.36 461.002 858.043 461.002 858.043C461.002 858.043 471.786 856.834 489.178 867.237C506.57 877.64 505.998 884.957 505.998 884.957C505.998 884.957 495.214 886.166 477.822 875.763Z" fill="#ACACAC" fill-opacity="0.24"/>
<path d="M777.822 232.763C760.43 222.36 761.002 215.043 761.002 215.043C761.002 215.043 771.786 213.834 789.178 224.237C806.57 234.64 805.998 241.957 805.998 241.957C805.998 241.957 795.214 243.166 777.822 232.763Z" fill="#ACACAC" fill-opacity="0.24"/>
<path d="M777.822 746.763C760.43 736.36 761.002 729.043 761.002 729.043C761.002 729.043 771.786 727.834 789.178 738.237C806.57 748.64 805.998 755.957 805.998 755.957C805.998 755.957 795.214 757.166 777.822 746.763Z" fill="#ACACAC" fill-opacity="0.24"/>
<path d="M182.822 232.763C165.43 222.36 166.002 215.043 166.002 215.043C166.002 215.043 176.786 213.834 194.178 224.237C211.57 234.64 210.998 241.957 210.998 241.957C210.998 241.957 200.214 243.166 182.822 232.763Z" fill="#ACACAC" fill-opacity="0.24"/>
<path d="M184.822 746.763C167.43 736.36 168.002 729.043 168.002 729.043C168.002 729.043 178.786 727.834 196.178 738.237C213.57 748.64 212.998 755.957 212.998 755.957C212.998 755.957 202.214 757.166 184.822 746.763Z" fill="#ACACAC" fill-opacity="0.24"/>
<path d="M777.822 487.763C760.43 477.36 761.002 470.043 761.002 470.043C761.002 470.043 771.786 468.834 789.178 479.237C806.57 489.64 805.998 496.957 805.998 496.957C805.998 496.957 795.214 498.166 777.822 487.763Z" fill="#ACACAC" fill-opacity="0.24"/>
<path d="M777.822 1001.76C760.43 991.36 761.002 984.043 761.002 984.043C761.002 984.043 771.786 982.834 789.178 993.237C806.57 1003.64 805.998 1010.96 805.998 1010.96C805.998 1010.96 795.214 1012.17 777.822 1001.76Z" fill="#ACACAC" fill-opacity="0.24"/>
<path d="M182.822 487.763C165.43 477.36 166.002 470.043 166.002 470.043C166.002 470.043 176.786 468.834 194.178 479.237C211.57 489.64 210.998 496.957 210.998 496.957C210.998 496.957 200.214 498.166 182.822 487.763Z" fill="#ACACAC" fill-opacity="0.24"/>
<path d="M184.822 1001.76C167.43 991.36 168.002 984.043 168.002 984.043C168.002 984.043 178.786 982.834 196.178 993.237C213.57 1003.64 212.998 1010.96 212.998 1010.96C212.998 1010.96 202.214 1012.17 184.822 1001.76Z" fill="#ACACAC" fill-opacity="0.24"/>
<path d="M748.178 1061.76C765.57 1051.36 764.998 1044.04 764.998 1044.04C764.998 1044.04 754.214 1042.83 736.822 1053.24C719.43 1063.64 720.002 1070.96 720.002 1070.96C720.002 1070.96 730.786 1072.17 748.178 1061.76Z" fill="#ACACAC" fill-opacity="0.24"/>
<path d="M477.822 232.763C460.43 222.36 461.002 215.043 461.002 215.043C461.002 215.043 471.786 213.834 489.178 224.237C506.57 234.64 505.998 241.957 505.998 241.957C505.998 241.957 495.214 243.166 477.822 232.763Z" fill="#ACACAC" fill-opacity="0.24"/>
<path d="M477.822 746.763C460.43 736.36 461.002 729.043 461.002 729.043C461.002 729.043 471.786 727.834 489.178 738.237C506.57 748.64 505.998 755.957 505.998 755.957C505.998 755.957 495.214 757.166 477.822 746.763Z" fill="#ACACAC" fill-opacity="0.24"/>
<path d="M477.822 487.763C460.43 477.36 461.002 470.043 461.002 470.043C461.002 470.043 471.786 468.834 489.178 479.237C506.57 489.64 505.998 496.957 505.998 496.957C505.998 496.957 495.214 498.166 477.822 487.763Z" fill="#ACACAC" fill-opacity="0.24"/>
<path d="M477.822 1001.76C460.43 991.36 461.002 984.043 461.002 984.043C461.002 984.043 471.786 982.834 489.178 993.237C506.57 1003.64 505.998 1010.96 505.998 1010.96C505.998 1010.96 495.214 1012.17 477.822 1001.76Z" fill="#ACACAC" fill-opacity="0.24"/>
<path d="M455.178 1061.76C472.57 1051.36 471.998 1044.04 471.998 1044.04C471.998 1044.04 461.214 1042.83 443.822 1053.24C426.43 1063.64 427.002 1070.96 427.002 1070.96C427.002 1070.96 437.786 1072.17 455.178 1061.76Z" fill="#ACACAC" fill-opacity="0.24"/>
<path d="M1048.18 1061.76C1065.57 1051.36 1065 1044.04 1065 1044.04C1065 1044.04 1054.21 1042.83 1036.82 1053.24C1019.43 1063.64 1020 1070.96 1020 1070.96C1020 1070.96 1030.79 1072.17 1048.18 1061.76Z" fill="#ACACAC" fill-opacity="0.24"/>
<path d="M898.178 43.7627C915.57 33.3596 914.998 26.043 914.998 26.043C914.998 26.043 904.214 24.8342 886.822 35.2373C869.43 45.6404 870.002 52.957 870.002 52.957C870.002 52.957 880.786 54.1658 898.178 43.7627Z" fill="#ACACAC" fill-opacity="0.24"/>
<path d="M898.178 557.763C915.57 547.36 914.998 540.043 914.998 540.043C914.998 540.043 904.214 538.834 886.822 549.237C869.43 559.64 870.002 566.957 870.002 566.957C870.002 566.957 880.786 568.166 898.178 557.763Z" fill="#ACACAC" fill-opacity="0.24"/>
<path d="M303.178 43.7627C320.57 33.3596 319.998 26.043 319.998 26.043C319.998 26.043 309.214 24.8342 291.822 35.2373C274.43 45.6404 275.002 52.957 275.002 52.957C275.002 52.957 285.786 54.1658 303.178 43.7627Z" fill="#ACACAC" fill-opacity="0.24"/>
<path d="M305.178 557.763C322.57 547.36 321.998 540.043 321.998 540.043C321.998 540.043 311.214 538.834 293.822 549.237C276.43 559.64 277.002 566.957 277.002 566.957C277.002 566.957 287.786 568.166 305.178 557.763Z" fill="#ACACAC" fill-opacity="0.24"/>
<path d="M898.178 298.763C915.57 288.36 914.998 281.043 914.998 281.043C914.998 281.043 904.214 279.834 886.822 290.237C869.43 300.64 870.002 307.957 870.002 307.957C870.002 307.957 880.786 309.166 898.178 298.763Z" fill="#ACACAC" fill-opacity="0.24"/>
<path d="M898.178 812.763C915.57 802.36 914.998 795.043 914.998 795.043C914.998 795.043 904.214 793.834 886.822 804.237C869.43 814.64 870.002 821.957 870.002 821.957C870.002 821.957 880.786 823.166 898.178 812.763Z" fill="#ACACAC" fill-opacity="0.24"/>
<path d="M303.178 298.763C320.57 288.36 319.998 281.043 319.998 281.043C319.998 281.043 309.214 279.834 291.822 290.237C274.43 300.64 275.002 307.957 275.002 307.957C275.002 307.957 285.786 309.166 303.178 298.763Z" fill="#ACACAC" fill-opacity="0.24"/>
<path d="M305.178 812.763C322.57 802.36 321.998 795.043 321.998 795.043C321.998 795.043 311.214 793.834 293.822 804.237C276.43 814.64 277.002 821.957 277.002 821.957C277.002 821.957 287.786 823.166 305.178 812.763Z" fill="#ACACAC" fill-opacity="0.24"/>
<path d="M598.178 43.7627C615.57 33.3596 614.998 26.043 614.998 26.043C614.998 26.043 604.214 24.8342 586.822 35.2373C569.43 45.6404 570.002 52.957 570.002 52.957C570.002 52.957 580.786 54.1658 598.178 43.7627Z" fill="#ACACAC" fill-opacity="0.24"/>
<path d="M598.178 557.763C615.57 547.36 614.998 540.043 614.998 540.043C614.998 540.043 604.214 538.834 586.822 549.237C569.43 559.64 570.002 566.957 570.002 566.957C570.002 566.957 580.786 568.166 598.178 557.763Z" fill="#ACACAC" fill-opacity="0.24"/>
<path d="M598.178 298.763C615.57 288.36 614.998 281.043 614.998 281.043C614.998 281.043 604.214 279.834 586.822 290.237C569.43 300.64 570.002 307.957 570.002 307.957C570.002 307.957 580.786 309.166 598.178 298.763Z" fill="#ACACAC" fill-opacity="0.24"/>
<path d="M598.178 812.763C615.57 802.36 614.998 795.043 614.998 795.043C614.998 795.043 604.214 793.834 586.822 804.237C569.43 814.64 570.002 821.957 570.002 821.957C570.002 821.957 580.786 823.166 598.178 812.763Z" fill="#ACACAC" fill-opacity="0.24"/>
<path d="M898.178 169.763C915.57 159.36 914.998 152.043 914.998 152.043C914.998 152.043 904.214 150.834 886.822 161.237C869.43 171.64 870.002 178.957 870.002 178.957C870.002 178.957 880.786 180.166 898.178 169.763Z" fill="#ACACAC" fill-opacity="0.24"/>
<path d="M898.178 683.763C915.57 673.36 914.998 666.043 914.998 666.043C914.998 666.043 904.214 664.834 886.822 675.237C869.43 685.64 870.002 692.957 870.002 692.957C870.002 692.957 880.786 694.166 898.178 683.763Z" fill="#ACACAC" fill-opacity="0.24"/>
<path d="M303.178 169.763C320.57 159.36 319.998 152.043 319.998 152.043C319.998 152.043 309.214 150.834 291.822 161.237C274.43 171.64 275.002 178.957 275.002 178.957C275.002 178.957 285.786 180.166 303.178 169.763Z" fill="#ACACAC" fill-opacity="0.24"/>
<path d="M305.178 683.763C322.57 673.36 321.998 666.043 321.998 666.043C321.998 666.043 311.214 664.834 293.822 675.237C276.43 685.64 277.002 692.957 277.002 692.957C277.002 692.957 287.786 694.166 305.178 683.763Z" fill="#ACACAC" fill-opacity="0.24"/>
<path d="M898.178 424.763C915.57 414.36 914.998 407.043 914.998 407.043C914.998 407.043 904.214 405.834 886.822 416.237C869.43 426.64 870.002 433.957 870.002 433.957C870.002 433.957 880.786 435.166 898.178 424.763Z" fill="#ACACAC" fill-opacity="0.24"/>
<path d="M898.178 938.763C915.57 928.36 914.998 921.043 914.998 921.043C914.998 921.043 904.214 919.834 886.822 930.237C869.43 940.64 870.002 947.957 870.002 947.957C870.002 947.957 880.786 949.166 898.178 938.763Z" fill="#ACACAC" fill-opacity="0.24"/>
<path d="M303.178 424.763C320.57 414.36 319.998 407.043 319.998 407.043C319.998 407.043 309.214 405.834 291.822 416.237C274.43 426.64 275.002 433.957 275.002 433.957C275.002 433.957 285.786 435.166 303.178 424.763Z" fill="#ACACAC" fill-opacity="0.24"/>
<path d="M305.178 938.763C322.57 928.36 321.998 921.043 321.998 921.043C321.998 921.043 311.214 919.834 293.822 930.237C276.43 940.64 277.002 947.957 277.002 947.957C277.002 947.957 287.786 949.166 305.178 938.763Z" fill="#ACACAC" fill-opacity="0.24"/>
<path d="M598.178 169.763C615.57 159.36 614.998 152.043 614.998 152.043C614.998 152.043 604.214 150.834 586.822 161.237C569.43 171.64 570.002 178.957 570.002 178.957C570.002 178.957 580.786 180.166 598.178 169.763Z" fill="#ACACAC" fill-opacity="0.24"/>
<path d="M598.178 683.763C615.57 673.36 614.998 666.043 614.998 666.043C614.998 666.043 604.214 664.834 586.822 675.237C569.43 685.64 570.002 692.957 570.002 692.957C570.002 692.957 580.786 694.166 598.178 683.763Z" fill="#ACACAC" fill-opacity="0.24"/>
<path d="M598.178 424.763C615.57 414.36 614.998 407.043 614.998 407.043C614.998 407.043 604.214 405.834 586.822 416.237C569.43 426.64 570.002 433.957 570.002 433.957C570.002 433.957 580.786 435.166 598.178 424.763Z" fill="#ACACAC" fill-opacity="0.24"/>
<path d="M598.178 938.763C615.57 928.36 614.998 921.043 614.998 921.043C614.998 921.043 604.214 919.834 586.822 930.237C569.43 940.64 570.002 947.957 570.002 947.957C570.002 947.957 580.786 949.166 598.178 938.763Z" fill="#ACACAC" fill-opacity="0.24"/>
<path d="M852.822 106.763C835.43 96.3596 836.002 89.043 836.002 89.043C836.002 89.043 846.786 87.8342 864.178 98.2373C881.57 108.64 880.998 115.957 880.998 115.957C880.998 115.957 870.214 117.166 852.822 106.763Z" fill="#ACACAC" fill-opacity="0.24"/>
<path d="M852.822 620.763C835.43 610.36 836.002 603.043 836.002 603.043C836.002 603.043 846.786 601.834 864.178 612.237C881.57 622.64 880.998 629.957 880.998 629.957C880.998 629.957 870.214 631.166 852.822 620.763Z" fill="#ACACAC" fill-opacity="0.24"/>
<path d="M257.822 106.763C240.43 96.3596 241.002 89.043 241.002 89.043C241.002 89.043 251.786 87.8342 269.178 98.2373C286.57 108.64 285.998 115.957 285.998 115.957C285.998 115.957 275.214 117.166 257.822 106.763Z" fill="#ACACAC" fill-opacity="0.24"/>
<path d="M259.822 620.763C242.43 610.36 243.002 603.043 243.002 603.043C243.002 603.043 253.786 601.834 271.178 612.237C288.57 622.64 287.998 629.957 287.998 629.957C287.998 629.957 277.214 631.166 259.822 620.763Z" fill="#ACACAC" fill-opacity="0.24"/>
<path d="M852.822 361.763C835.43 351.36 836.002 344.043 836.002 344.043C836.002 344.043 846.786 342.834 864.178 353.237C881.57 363.64 880.998 370.957 880.998 370.957C880.998 370.957 870.214 372.166 852.822 361.763Z" fill="#ACACAC" fill-opacity="0.24"/>
<path d="M852.822 875.763C835.43 865.36 836.002 858.043 836.002 858.043C836.002 858.043 846.786 856.834 864.178 867.237C881.57 877.64 880.998 884.957 880.998 884.957C880.998 884.957 870.214 886.166 852.822 875.763Z" fill="#ACACAC" fill-opacity="0.24"/>
<path d="M257.822 361.763C240.43 351.36 241.002 344.043 241.002 344.043C241.002 344.043 251.786 342.834 269.178 353.237C286.57 363.64 285.998 370.957 285.998 370.957C285.998 370.957 275.214 372.166 257.822 361.763Z" fill="#ACACAC" fill-opacity="0.24"/>
<path d="M259.822 875.763C242.43 865.36 243.002 858.043 243.002 858.043C243.002 858.043 253.786 856.834 271.178 867.237C288.57 877.64 287.998 884.957 287.998 884.957C287.998 884.957 277.214 886.166 259.822 875.763Z" fill="#ACACAC" fill-opacity="0.24"/>
<path d="M552.822 106.763C535.43 96.3596 536.002 89.043 536.002 89.043C536.002 89.043 546.786 87.8342 564.178 98.2373C581.57 108.64 580.998 115.957 580.998 115.957C580.998 115.957 570.214 117.166 552.822 106.763Z" fill="#ACACAC" fill-opacity="0.24"/>
<path d="M552.822 620.763C535.43 610.36 536.002 603.043 536.002 603.043C536.002 603.043 546.786 601.834 564.178 612.237C581.57 622.64 580.998 629.957 580.998 629.957C580.998 629.957 570.214 631.166 552.822 620.763Z" fill="#ACACAC" fill-opacity="0.24"/>
<path d="M552.822 361.763C535.43 351.36 536.002 344.043 536.002 344.043C536.002 344.043 546.786 342.834 564.178 353.237C581.57 363.64 580.998 370.957 580.998 370.957C580.998 370.957 570.214 372.166 552.822 361.763Z" fill="#ACACAC" fill-opacity="0.24"/>
<path d="M552.822 875.763C535.43 865.36 536.002 858.043 536.002 858.043C536.002 858.043 546.786 856.834 564.178 867.237C581.57 877.64 580.998 884.957 580.998 884.957C580.998 884.957 570.214 886.166 552.822 875.763Z" fill="#ACACAC" fill-opacity="0.24"/>
<path d="M852.822 232.763C835.43 222.36 836.002 215.043 836.002 215.043C836.002 215.043 846.786 213.834 864.178 224.237C881.57 234.64 880.998 241.957 880.998 241.957C880.998 241.957 870.214 243.166 852.822 232.763Z" fill="#ACACAC" fill-opacity="0.24"/>
<path d="M852.822 746.763C835.43 736.36 836.002 729.043 836.002 729.043C836.002 729.043 846.786 727.834 864.178 738.237C881.57 748.64 880.998 755.957 880.998 755.957C880.998 755.957 870.214 757.166 852.822 746.763Z" fill="#ACACAC" fill-opacity="0.24"/>
<path d="M257.822 232.763C240.43 222.36 241.002 215.043 241.002 215.043C241.002 215.043 251.786 213.834 269.178 224.237C286.57 234.64 285.998 241.957 285.998 241.957C285.998 241.957 275.214 243.166 257.822 232.763Z" fill="#ACACAC" fill-opacity="0.24"/>
<path d="M259.822 746.763C242.43 736.36 243.002 729.043 243.002 729.043C243.002 729.043 253.786 727.834 271.178 738.237C288.57 748.64 287.998 755.957 287.998 755.957C287.998 755.957 277.214 757.166 259.822 746.763Z" fill="#ACACAC" fill-opacity="0.24"/>
<path d="M852.822 487.763C835.43 477.36 836.002 470.043 836.002 470.043C836.002 470.043 846.786 468.834 864.178 479.237C881.57 489.64 880.998 496.957 880.998 496.957C880.998 496.957 870.214 498.166 852.822 487.763Z" fill="#ACACAC" fill-opacity="0.24"/>
<path d="M852.822 1001.76C835.43 991.36 836.002 984.043 836.002 984.043C836.002 984.043 846.786 982.834 864.178 993.237C881.57 1003.64 880.998 1010.96 880.998 1010.96C880.998 1010.96 870.214 1012.17 852.822 1001.76Z" fill="#ACACAC" fill-opacity="0.24"/>
<path d="M257.822 487.763C240.43 477.36 241.002 470.043 241.002 470.043C241.002 470.043 251.786 468.834 269.178 479.237C286.57 489.64 285.998 496.957 285.998 496.957C285.998 496.957 275.214 498.166 257.822 487.763Z" fill="#ACACAC" fill-opacity="0.24"/>
<path d="M259.822 1001.76C242.43 991.36 243.002 984.043 243.002 984.043C243.002 984.043 253.786 982.834 271.178 993.237C288.57 1003.64 287.998 1010.96 287.998 1010.96C287.998 1010.96 277.214 1012.17 259.822 1001.76Z" fill="#ACACAC" fill-opacity="0.24"/>
<path d="M673.178 1061.76C690.57 1051.36 689.998 1044.04 689.998 1044.04C689.998 1044.04 679.214 1042.83 661.822 1053.24C644.43 1063.64 645.002 1070.96 645.002 1070.96C645.002 1070.96 655.786 1072.17 673.178 1061.76Z" fill="#ACACAC" fill-opacity="0.24"/>
<path d="M552.822 232.763C535.43 222.36 536.002 215.043 536.002 215.043C536.002 215.043 546.786 213.834 564.178 224.237C581.57 234.64 580.998 241.957 580.998 241.957C580.998 241.957 570.214 243.166 552.822 232.763Z" fill="#ACACAC" fill-opacity="0.24"/>
<path d="M552.822 746.763C535.43 736.36 536.002 729.043 536.002 729.043C536.002 729.043 546.786 727.834 564.178 738.237C581.57 748.64 580.998 755.957 580.998 755.957C580.998 755.957 570.214 757.166 552.822 746.763Z" fill="#ACACAC" fill-opacity="0.24"/>
<path d="M552.822 487.763C535.43 477.36 536.002 470.043 536.002 470.043C536.002 470.043 546.786 468.834 564.178 479.237C581.57 489.64 580.998 496.957 580.998 496.957C580.998 496.957 570.214 498.166 552.822 487.763Z" fill="#ACACAC" fill-opacity="0.24"/>
<path d="M552.822 1001.76C535.43 991.36 536.002 984.043 536.002 984.043C536.002 984.043 546.786 982.834 564.178 993.237C581.57 1003.64 580.998 1010.96 580.998 1010.96C580.998 1010.96 570.214 1012.17 552.822 1001.76Z" fill="#ACACAC" fill-opacity="0.24"/>
<path d="M380.178 1061.76C397.57 1051.36 396.998 1044.04 396.998 1044.04C396.998 1044.04 386.214 1042.83 368.822 1053.24C351.43 1063.64 352.002 1070.96 352.002 1070.96C352.002 1070.96 362.786 1072.17 380.178 1061.76Z" fill="#ACACAC" fill-opacity="0.24"/>
<path d="M973.178 1061.76C990.57 1051.36 989.998 1044.04 989.998 1044.04C989.998 1044.04 979.214 1042.83 961.822 1053.24C944.43 1063.64 945.002 1070.96 945.002 1070.96C945.002 1070.96 955.786 1072.17 973.178 1061.76Z" fill="#ACACAC" fill-opacity="0.24"/>
<path d="M823.178 43.7627C840.57 33.3596 839.998 26.043 839.998 26.043C839.998 26.043 829.214 24.8342 811.822 35.2373C794.43 45.6404 795.002 52.957 795.002 52.957C795.002 52.957 805.786 54.1658 823.178 43.7627Z" fill="#ACACAC" fill-opacity="0.24"/>
<path d="M823.178 557.763C840.57 547.36 839.998 540.043 839.998 540.043C839.998 540.043 829.214 538.834 811.822 549.237C794.43 559.64 795.002 566.957 795.002 566.957C795.002 566.957 805.786 568.166 823.178 557.763Z" fill="#ACACAC" fill-opacity="0.24"/>
<path d="M228.178 43.7627C245.57 33.3596 244.998 26.043 244.998 26.043C244.998 26.043 234.214 24.8342 216.822 35.2373C199.43 45.6404 200.002 52.957 200.002 52.957C200.002 52.957 210.786 54.1658 228.178 43.7627Z" fill="#ACACAC" fill-opacity="0.24"/>
<path d="M230.178 557.763C247.57 547.36 246.998 540.043 246.998 540.043C246.998 540.043 236.214 538.834 218.822 549.237C201.43 559.64 202.002 566.957 202.002 566.957C202.002 566.957 212.786 568.166 230.178 557.763Z" fill="#ACACAC" fill-opacity="0.24"/>
<path d="M823.178 298.763C840.57 288.36 839.998 281.043 839.998 281.043C839.998 281.043 829.214 279.834 811.822 290.237C794.43 300.64 795.002 307.957 795.002 307.957C795.002 307.957 805.786 309.166 823.178 298.763Z" fill="#ACACAC" fill-opacity="0.24"/>
<path d="M823.178 812.763C840.57 802.36 839.998 795.043 839.998 795.043C839.998 795.043 829.214 793.834 811.822 804.237C794.43 814.64 795.002 821.957 795.002 821.957C795.002 821.957 805.786 823.166 823.178 812.763Z" fill="#ACACAC" fill-opacity="0.24"/>
<path d="M228.178 298.763C245.57 288.36 244.998 281.043 244.998 281.043C244.998 281.043 234.214 279.834 216.822 290.237C199.43 300.64 200.002 307.957 200.002 307.957C200.002 307.957 210.786 309.166 228.178 298.763Z" fill="#ACACAC" fill-opacity="0.24"/>
<path d="M230.178 812.763C247.57 802.36 246.998 795.043 246.998 795.043C246.998 795.043 236.214 793.834 218.822 804.237C201.43 814.64 202.002 821.957 202.002 821.957C202.002 821.957 212.786 823.166 230.178 812.763Z" fill="#ACACAC" fill-opacity="0.24"/>
<path d="M523.178 43.7627C540.57 33.3596 539.998 26.043 539.998 26.043C539.998 26.043 529.214 24.8342 511.822 35.2373C494.43 45.6404 495.002 52.957 495.002 52.957C495.002 52.957 505.786 54.1658 523.178 43.7627Z" fill="#ACACAC" fill-opacity="0.24"/>
<path d="M523.178 557.763C540.57 547.36 539.998 540.043 539.998 540.043C539.998 540.043 529.214 538.834 511.822 549.237C494.43 559.64 495.002 566.957 495.002 566.957C495.002 566.957 505.786 568.166 523.178 557.763Z" fill="#ACACAC" fill-opacity="0.24"/>
<path d="M523.178 298.763C540.57 288.36 539.998 281.043 539.998 281.043C539.998 281.043 529.214 279.834 511.822 290.237C494.43 300.64 495.002 307.957 495.002 307.957C495.002 307.957 505.786 309.166 523.178 298.763Z" fill="#ACACAC" fill-opacity="0.24"/>
<path d="M523.178 812.763C540.57 802.36 539.998 795.043 539.998 795.043C539.998 795.043 529.214 793.834 511.822 804.237C494.43 814.64 495.002 821.957 495.002 821.957C495.002 821.957 505.786 823.166 523.178 812.763Z" fill="#ACACAC" fill-opacity="0.24"/>
<path d="M823.178 169.763C840.57 159.36 839.998 152.043 839.998 152.043C839.998 152.043 829.214 150.834 811.822 161.237C794.43 171.64 795.002 178.957 795.002 178.957C795.002 178.957 805.786 180.166 823.178 169.763Z" fill="#ACACAC" fill-opacity="0.24"/>
<path d="M823.178 683.763C840.57 673.36 839.998 666.043 839.998 666.043C839.998 666.043 829.214 664.834 811.822 675.237C794.43 685.64 795.002 692.957 795.002 692.957C795.002 692.957 805.786 694.166 823.178 683.763Z" fill="#ACACAC" fill-opacity="0.24"/>
<path d="M228.178 169.763C245.57 159.36 244.998 152.043 244.998 152.043C244.998 152.043 234.214 150.834 216.822 161.237C199.43 171.64 200.002 178.957 200.002 178.957C200.002 178.957 210.786 180.166 228.178 169.763Z" fill="#ACACAC" fill-opacity="0.24"/>
<path d="M230.178 683.763C247.57 673.36 246.998 666.043 246.998 666.043C246.998 666.043 236.214 664.834 218.822 675.237C201.43 685.64 202.002 692.957 202.002 692.957C202.002 692.957 212.786 694.166 230.178 683.763Z" fill="#ACACAC" fill-opacity="0.24"/>
<path d="M823.178 424.763C840.57 414.36 839.998 407.043 839.998 407.043C839.998 407.043 829.214 405.834 811.822 416.237C794.43 426.64 795.002 433.957 795.002 433.957C795.002 433.957 805.786 435.166 823.178 424.763Z" fill="#ACACAC" fill-opacity="0.24"/>
<path d="M823.178 938.763C840.57 928.36 839.998 921.043 839.998 921.043C839.998 921.043 829.214 919.834 811.822 930.237C794.43 940.64 795.002 947.957 795.002 947.957C795.002 947.957 805.786 949.166 823.178 938.763Z" fill="#ACACAC" fill-opacity="0.24"/>
<path d="M228.178 424.763C245.57 414.36 244.998 407.043 244.998 407.043C244.998 407.043 234.214 405.834 216.822 416.237C199.43 426.64 200.002 433.957 200.002 433.957C200.002 433.957 210.786 435.166 228.178 424.763Z" fill="#ACACAC" fill-opacity="0.24"/>
<path d="M230.178 938.763C247.57 928.36 246.998 921.043 246.998 921.043C246.998 921.043 236.214 919.834 218.822 930.237C201.43 940.64 202.002 947.957 202.002 947.957C202.002 947.957 212.786 949.166 230.178 938.763Z" fill="#ACACAC" fill-opacity="0.24"/>
<path d="M523.178 169.763C540.57 159.36 539.998 152.043 539.998 152.043C539.998 152.043 529.214 150.834 511.822 161.237C494.43 171.64 495.002 178.957 495.002 178.957C495.002 178.957 505.786 180.166 523.178 169.763Z" fill="#ACACAC" fill-opacity="0.24"/>
<path d="M523.178 683.763C540.57 673.36 539.998 666.043 539.998 666.043C539.998 666.043 529.214 664.834 511.822 675.237C494.43 685.64 495.002 692.957 495.002 692.957C495.002 692.957 505.786 694.166 523.178 683.763Z" fill="#ACACAC" fill-opacity="0.24"/>
<path d="M523.178 424.763C540.57 414.36 539.998 407.043 539.998 407.043C539.998 407.043 529.214 405.834 511.822 416.237C494.43 426.64 495.002 433.957 495.002 433.957C495.002 433.957 505.786 435.166 523.178 424.763Z" fill="#ACACAC" fill-opacity="0.24"/>
<path d="M523.178 938.763C540.57 928.36 539.998 921.043 539.998 921.043C539.998 921.043 529.214 919.834 511.822 930.237C494.43 940.64 495.002 947.957 495.002 947.957C495.002 947.957 505.786 949.166 523.178 938.763Z" fill="#ACACAC" fill-opacity="0.24"/>
<path d="M927.822 106.763C910.43 96.3596 911.002 89.043 911.002 89.043C911.002 89.043 921.786 87.8342 939.178 98.2373C956.57 108.64 955.998 115.957 955.998 115.957C955.998 115.957 945.214 117.166 927.822 106.763Z" fill="#ACACAC" fill-opacity="0.24"/>
<path d="M927.822 620.763C910.43 610.36 911.002 603.043 911.002 603.043C911.002 603.043 921.786 601.834 939.178 612.237C956.57 622.64 955.998 629.957 955.998 629.957C955.998 629.957 945.214 631.166 927.822 620.763Z" fill="#ACACAC" fill-opacity="0.24"/>
<path d="M332.822 106.763C315.43 96.3596 316.002 89.043 316.002 89.043C316.002 89.043 326.786 87.8342 344.178 98.2373C361.57 108.64 360.998 115.957 360.998 115.957C360.998 115.957 350.214 117.166 332.822 106.763Z" fill="#ACACAC" fill-opacity="0.24"/>
<path d="M334.822 620.763C317.43 610.36 318.002 603.043 318.002 603.043C318.002 603.043 328.786 601.834 346.178 612.237C363.57 622.64 362.998 629.957 362.998 629.957C362.998 629.957 352.214 631.166 334.822 620.763Z" fill="#ACACAC" fill-opacity="0.24"/>
<path d="M927.822 361.763C910.43 351.36 911.002 344.043 911.002 344.043C911.002 344.043 921.786 342.834 939.178 353.237C956.57 363.64 955.998 370.957 955.998 370.957C955.998 370.957 945.214 372.166 927.822 361.763Z" fill="#ACACAC" fill-opacity="0.24"/>
<path d="M927.822 875.763C910.43 865.36 911.002 858.043 911.002 858.043C911.002 858.043 921.786 856.834 939.178 867.237C956.57 877.64 955.998 884.957 955.998 884.957C955.998 884.957 945.214 886.166 927.822 875.763Z" fill="#ACACAC" fill-opacity="0.24"/>
<path d="M332.822 361.763C315.43 351.36 316.002 344.043 316.002 344.043C316.002 344.043 326.786 342.834 344.178 353.237C361.57 363.64 360.998 370.957 360.998 370.957C360.998 370.957 350.214 372.166 332.822 361.763Z" fill="#ACACAC" fill-opacity="0.24"/>
<path d="M334.822 875.763C317.43 865.36 318.002 858.043 318.002 858.043C318.002 858.043 328.786 856.834 346.178 867.237C363.57 877.64 362.998 884.957 362.998 884.957C362.998 884.957 352.214 886.166 334.822 875.763Z" fill="#ACACAC" fill-opacity="0.24"/>
<path d="M627.822 106.763C610.43 96.3596 611.002 89.043 611.002 89.043C611.002 89.043 621.786 87.8342 639.178 98.2373C656.57 108.64 655.998 115.957 655.998 115.957C655.998 115.957 645.214 117.166 627.822 106.763Z" fill="#ACACAC" fill-opacity="0.24"/>
<path d="M627.822 620.763C610.43 610.36 611.002 603.043 611.002 603.043C611.002 603.043 621.786 601.834 639.178 612.237C656.57 622.64 655.998 629.957 655.998 629.957C655.998 629.957 645.214 631.166 627.822 620.763Z" fill="#ACACAC" fill-opacity="0.24"/>
<path d="M32.8217 106.763C15.4295 96.3596 16.0022 89.043 16.0022 89.043C16.0022 89.043 26.7861 87.8342 44.1783 98.2373C61.5705 108.64 60.9978 115.957 60.9978 115.957C60.9978 115.957 50.2139 117.166 32.8217 106.763Z" fill="#ACACAC" fill-opacity="0.24"/>
<path d="M627.822 361.763C610.43 351.36 611.002 344.043 611.002 344.043C611.002 344.043 621.786 342.834 639.178 353.237C656.57 363.64 655.998 370.957 655.998 370.957C655.998 370.957 645.214 372.166 627.822 361.763Z" fill="#ACACAC" fill-opacity="0.24"/>
<path d="M627.822 875.763C610.43 865.36 611.002 858.043 611.002 858.043C611.002 858.043 621.786 856.834 639.178 867.237C656.57 877.64 655.998 884.957 655.998 884.957C655.998 884.957 645.214 886.166 627.822 875.763Z" fill="#ACACAC" fill-opacity="0.24"/>
<path d="M927.822 232.763C910.43 222.36 911.002 215.043 911.002 215.043C911.002 215.043 921.786 213.834 939.178 224.237C956.57 234.64 955.998 241.957 955.998 241.957C955.998 241.957 945.214 243.166 927.822 232.763Z" fill="#ACACAC" fill-opacity="0.24"/>
<path d="M927.822 746.763C910.43 736.36 911.002 729.043 911.002 729.043C911.002 729.043 921.786 727.834 939.178 738.237C956.57 748.64 955.998 755.957 955.998 755.957C955.998 755.957 945.214 757.166 927.822 746.763Z" fill="#ACACAC" fill-opacity="0.24"/>
<path d="M332.822 232.763C315.43 222.36 316.002 215.043 316.002 215.043C316.002 215.043 326.786 213.834 344.178 224.237C361.57 234.64 360.998 241.957 360.998 241.957C360.998 241.957 350.214 243.166 332.822 232.763Z" fill="#ACACAC" fill-opacity="0.24"/>
<path d="M334.822 746.763C317.43 736.36 318.002 729.043 318.002 729.043C318.002 729.043 328.786 727.834 346.178 738.237C363.57 748.64 362.998 755.957 362.998 755.957C362.998 755.957 352.214 757.166 334.822 746.763Z" fill="#ACACAC" fill-opacity="0.24"/>
<path d="M927.822 487.763C910.43 477.36 911.002 470.043 911.002 470.043C911.002 470.043 921.786 468.834 939.178 479.237C956.57 489.64 955.998 496.957 955.998 496.957C955.998 496.957 945.214 498.166 927.822 487.763Z" fill="#ACACAC" fill-opacity="0.24"/>
<path d="M927.822 1001.76C910.43 991.36 911.002 984.043 911.002 984.043C911.002 984.043 921.786 982.834 939.178 993.237C956.57 1003.64 955.998 1010.96 955.998 1010.96C955.998 1010.96 945.214 1012.17 927.822 1001.76Z" fill="#ACACAC" fill-opacity="0.24"/>
<path d="M332.822 487.763C315.43 477.36 316.002 470.043 316.002 470.043C316.002 470.043 326.786 468.834 344.178 479.237C361.57 489.64 360.998 496.957 360.998 496.957C360.998 496.957 350.214 498.166 332.822 487.763Z" fill="#ACACAC" fill-opacity="0.24"/>
<path d="M334.822 1001.76C317.43 991.36 318.002 984.043 318.002 984.043C318.002 984.043 328.786 982.834 346.178 993.237C363.57 1003.64 362.998 1010.96 362.998 1010.96C362.998 1010.96 352.214 1012.17 334.822 1001.76Z" fill="#ACACAC" fill-opacity="0.24"/>
<path d="M598.178 1061.76C615.57 1051.36 614.998 1044.04 614.998 1044.04C614.998 1044.04 604.214 1042.83 586.822 1053.24C569.43 1063.64 570.002 1070.96 570.002 1070.96C570.002 1070.96 580.786 1072.17 598.178 1061.76Z" fill="#ACACAC" fill-opacity="0.24"/>
<path d="M627.822 232.763C610.43 222.36 611.002 215.043 611.002 215.043C611.002 215.043 621.786 213.834 639.178 224.237C656.57 234.64 655.998 241.957 655.998 241.957C655.998 241.957 645.214 243.166 627.822 232.763Z" fill="#ACACAC" fill-opacity="0.24"/>
<path d="M627.822 746.763C610.43 736.36 611.002 729.043 611.002 729.043C611.002 729.043 621.786 727.834 639.178 738.237C656.57 748.64 655.998 755.957 655.998 755.957C655.998 755.957 645.214 757.166 627.822 746.763Z" fill="#ACACAC" fill-opacity="0.24"/>
<path d="M32.8217 232.763C15.4295 222.36 16.0022 215.043 16.0022 215.043C16.0022 215.043 26.7861 213.834 44.1783 224.237C61.5705 234.64 60.9978 241.957 60.9978 241.957C60.9978 241.957 50.2139 243.166 32.8217 232.763Z" fill="#ACACAC" fill-opacity="0.24"/>
<path d="M627.822 487.763C610.43 477.36 611.002 470.043 611.002 470.043C611.002 470.043 621.786 468.834 639.178 479.237C656.57 489.64 655.998 496.957 655.998 496.957C655.998 496.957 645.214 498.166 627.822 487.763Z" fill="#ACACAC" fill-opacity="0.24"/>
<path d="M627.822 1001.76C610.43 991.36 611.002 984.043 611.002 984.043C611.002 984.043 621.786 982.834 639.178 993.237C656.57 1003.64 655.998 1010.96 655.998 1010.96C655.998 1010.96 645.214 1012.17 627.822 1001.76Z" fill="#ACACAC" fill-opacity="0.24"/>
<path d="M305.178 1061.76C322.57 1051.36 321.998 1044.04 321.998 1044.04C321.998 1044.04 311.214 1042.83 293.822 1053.24C276.43 1063.64 277.002 1070.96 277.002 1070.96C277.002 1070.96 287.786 1072.17 305.178 1061.76Z" fill="#ACACAC" fill-opacity="0.24"/>
<path d="M898.178 1061.76C915.57 1051.36 914.998 1044.04 914.998 1044.04C914.998 1044.04 904.214 1042.83 886.822 1053.24C869.43 1063.64 870.002 1070.96 870.002 1070.96C870.002 1070.96 880.786 1072.17 898.178 1061.76Z" fill="#ACACAC" fill-opacity="0.24"/>
<path fill-rule="evenodd" clip-rule="evenodd" d="M888.803 207C894.842 219.799 905.201 230.158 918 236.197V843.803C905.201 849.842 894.842 860.201 888.803 873H169V925H888.803C898.563 945.686 919.61 960 944 960C977.689 960 1005 932.689 1005 899C1005 874.61 990.686 853.563 970 843.803V236.197C990.686 226.437 1005 205.39 1005 181C1005 147.311 977.689 120 944 120C919.61 120 898.563 134.314 888.803 155H17V207H888.803Z" fill="#A9A9A9"/>
<mask id="path-226-inside-1_23_1100" fill="white">
<path fill-rule="evenodd" clip-rule="evenodd" d="M902.459 155L11 155L11 167L897.029 167C898.301 162.727 900.14 158.697 902.459 155ZM897.029 195L11 195L11 207L902.459 207C900.14 203.303 898.301 199.273 897.029 195Z"/>
</mask>
<path fill-rule="evenodd" clip-rule="evenodd" d="M902.459 155L11 155L11 167L897.029 167C898.301 162.727 900.14 158.697 902.459 155ZM897.029 195L11 195L11 207L902.459 207C900.14 203.303 898.301 199.273 897.029 195Z" fill="black"/>
<path d="M902.459 155L905.848 157.125L909.69 151H902.459V155ZM11 155V151H7V155H11ZM11 167H7V171H11V167ZM897.029 167V171H900.012L900.863 168.141L897.029 167ZM11 195L11 191H7L7 195H11ZM897.029 195L900.863 193.859L900.012 191H897.029V195ZM11 207H7L7 211H11V207ZM902.459 207V211H909.69L905.848 204.875L902.459 207ZM902.459 151L11 151V159L902.459 159V151ZM7 155L7 167H15L15 155H7ZM11 171L897.029 171V163L11 163V171ZM900.863 168.141C902.03 164.22 903.718 160.521 905.848 157.125L899.071 152.875C896.562 156.874 894.572 161.234 893.195 165.859L900.863 168.141ZM11 199L897.029 199V191L11 191L11 199ZM15 207L15 195H7L7 207H15ZM902.459 203L11 203L11 211L902.459 211V203ZM905.848 204.875C903.718 201.479 902.03 197.78 900.863 193.859L893.195 196.141C894.572 200.766 896.562 205.126 899.071 209.125L905.848 204.875Z" fill="black" mask="url(#path-226-inside-1_23_1100)"/>
<mask id="path-228-inside-2_23_1100" fill="white">
<path fill-rule="evenodd" clip-rule="evenodd" d="M902.459 873L11 873L11 885L897.029 885C898.301 880.727 900.14 876.697 902.459 873ZM897.029 913L11 913L11 925L902.459 925C900.14 921.303 898.301 917.273 897.029 913Z"/>
</mask>
<path fill-rule="evenodd" clip-rule="evenodd" d="M902.459 873L11 873L11 885L897.029 885C898.301 880.727 900.14 876.697 902.459 873ZM897.029 913L11 913L11 925L902.459 925C900.14 921.303 898.301 917.273 897.029 913Z" fill="black"/>
<path d="M902.459 873L905.848 875.125L909.69 869H902.459V873ZM11 873V869H7V873H11ZM11 885H7V889H11V885ZM897.029 885V889H900.012L900.863 886.141L897.029 885ZM11 913L11 909H7L7 913H11ZM897.029 913L900.863 911.859L900.012 909H897.029V913ZM11 925H7L7 929H11V925ZM902.459 925V929H909.69L905.848 922.875L902.459 925ZM902.459 869L11 869V877L902.459 877V869ZM7 873L7 885H15L15 873H7ZM11 889L897.029 889V881L11 881V889ZM900.863 886.141C902.03 882.22 903.718 878.521 905.848 875.125L899.071 870.875C896.562 874.874 894.572 879.234 893.195 883.859L900.863 886.141ZM11 917L897.029 917V909L11 909L11 917ZM15 925L15 913H7L7 925H15ZM902.459 921L11 921L11 929L902.459 929V921ZM905.848 922.875C903.718 919.479 902.03 915.78 900.863 911.859L893.195 914.141C894.572 918.766 896.562 923.126 899.071 927.125L905.848 922.875Z" fill="black" mask="url(#path-228-inside-2_23_1100)"/>
<mask id="path-230-inside-3_23_1100" fill="white">
<path fill-rule="evenodd" clip-rule="evenodd" d="M958 227.97C962.273 226.698 966.303 224.859 970 222.54V857.459C966.303 855.14 962.273 853.301 958 852.029V227.97ZM918 222.54C921.697 224.859 925.727 226.698 930 227.97V852.029C925.727 853.301 921.697 855.14 918 857.459V222.54Z"/>
</mask>
<path fill-rule="evenodd" clip-rule="evenodd" d="M958 227.97C962.273 226.698 966.303 224.859 970 222.54V857.459C966.303 855.14 962.273 853.301 958 852.029V227.97ZM918 222.54C921.697 224.859 925.727 226.698 930 227.97V852.029C925.727 853.301 921.697 855.14 918 857.459V222.54Z" fill="black"/>
<path d="M958 227.97L956.859 224.137L954 224.987V227.97H958ZM970 222.54H974V215.31L967.875 219.152L970 222.54ZM970 857.459L967.875 860.848L974 864.69V857.459H970ZM958 852.029H954V855.012L956.859 855.863L958 852.029ZM918 222.54L920.125 219.152L914 215.31V222.54H918ZM930 227.97H934V224.987L931.141 224.137L930 227.97ZM930 852.029L931.141 855.863L934 855.012V852.029H930ZM918 857.459H914V864.69L920.125 860.848L918 857.459ZM959.141 231.804C963.766 230.428 968.126 228.437 972.125 225.929L967.875 219.152C964.479 221.281 960.78 222.969 956.859 224.137L959.141 231.804ZM966 222.54V857.459H974V222.54H966ZM972.125 854.07C968.126 851.562 963.766 849.572 959.141 848.195L956.859 855.863C960.78 857.03 964.479 858.718 967.875 860.848L972.125 854.07ZM962 852.029V227.97H954V852.029H962ZM915.875 225.929C919.874 228.437 924.234 230.428 928.859 231.804L931.141 224.137C927.22 222.969 923.521 221.281 920.125 219.152L915.875 225.929ZM926 227.97V852.029H934V227.97H926ZM928.859 848.195C924.234 849.572 919.874 851.562 915.875 854.07L920.125 860.848C923.521 858.718 927.22 857.03 931.141 855.863L928.859 848.195ZM922 857.459V222.54H914V857.459H922Z" fill="black" mask="url(#path-230-inside-3_23_1100)"/>
<circle r="32.2941" transform="matrix(1 0 0 -1 944 899)" fill="black"/>
<circle r="32.2941" transform="matrix(1 0 0 -1 944 899)" stroke="black"/>
<path fill-rule="evenodd" clip-rule="evenodd" d="M993 899C993 881.119 983.423 865.475 969.118 856.919V843.395C990.278 852.968 1005 874.265 1005 899C1005 932.689 977.69 960 944 960C919.265 960 897.968 945.278 888.395 924.118H901.919C910.476 938.422 926.119 948 944 948C971.062 948 993 926.062 993 899ZM918.883 856.919C911.923 861.082 906.082 866.923 901.919 873.882H888.395C894.503 860.382 905.382 849.503 918.883 843.395V856.919Z" fill="black"/>
<circle cx="944" cy="181" r="30.2941" fill="black" stroke="black" stroke-width="4"/>
<path fill-rule="evenodd" clip-rule="evenodd" d="M993 181C993 198.881 983.423 214.525 969.118 223.081V236.605C990.278 227.032 1005 205.735 1005 181C1005 147.311 977.69 120 944 120C919.265 120 897.968 134.722 888.395 155.882H901.919C910.476 141.578 926.119 132 944 132C971.062 132 993 153.938 993 181ZM918.883 223.081C911.923 218.918 906.082 213.077 901.919 206.118H888.395C894.503 219.618 905.382 230.497 918.883 236.605V223.081Z" fill="black"/>
<path d="M1507.75 61L1461.37 -43H574.245L620.626 61H1507.75Z" fill="#EBAA04" stroke="#080808" stroke-width="12"/>
<path d="M612.755 61L566.374 -43H-320.755L-274.374 61H612.755Z" fill="#EBAA04" stroke="#080808" stroke-width="12"/>
<path d="M530 61L486.667 -43H432L475.333 61H530Z" fill="#080808" stroke="#080808" stroke-width="12"/>
<path d="M391 61L347.667 -43H293L336.333 61H391Z" fill="#080808" stroke="#080808" stroke-width="12"/>
<path d="M1090 61L1046.67 -43H992L1035.33 61H1090Z" fill="#080808" stroke="#080808" stroke-width="12"/>
<path d="M252 61L208.667 -43H154L197.333 61H252Z" fill="#080808" stroke="#080808" stroke-width="12"/>
<path d="M950.97 61L907.263 -43H852.03L895.737 61H950.97Z" fill="#080808" stroke="#080808" stroke-width="12"/>
<path d="M112.97 61L69.2632 -43H14.0299L57.7368 61H112.97Z" fill="#080808" stroke="#080808" stroke-width="12"/>
<path d="M811 61L767.667 -43H713L756.333 61H811Z" fill="#080808" stroke="#080808" stroke-width="12"/>
<path d="M671 61L627.667 -43H573L616.333 61H671Z" fill="#080808" stroke="#080808" stroke-width="12"/>
<path d="M1446.75 1121L1400.37 1017H513.245L559.626 1121H1446.75Z" fill="#EBAA04" stroke="#080808" stroke-width="12"/>
<path d="M551.755 1121L505.374 1017H-381.755L-335.374 1121H551.755Z" fill="#EBAA04" stroke="#080808" stroke-width="12"/>
<path d="M469 1121L425.667 1017H371L414.333 1121H469Z" fill="#080808" stroke="#080808" stroke-width="12"/>
<path d="M1168 1121L1124.67 1017H1070L1113.33 1121H1168Z" fill="#080808" stroke="#080808" stroke-width="12"/>
<path d="M330 1121L286.667 1017H232L275.333 1121H330Z" fill="#080808" stroke="#080808" stroke-width="12"/>
<path d="M1029 1121L985.667 1017H931L974.333 1121H1029Z" fill="#080808" stroke="#080808" stroke-width="12"/>
<path d="M191 1121L147.667 1017H93L136.333 1121H191Z" fill="#080808" stroke="#080808" stroke-width="12"/>
<path d="M889.97 1121L846.263 1017H791.03L834.737 1121H889.97Z" fill="#080808" stroke="#080808" stroke-width="12"/>
<path d="M51.9701 1121L8.26323 1017H-46.9701L-3.26323 1121H51.9701Z" fill="#080808" stroke="#080808" stroke-width="12"/>
<path d="M750 1121L706.667 1017H652L695.333 1121H750Z" fill="#080808" stroke="#080808" stroke-width="12"/>
<path d="M610 1121L566.667 1017H512L555.333 1121H610Z" fill="#080808" stroke="#080808" stroke-width="12"/>
</g>
</svg>
