<svg width="1065" height="1078" viewBox="0 0 1065 1078" fill="none" xmlns="http://www.w3.org/2000/svg">
<path d="M849.594 70.1748L849.451 68.8723V6H6V1072H1059V1011.78L849.594 70.1748Z" fill="#3B3B3B" stroke="#080808" stroke-width="12" stroke-linejoin="bevel"/>
<mask id="mask0_23_807" style="mask-type:alpha" maskUnits="userSpaceOnUse" x="0" y="0" width="1065" height="1078">
<path d="M855.451 0H0V1078H1065V1011.12L855.451 68.8723V0Z" fill="#D9D9D9"/>
</mask>
<g mask="url(#mask0_23_807)">
<path d="M16.8217 1034.24C-0.57048 1044.64 0.00218605 1051.96 0.00218605 1051.96C0.00218605 1051.96 10.7861 1053.17 28.1783 1042.76C45.5705 1032.36 44.9978 1025.04 44.9978 1025.04C44.9978 1025.04 34.2139 1023.83 16.8217 1034.24Z" fill="#ACACAC" fill-opacity="0.24"/>
<path d="M16.8217 520.237C-0.57048 530.64 0.00218605 537.957 0.00218605 537.957C0.00218605 537.957 10.7861 539.166 28.1783 528.763C45.5705 518.36 44.9978 511.043 44.9978 511.043C44.9978 511.043 34.2139 509.834 16.8217 520.237Z" fill="#ACACAC" fill-opacity="0.24"/>
<path d="M611.822 1034.24C594.43 1044.64 595.002 1051.96 595.002 1051.96C595.002 1051.96 605.786 1053.17 623.178 1042.76C640.57 1032.36 639.998 1025.04 639.998 1025.04C639.998 1025.04 629.214 1023.83 611.822 1034.24Z" fill="#ACACAC" fill-opacity="0.24"/>
<path d="M609.822 520.237C592.43 530.64 593.002 537.957 593.002 537.957C593.002 537.957 603.786 539.166 621.178 528.763C638.57 518.36 637.998 511.043 637.998 511.043C637.998 511.043 627.214 509.834 609.822 520.237Z" fill="#ACACAC" fill-opacity="0.24"/>
<path d="M16.8217 779.237C-0.57048 789.64 0.00218605 796.957 0.00218605 796.957C0.00218605 796.957 10.7861 798.166 28.1783 787.763C45.5705 777.36 44.9978 770.043 44.9978 770.043C44.9978 770.043 34.2139 768.834 16.8217 779.237Z" fill="#ACACAC" fill-opacity="0.24"/>
<path d="M16.8217 265.237C-0.57048 275.64 0.00218605 282.957 0.00218605 282.957C0.00218605 282.957 10.7861 284.166 28.1783 273.763C45.5705 263.36 44.9978 256.043 44.9978 256.043C44.9978 256.043 34.2139 254.834 16.8217 265.237Z" fill="#ACACAC" fill-opacity="0.24"/>
<path d="M611.822 779.237C594.43 789.64 595.002 796.957 595.002 796.957C595.002 796.957 605.786 798.166 623.178 787.763C640.57 777.36 639.998 770.043 639.998 770.043C639.998 770.043 629.214 768.834 611.822 779.237Z" fill="#ACACAC" fill-opacity="0.24"/>
<path d="M609.822 265.237C592.43 275.64 593.002 282.957 593.002 282.957C593.002 282.957 603.786 284.166 621.178 273.763C638.57 263.36 637.998 256.043 637.998 256.043C637.998 256.043 627.214 254.834 609.822 265.237Z" fill="#ACACAC" fill-opacity="0.24"/>
<path d="M316.822 1034.24C299.43 1044.64 300.002 1051.96 300.002 1051.96C300.002 1051.96 310.786 1053.17 328.178 1042.76C345.57 1032.36 344.998 1025.04 344.998 1025.04C344.998 1025.04 334.214 1023.83 316.822 1034.24Z" fill="#ACACAC" fill-opacity="0.24"/>
<path d="M316.822 520.237C299.43 530.64 300.002 537.957 300.002 537.957C300.002 537.957 310.786 539.166 328.178 528.763C345.57 518.36 344.998 511.043 344.998 511.043C344.998 511.043 334.214 509.834 316.822 520.237Z" fill="#ACACAC" fill-opacity="0.24"/>
<path d="M911.822 1034.24C894.43 1044.64 895.002 1051.96 895.002 1051.96C895.002 1051.96 905.786 1053.17 923.178 1042.76C940.57 1032.36 939.998 1025.04 939.998 1025.04C939.998 1025.04 929.214 1023.83 911.822 1034.24Z" fill="#ACACAC" fill-opacity="0.24"/>
<path d="M909.822 520.237C892.43 530.64 893.002 537.957 893.002 537.957C893.002 537.957 903.786 539.166 921.178 528.763C938.57 518.36 937.998 511.043 937.998 511.043C937.998 511.043 927.214 509.834 909.822 520.237Z" fill="#ACACAC" fill-opacity="0.24"/>
<path d="M316.822 779.237C299.43 789.64 300.002 796.957 300.002 796.957C300.002 796.957 310.786 798.166 328.178 787.763C345.57 777.36 344.998 770.043 344.998 770.043C344.998 770.043 334.214 768.834 316.822 779.237Z" fill="#ACACAC" fill-opacity="0.24"/>
<path d="M316.822 265.237C299.43 275.64 300.002 282.957 300.002 282.957C300.002 282.957 310.786 284.166 328.178 273.763C345.57 263.36 344.998 256.043 344.998 256.043C344.998 256.043 334.214 254.834 316.822 265.237Z" fill="#ACACAC" fill-opacity="0.24"/>
<path d="M911.822 779.237C894.43 789.64 895.002 796.957 895.002 796.957C895.002 796.957 905.786 798.166 923.178 787.763C940.57 777.36 939.998 770.043 939.998 770.043C939.998 770.043 929.214 768.834 911.822 779.237Z" fill="#ACACAC" fill-opacity="0.24"/>
<path d="M909.822 265.237C892.43 275.64 893.002 282.957 893.002 282.957C893.002 282.957 903.786 284.166 921.178 273.763C938.57 263.36 937.998 256.043 937.998 256.043C937.998 256.043 927.214 254.834 909.822 265.237Z" fill="#ACACAC" fill-opacity="0.24"/>
<path d="M16.8217 908.237C-0.57048 918.64 0.00218605 925.957 0.00218605 925.957C0.00218605 925.957 10.7861 927.166 28.1783 916.763C45.5705 906.36 44.9978 899.043 44.9978 899.043C44.9978 899.043 34.2139 897.834 16.8217 908.237Z" fill="#ACACAC" fill-opacity="0.24"/>
<path d="M16.8217 394.237C-0.57048 404.64 0.00218605 411.957 0.00218605 411.957C0.00218605 411.957 10.7861 413.166 28.1783 402.763C45.5705 392.36 44.9978 385.043 44.9978 385.043C44.9978 385.043 34.2139 383.834 16.8217 394.237Z" fill="#ACACAC" fill-opacity="0.24"/>
<path d="M611.822 908.237C594.43 918.64 595.002 925.957 595.002 925.957C595.002 925.957 605.786 927.166 623.178 916.763C640.57 906.36 639.998 899.043 639.998 899.043C639.998 899.043 629.214 897.834 611.822 908.237Z" fill="#ACACAC" fill-opacity="0.24"/>
<path d="M609.822 394.237C592.43 404.64 593.002 411.957 593.002 411.957C593.002 411.957 603.786 413.166 621.178 402.763C638.57 392.36 637.998 385.043 637.998 385.043C637.998 385.043 627.214 383.834 609.822 394.237Z" fill="#ACACAC" fill-opacity="0.24"/>
<path d="M16.8217 653.237C-0.57048 663.64 0.00218605 670.957 0.00218605 670.957C0.00218605 670.957 10.7861 672.166 28.1783 661.763C45.5705 651.36 44.9978 644.043 44.9978 644.043C44.9978 644.043 34.2139 642.834 16.8217 653.237Z" fill="#ACACAC" fill-opacity="0.24"/>
<path d="M16.8217 139.237C-0.57048 149.64 0.00218605 156.957 0.00218605 156.957C0.00218605 156.957 10.7861 158.166 28.1783 147.763C45.5705 137.36 44.9978 130.043 44.9978 130.043C44.9978 130.043 34.2139 128.834 16.8217 139.237Z" fill="#ACACAC" fill-opacity="0.24"/>
<path d="M611.822 653.237C594.43 663.64 595.002 670.957 595.002 670.957C595.002 670.957 605.786 672.166 623.178 661.763C640.57 651.36 639.998 644.043 639.998 644.043C639.998 644.043 629.214 642.834 611.822 653.237Z" fill="#ACACAC" fill-opacity="0.24"/>
<path d="M609.822 139.237C592.43 149.64 593.002 156.957 593.002 156.957C593.002 156.957 603.786 158.166 621.178 147.763C638.57 137.36 637.998 130.043 637.998 130.043C637.998 130.043 627.214 128.834 609.822 139.237Z" fill="#ACACAC" fill-opacity="0.24"/>
<path d="M316.822 908.237C299.43 918.64 300.002 925.957 300.002 925.957C300.002 925.957 310.786 927.166 328.178 916.763C345.57 906.36 344.998 899.043 344.998 899.043C344.998 899.043 334.214 897.834 316.822 908.237Z" fill="#ACACAC" fill-opacity="0.24"/>
<path d="M316.822 394.237C299.43 404.64 300.002 411.957 300.002 411.957C300.002 411.957 310.786 413.166 328.178 402.763C345.57 392.36 344.998 385.043 344.998 385.043C344.998 385.043 334.214 383.834 316.822 394.237Z" fill="#ACACAC" fill-opacity="0.24"/>
<path d="M911.822 908.237C894.43 918.64 895.002 925.957 895.002 925.957C895.002 925.957 905.786 927.166 923.178 916.763C940.57 906.36 939.998 899.043 939.998 899.043C939.998 899.043 929.214 897.834 911.822 908.237Z" fill="#ACACAC" fill-opacity="0.24"/>
<path d="M909.822 394.237C892.43 404.64 893.002 411.957 893.002 411.957C893.002 411.957 903.786 413.166 921.178 402.763C938.57 392.36 937.998 385.043 937.998 385.043C937.998 385.043 927.214 383.834 909.822 394.237Z" fill="#ACACAC" fill-opacity="0.24"/>
<path d="M316.822 653.237C299.43 663.64 300.002 670.957 300.002 670.957C300.002 670.957 310.786 672.166 328.178 661.763C345.57 651.36 344.998 644.043 344.998 644.043C344.998 644.043 334.214 642.834 316.822 653.237Z" fill="#ACACAC" fill-opacity="0.24"/>
<path d="M316.822 139.237C299.43 149.64 300.002 156.957 300.002 156.957C300.002 156.957 310.786 158.166 328.178 147.763C345.57 137.36 344.998 130.043 344.998 130.043C344.998 130.043 334.214 128.834 316.822 139.237Z" fill="#ACACAC" fill-opacity="0.24"/>
<path d="M911.822 653.237C894.43 663.64 895.002 670.957 895.002 670.957C895.002 670.957 905.786 672.166 923.178 661.763C940.57 651.36 939.998 644.043 939.998 644.043C939.998 644.043 929.214 642.834 911.822 653.237Z" fill="#ACACAC" fill-opacity="0.24"/>
<path d="M976.822 653.237C959.43 663.64 960.002 670.957 960.002 670.957C960.002 670.957 970.786 672.166 988.178 661.763C1005.57 651.36 1005 644.043 1005 644.043C1005 644.043 994.214 642.834 976.822 653.237Z" fill="#ACACAC" fill-opacity="0.24"/>
<path d="M62.1783 971.237C79.5705 981.64 78.9978 988.957 78.9978 988.957C78.9978 988.957 68.2139 990.166 50.8217 979.763C33.4295 969.36 34.0022 962.043 34.0022 962.043C34.0022 962.043 44.7861 960.834 62.1783 971.237Z" fill="#ACACAC" fill-opacity="0.24"/>
<path d="M62.1783 457.237C79.5705 467.64 78.9978 474.957 78.9978 474.957C78.9978 474.957 68.2139 476.166 50.8217 465.763C33.4295 455.36 34.0022 448.043 34.0022 448.043C34.0022 448.043 44.7861 446.834 62.1783 457.237Z" fill="#ACACAC" fill-opacity="0.24"/>
<path d="M657.178 971.237C674.57 981.64 673.998 988.957 673.998 988.957C673.998 988.957 663.214 990.166 645.822 979.763C628.43 969.36 629.002 962.043 629.002 962.043C629.002 962.043 639.786 960.834 657.178 971.237Z" fill="#ACACAC" fill-opacity="0.24"/>
<path d="M655.178 457.237C672.57 467.64 671.998 474.957 671.998 474.957C671.998 474.957 661.214 476.166 643.822 465.763C626.43 455.36 627.002 448.043 627.002 448.043C627.002 448.043 637.786 446.834 655.178 457.237Z" fill="#ACACAC" fill-opacity="0.24"/>
<path d="M62.1783 716.237C79.5705 726.64 78.9978 733.957 78.9978 733.957C78.9978 733.957 68.2139 735.166 50.8217 724.763C33.4295 714.36 34.0022 707.043 34.0022 707.043C34.0022 707.043 44.7861 705.834 62.1783 716.237Z" fill="#ACACAC" fill-opacity="0.24"/>
<path d="M62.1783 202.237C79.5705 212.64 78.9978 219.957 78.9978 219.957C78.9978 219.957 68.2139 221.166 50.8217 210.763C33.4295 200.36 34.0022 193.043 34.0022 193.043C34.0022 193.043 44.7861 191.834 62.1783 202.237Z" fill="#ACACAC" fill-opacity="0.24"/>
<path d="M657.178 716.237C674.57 726.64 673.998 733.957 673.998 733.957C673.998 733.957 663.214 735.166 645.822 724.763C628.43 714.36 629.002 707.043 629.002 707.043C629.002 707.043 639.786 705.834 657.178 716.237Z" fill="#ACACAC" fill-opacity="0.24"/>
<path d="M655.178 202.237C672.57 212.64 671.998 219.957 671.998 219.957C671.998 219.957 661.214 221.166 643.822 210.763C626.43 200.36 627.002 193.043 627.002 193.043C627.002 193.043 637.786 191.834 655.178 202.237Z" fill="#ACACAC" fill-opacity="0.24"/>
<path d="M362.178 971.237C379.57 981.64 378.998 988.957 378.998 988.957C378.998 988.957 368.214 990.166 350.822 979.763C333.43 969.36 334.002 962.043 334.002 962.043C334.002 962.043 344.786 960.834 362.178 971.237Z" fill="#ACACAC" fill-opacity="0.24"/>
<path d="M362.178 457.237C379.57 467.64 378.998 474.957 378.998 474.957C378.998 474.957 368.214 476.166 350.822 465.763C333.43 455.36 334.002 448.043 334.002 448.043C334.002 448.043 344.786 446.834 362.178 457.237Z" fill="#ACACAC" fill-opacity="0.24"/>
<path d="M957.178 971.237C974.57 981.64 973.998 988.957 973.998 988.957C973.998 988.957 963.214 990.166 945.822 979.763C928.43 969.36 929.002 962.043 929.002 962.043C929.002 962.043 939.786 960.834 957.178 971.237Z" fill="#ACACAC" fill-opacity="0.24"/>
<path d="M955.178 457.237C972.57 467.64 971.998 474.957 971.998 474.957C971.998 474.957 961.214 476.166 943.822 465.763C926.43 455.36 927.002 448.043 927.002 448.043C927.002 448.043 937.786 446.834 955.178 457.237Z" fill="#ACACAC" fill-opacity="0.24"/>
<path d="M362.178 716.237C379.57 726.64 378.998 733.957 378.998 733.957C378.998 733.957 368.214 735.166 350.822 724.763C333.43 714.36 334.002 707.043 334.002 707.043C334.002 707.043 344.786 705.834 362.178 716.237Z" fill="#ACACAC" fill-opacity="0.24"/>
<path d="M362.178 202.237C379.57 212.64 378.998 219.957 378.998 219.957C378.998 219.957 368.214 221.166 350.822 210.763C333.43 200.36 334.002 193.043 334.002 193.043C334.002 193.043 344.786 191.834 362.178 202.237Z" fill="#ACACAC" fill-opacity="0.24"/>
<path d="M957.178 716.237C974.57 726.64 973.998 733.957 973.998 733.957C973.998 733.957 963.214 735.166 945.822 724.763C928.43 714.36 929.002 707.043 929.002 707.043C929.002 707.043 939.786 705.834 957.178 716.237Z" fill="#ACACAC" fill-opacity="0.24"/>
<path d="M62.1783 845.237C79.5705 855.64 78.9978 862.957 78.9978 862.957C78.9978 862.957 68.2139 864.166 50.8217 853.763C33.4295 843.36 34.0022 836.043 34.0022 836.043C34.0022 836.043 44.7861 834.834 62.1783 845.237Z" fill="#ACACAC" fill-opacity="0.24"/>
<path d="M62.1783 331.237C79.5705 341.64 78.9978 348.957 78.9978 348.957C78.9978 348.957 68.2139 350.166 50.8217 339.763C33.4295 329.36 34.0022 322.043 34.0022 322.043C34.0022 322.043 44.7861 320.834 62.1783 331.237Z" fill="#ACACAC" fill-opacity="0.24"/>
<path d="M657.178 845.237C674.57 855.64 673.998 862.957 673.998 862.957C673.998 862.957 663.214 864.166 645.822 853.763C628.43 843.36 629.002 836.043 629.002 836.043C629.002 836.043 639.786 834.834 657.178 845.237Z" fill="#ACACAC" fill-opacity="0.24"/>
<path d="M655.178 331.237C672.57 341.64 671.998 348.957 671.998 348.957C671.998 348.957 661.214 350.166 643.822 339.763C626.43 329.36 627.002 322.043 627.002 322.043C627.002 322.043 637.786 320.834 655.178 331.237Z" fill="#ACACAC" fill-opacity="0.24"/>
<path d="M62.1783 590.237C79.5705 600.64 78.9978 607.957 78.9978 607.957C78.9978 607.957 68.2139 609.166 50.8217 598.763C33.4295 588.36 34.0022 581.043 34.0022 581.043C34.0022 581.043 44.7861 579.834 62.1783 590.237Z" fill="#ACACAC" fill-opacity="0.24"/>
<path d="M62.1783 76.2373C79.5705 86.6404 78.9978 93.957 78.9978 93.957C78.9978 93.957 68.2139 95.1658 50.8217 84.7627C33.4295 74.3596 34.0022 67.043 34.0022 67.043C34.0022 67.043 44.7861 65.8342 62.1783 76.2373Z" fill="#ACACAC" fill-opacity="0.24"/>
<path d="M657.178 590.237C674.57 600.64 673.998 607.957 673.998 607.957C673.998 607.957 663.214 609.166 645.822 598.763C628.43 588.36 629.002 581.043 629.002 581.043C629.002 581.043 639.786 579.834 657.178 590.237Z" fill="#ACACAC" fill-opacity="0.24"/>
<path d="M655.178 76.2373C672.57 86.6404 671.998 93.957 671.998 93.957C671.998 93.957 661.214 95.1658 643.822 84.7627C626.43 74.3596 627.002 67.043 627.002 67.043C627.002 67.043 637.786 65.8342 655.178 76.2373Z" fill="#ACACAC" fill-opacity="0.24"/>
<path d="M541.822 16.2373C524.43 26.6404 525.002 33.957 525.002 33.957C525.002 33.957 535.786 35.1658 553.178 24.7627C570.57 14.3596 569.998 7.04298 569.998 7.04298C569.998 7.04298 559.214 5.83418 541.822 16.2373Z" fill="#ACACAC" fill-opacity="0.24"/>
<path d="M362.178 845.237C379.57 855.64 378.998 862.957 378.998 862.957C378.998 862.957 368.214 864.166 350.822 853.763C333.43 843.36 334.002 836.043 334.002 836.043C334.002 836.043 344.786 834.834 362.178 845.237Z" fill="#ACACAC" fill-opacity="0.24"/>
<path d="M362.178 331.237C379.57 341.64 378.998 348.957 378.998 348.957C378.998 348.957 368.214 350.166 350.822 339.763C333.43 329.36 334.002 322.043 334.002 322.043C334.002 322.043 344.786 320.834 362.178 331.237Z" fill="#ACACAC" fill-opacity="0.24"/>
<path d="M957.178 845.237C974.57 855.64 973.998 862.957 973.998 862.957C973.998 862.957 963.214 864.166 945.822 853.763C928.43 843.36 929.002 836.043 929.002 836.043C929.002 836.043 939.786 834.834 957.178 845.237Z" fill="#ACACAC" fill-opacity="0.24"/>
<path d="M362.178 590.237C379.57 600.64 378.998 607.957 378.998 607.957C378.998 607.957 368.214 609.166 350.822 598.763C333.43 588.36 334.002 581.043 334.002 581.043C334.002 581.043 344.786 579.834 362.178 590.237Z" fill="#ACACAC" fill-opacity="0.24"/>
<path d="M362.178 76.2373C379.57 86.6404 378.998 93.957 378.998 93.957C378.998 93.957 368.214 95.1658 350.822 84.7627C333.43 74.3596 334.002 67.043 334.002 67.043C334.002 67.043 344.786 65.8342 362.178 76.2373Z" fill="#ACACAC" fill-opacity="0.24"/>
<path d="M834.822 16.2373C817.43 26.6404 818.002 33.957 818.002 33.957C818.002 33.957 828.786 35.1658 846.178 24.7627C863.57 14.3596 862.998 7.04298 862.998 7.04298C862.998 7.04298 852.214 5.83418 834.822 16.2373Z" fill="#ACACAC" fill-opacity="0.24"/>
<path d="M957.178 590.237C974.57 600.64 973.998 607.957 973.998 607.957C973.998 607.957 963.214 609.166 945.822 598.763C928.43 588.36 929.002 581.043 929.002 581.043C929.002 581.043 939.786 579.834 957.178 590.237Z" fill="#ACACAC" fill-opacity="0.24"/>
<path d="M241.822 16.2373C224.43 26.6404 225.002 33.957 225.002 33.957C225.002 33.957 235.786 35.1658 253.178 24.7627C270.57 14.3596 269.998 7.04298 269.998 7.04298C269.998 7.04298 259.214 5.83418 241.822 16.2373Z" fill="#ACACAC" fill-opacity="0.24"/>
<path d="M91.8217 1034.24C74.4295 1044.64 75.0022 1051.96 75.0022 1051.96C75.0022 1051.96 85.7861 1053.17 103.178 1042.76C120.57 1032.36 119.998 1025.04 119.998 1025.04C119.998 1025.04 109.214 1023.83 91.8217 1034.24Z" fill="#ACACAC" fill-opacity="0.24"/>
<path d="M91.8217 520.237C74.4295 530.64 75.0022 537.957 75.0022 537.957C75.0022 537.957 85.7861 539.166 103.178 528.763C120.57 518.36 119.998 511.043 119.998 511.043C119.998 511.043 109.214 509.834 91.8217 520.237Z" fill="#ACACAC" fill-opacity="0.24"/>
<path d="M686.822 1034.24C669.43 1044.64 670.002 1051.96 670.002 1051.96C670.002 1051.96 680.786 1053.17 698.178 1042.76C715.57 1032.36 714.998 1025.04 714.998 1025.04C714.998 1025.04 704.214 1023.83 686.822 1034.24Z" fill="#ACACAC" fill-opacity="0.24"/>
<path d="M684.822 520.237C667.43 530.64 668.002 537.957 668.002 537.957C668.002 537.957 678.786 539.166 696.178 528.763C713.57 518.36 712.998 511.043 712.998 511.043C712.998 511.043 702.214 509.834 684.822 520.237Z" fill="#ACACAC" fill-opacity="0.24"/>
<path d="M91.8217 779.237C74.4295 789.64 75.0022 796.957 75.0022 796.957C75.0022 796.957 85.7861 798.166 103.178 787.763C120.57 777.36 119.998 770.043 119.998 770.043C119.998 770.043 109.214 768.834 91.8217 779.237Z" fill="#ACACAC" fill-opacity="0.24"/>
<path d="M91.8217 265.237C74.4295 275.64 75.0022 282.957 75.0022 282.957C75.0022 282.957 85.7861 284.166 103.178 273.763C120.57 263.36 119.998 256.043 119.998 256.043C119.998 256.043 109.214 254.834 91.8217 265.237Z" fill="#ACACAC" fill-opacity="0.24"/>
<path d="M686.822 779.237C669.43 789.64 670.002 796.957 670.002 796.957C670.002 796.957 680.786 798.166 698.178 787.763C715.57 777.36 714.998 770.043 714.998 770.043C714.998 770.043 704.214 768.834 686.822 779.237Z" fill="#ACACAC" fill-opacity="0.24"/>
<path d="M684.822 265.237C667.43 275.64 668.002 282.957 668.002 282.957C668.002 282.957 678.786 284.166 696.178 273.763C713.57 263.36 712.998 256.043 712.998 256.043C712.998 256.043 702.214 254.834 684.822 265.237Z" fill="#ACACAC" fill-opacity="0.24"/>
<path d="M391.822 1034.24C374.43 1044.64 375.002 1051.96 375.002 1051.96C375.002 1051.96 385.786 1053.17 403.178 1042.76C420.57 1032.36 419.998 1025.04 419.998 1025.04C419.998 1025.04 409.214 1023.83 391.822 1034.24Z" fill="#ACACAC" fill-opacity="0.24"/>
<path d="M391.822 520.237C374.43 530.64 375.002 537.957 375.002 537.957C375.002 537.957 385.786 539.166 403.178 528.763C420.57 518.36 419.998 511.043 419.998 511.043C419.998 511.043 409.214 509.834 391.822 520.237Z" fill="#ACACAC" fill-opacity="0.24"/>
<path d="M986.822 1034.24C969.43 1044.64 970.002 1051.96 970.002 1051.96C970.002 1051.96 980.786 1053.17 998.178 1042.76C1015.57 1032.36 1015 1025.04 1015 1025.04C1015 1025.04 1004.21 1023.83 986.822 1034.24Z" fill="#ACACAC" fill-opacity="0.24"/>
<path d="M391.822 779.237C374.43 789.64 375.002 796.957 375.002 796.957C375.002 796.957 385.786 798.166 403.178 787.763C420.57 777.36 419.998 770.043 419.998 770.043C419.998 770.043 409.214 768.834 391.822 779.237Z" fill="#ACACAC" fill-opacity="0.24"/>
<path d="M391.822 265.237C374.43 275.64 375.002 282.957 375.002 282.957C375.002 282.957 385.786 284.166 403.178 273.763C420.57 263.36 419.998 256.043 419.998 256.043C419.998 256.043 409.214 254.834 391.822 265.237Z" fill="#ACACAC" fill-opacity="0.24"/>
<path d="M986.822 779.237C969.43 789.64 970.002 796.957 970.002 796.957C970.002 796.957 980.786 798.166 998.178 787.763C1015.57 777.36 1015 770.043 1015 770.043C1015 770.043 1004.21 768.834 986.822 779.237Z" fill="#ACACAC" fill-opacity="0.24"/>
<path d="M91.8217 908.237C74.4295 918.64 75.0022 925.957 75.0022 925.957C75.0022 925.957 85.7861 927.166 103.178 916.763C120.57 906.36 119.998 899.043 119.998 899.043C119.998 899.043 109.214 897.834 91.8217 908.237Z" fill="#ACACAC" fill-opacity="0.24"/>
<path d="M91.8217 394.237C74.4295 404.64 75.0022 411.957 75.0022 411.957C75.0022 411.957 85.7861 413.166 103.178 402.763C120.57 392.36 119.998 385.043 119.998 385.043C119.998 385.043 109.214 383.834 91.8217 394.237Z" fill="#ACACAC" fill-opacity="0.24"/>
<path d="M686.822 908.237C669.43 918.64 670.002 925.957 670.002 925.957C670.002 925.957 680.786 927.166 698.178 916.763C715.57 906.36 714.998 899.043 714.998 899.043C714.998 899.043 704.214 897.834 686.822 908.237Z" fill="#ACACAC" fill-opacity="0.24"/>
<path d="M684.822 394.237C667.43 404.64 668.002 411.957 668.002 411.957C668.002 411.957 678.786 413.166 696.178 402.763C713.57 392.36 712.998 385.043 712.998 385.043C712.998 385.043 702.214 383.834 684.822 394.237Z" fill="#ACACAC" fill-opacity="0.24"/>
<path d="M91.8217 653.237C74.4295 663.64 75.0022 670.957 75.0022 670.957C75.0022 670.957 85.7861 672.166 103.178 661.763C120.57 651.36 119.998 644.043 119.998 644.043C119.998 644.043 109.214 642.834 91.8217 653.237Z" fill="#ACACAC" fill-opacity="0.24"/>
<path d="M91.8217 139.237C74.4295 149.64 75.0022 156.957 75.0022 156.957C75.0022 156.957 85.7861 158.166 103.178 147.763C120.57 137.36 119.998 130.043 119.998 130.043C119.998 130.043 109.214 128.834 91.8217 139.237Z" fill="#ACACAC" fill-opacity="0.24"/>
<path d="M686.822 653.237C669.43 663.64 670.002 670.957 670.002 670.957C670.002 670.957 680.786 672.166 698.178 661.763C715.57 651.36 714.998 644.043 714.998 644.043C714.998 644.043 704.214 642.834 686.822 653.237Z" fill="#ACACAC" fill-opacity="0.24"/>
<path d="M684.822 139.237C667.43 149.64 668.002 156.957 668.002 156.957C668.002 156.957 678.786 158.166 696.178 147.763C713.57 137.36 712.998 130.043 712.998 130.043C712.998 130.043 702.214 128.834 684.822 139.237Z" fill="#ACACAC" fill-opacity="0.24"/>
<path d="M391.822 908.237C374.43 918.64 375.002 925.957 375.002 925.957C375.002 925.957 385.786 927.166 403.178 916.763C420.57 906.36 419.998 899.043 419.998 899.043C419.998 899.043 409.214 897.834 391.822 908.237Z" fill="#ACACAC" fill-opacity="0.24"/>
<path d="M391.822 394.237C374.43 404.64 375.002 411.957 375.002 411.957C375.002 411.957 385.786 413.166 403.178 402.763C420.57 392.36 419.998 385.043 419.998 385.043C419.998 385.043 409.214 383.834 391.822 394.237Z" fill="#ACACAC" fill-opacity="0.24"/>
<path d="M986.822 908.237C969.43 918.64 970.002 925.957 970.002 925.957C970.002 925.957 980.786 927.166 998.178 916.763C1015.57 906.36 1015 899.043 1015 899.043C1015 899.043 1004.21 897.834 986.822 908.237Z" fill="#ACACAC" fill-opacity="0.24"/>
<path d="M391.822 653.237C374.43 663.64 375.002 670.957 375.002 670.957C375.002 670.957 385.786 672.166 403.178 661.763C420.57 651.36 419.998 644.043 419.998 644.043C419.998 644.043 409.214 642.834 391.822 653.237Z" fill="#ACACAC" fill-opacity="0.24"/>
<path d="M391.822 139.237C374.43 149.64 375.002 156.957 375.002 156.957C375.002 156.957 385.786 158.166 403.178 147.763C420.57 137.36 419.998 130.043 419.998 130.043C419.998 130.043 409.214 128.834 391.822 139.237Z" fill="#ACACAC" fill-opacity="0.24"/>
<path d="M287.178 971.237C304.57 981.64 303.998 988.957 303.998 988.957C303.998 988.957 293.214 990.166 275.822 979.763C258.43 969.36 259.002 962.043 259.002 962.043C259.002 962.043 269.786 960.834 287.178 971.237Z" fill="#ACACAC" fill-opacity="0.24"/>
<path d="M287.178 457.237C304.57 467.64 303.998 474.957 303.998 474.957C303.998 474.957 293.214 476.166 275.822 465.763C258.43 455.36 259.002 448.043 259.002 448.043C259.002 448.043 269.786 446.834 287.178 457.237Z" fill="#ACACAC" fill-opacity="0.24"/>
<path d="M882.178 971.237C899.57 981.64 898.998 988.957 898.998 988.957C898.998 988.957 888.214 990.166 870.822 979.763C853.43 969.36 854.002 962.043 854.002 962.043C854.002 962.043 864.786 960.834 882.178 971.237Z" fill="#ACACAC" fill-opacity="0.24"/>
<path d="M880.178 457.237C897.57 467.64 896.998 474.957 896.998 474.957C896.998 474.957 886.214 476.166 868.822 465.763C851.43 455.36 852.002 448.043 852.002 448.043C852.002 448.043 862.786 446.834 880.178 457.237Z" fill="#ACACAC" fill-opacity="0.24"/>
<path d="M287.178 716.237C304.57 726.64 303.998 733.957 303.998 733.957C303.998 733.957 293.214 735.166 275.822 724.763C258.43 714.36 259.002 707.043 259.002 707.043C259.002 707.043 269.786 705.834 287.178 716.237Z" fill="#ACACAC" fill-opacity="0.24"/>
<path d="M287.178 202.237C304.57 212.64 303.998 219.957 303.998 219.957C303.998 219.957 293.214 221.166 275.822 210.763C258.43 200.36 259.002 193.043 259.002 193.043C259.002 193.043 269.786 191.834 287.178 202.237Z" fill="#ACACAC" fill-opacity="0.24"/>
<path d="M882.178 716.237C899.57 726.64 898.998 733.957 898.998 733.957C898.998 733.957 888.214 735.166 870.822 724.763C853.43 714.36 854.002 707.043 854.002 707.043C854.002 707.043 864.786 705.834 882.178 716.237Z" fill="#ACACAC" fill-opacity="0.24"/>
<path d="M880.178 202.237C897.57 212.64 896.998 219.957 896.998 219.957C896.998 219.957 886.214 221.166 868.822 210.763C851.43 200.36 852.002 193.043 852.002 193.043C852.002 193.043 862.786 191.834 880.178 202.237Z" fill="#ACACAC" fill-opacity="0.24"/>
<path d="M587.178 971.237C604.57 981.64 603.998 988.957 603.998 988.957C603.998 988.957 593.214 990.166 575.822 979.763C558.43 969.36 559.002 962.043 559.002 962.043C559.002 962.043 569.786 960.834 587.178 971.237Z" fill="#ACACAC" fill-opacity="0.24"/>
<path d="M587.178 457.237C604.57 467.64 603.998 474.957 603.998 474.957C603.998 474.957 593.214 476.166 575.822 465.763C558.43 455.36 559.002 448.043 559.002 448.043C559.002 448.043 569.786 446.834 587.178 457.237Z" fill="#ACACAC" fill-opacity="0.24"/>
<path d="M587.178 716.237C604.57 726.64 603.998 733.957 603.998 733.957C603.998 733.957 593.214 735.166 575.822 724.763C558.43 714.36 559.002 707.043 559.002 707.043C559.002 707.043 569.786 705.834 587.178 716.237Z" fill="#ACACAC" fill-opacity="0.24"/>
<path d="M587.178 202.237C604.57 212.64 603.998 219.957 603.998 219.957C603.998 219.957 593.214 221.166 575.822 210.763C558.43 200.36 559.002 193.043 559.002 193.043C559.002 193.043 569.786 191.834 587.178 202.237Z" fill="#ACACAC" fill-opacity="0.24"/>
<path d="M287.178 845.237C304.57 855.64 303.998 862.957 303.998 862.957C303.998 862.957 293.214 864.166 275.822 853.763C258.43 843.36 259.002 836.043 259.002 836.043C259.002 836.043 269.786 834.834 287.178 845.237Z" fill="#ACACAC" fill-opacity="0.24"/>
<path d="M287.178 331.237C304.57 341.64 303.998 348.957 303.998 348.957C303.998 348.957 293.214 350.166 275.822 339.763C258.43 329.36 259.002 322.043 259.002 322.043C259.002 322.043 269.786 320.834 287.178 331.237Z" fill="#ACACAC" fill-opacity="0.24"/>
<path d="M882.178 845.237C899.57 855.64 898.998 862.957 898.998 862.957C898.998 862.957 888.214 864.166 870.822 853.763C853.43 843.36 854.002 836.043 854.002 836.043C854.002 836.043 864.786 834.834 882.178 845.237Z" fill="#ACACAC" fill-opacity="0.24"/>
<path d="M880.178 331.237C897.57 341.64 896.998 348.957 896.998 348.957C896.998 348.957 886.214 350.166 868.822 339.763C851.43 329.36 852.002 322.043 852.002 322.043C852.002 322.043 862.786 320.834 880.178 331.237Z" fill="#ACACAC" fill-opacity="0.24"/>
<path d="M287.178 590.237C304.57 600.64 303.998 607.957 303.998 607.957C303.998 607.957 293.214 609.166 275.822 598.763C258.43 588.36 259.002 581.043 259.002 581.043C259.002 581.043 269.786 579.834 287.178 590.237Z" fill="#ACACAC" fill-opacity="0.24"/>
<path d="M287.178 76.2373C304.57 86.6404 303.998 93.957 303.998 93.957C303.998 93.957 293.214 95.1658 275.822 84.7627C258.43 74.3596 259.002 67.043 259.002 67.043C259.002 67.043 269.786 65.8342 287.178 76.2373Z" fill="#ACACAC" fill-opacity="0.24"/>
<path d="M882.178 590.237C899.57 600.64 898.998 607.957 898.998 607.957C898.998 607.957 888.214 609.166 870.822 598.763C853.43 588.36 854.002 581.043 854.002 581.043C854.002 581.043 864.786 579.834 882.178 590.237Z" fill="#ACACAC" fill-opacity="0.24"/>
<path d="M880.178 76.2373C897.57 86.6404 896.998 93.957 896.998 93.957C896.998 93.957 886.214 95.1658 868.822 84.7627C851.43 74.3596 852.002 67.043 852.002 67.043C852.002 67.043 862.786 65.8342 880.178 76.2373Z" fill="#ACACAC" fill-opacity="0.24"/>
<path d="M316.822 16.2373C299.43 26.6404 300.002 33.957 300.002 33.957C300.002 33.957 310.786 35.1658 328.178 24.7627C345.57 14.3596 344.998 7.04298 344.998 7.04298C344.998 7.04298 334.214 5.83418 316.822 16.2373Z" fill="#ACACAC" fill-opacity="0.24"/>
<path d="M587.178 845.237C604.57 855.64 603.998 862.957 603.998 862.957C603.998 862.957 593.214 864.166 575.822 853.763C558.43 843.36 559.002 836.043 559.002 836.043C559.002 836.043 569.786 834.834 587.178 845.237Z" fill="#ACACAC" fill-opacity="0.24"/>
<path d="M587.178 331.237C604.57 341.64 603.998 348.957 603.998 348.957C603.998 348.957 593.214 350.166 575.822 339.763C558.43 329.36 559.002 322.043 559.002 322.043C559.002 322.043 569.786 320.834 587.178 331.237Z" fill="#ACACAC" fill-opacity="0.24"/>
<path d="M587.178 590.237C604.57 600.64 603.998 607.957 603.998 607.957C603.998 607.957 593.214 609.166 575.822 598.763C558.43 588.36 559.002 581.043 559.002 581.043C559.002 581.043 569.786 579.834 587.178 590.237Z" fill="#ACACAC" fill-opacity="0.24"/>
<path d="M587.178 76.2373C604.57 86.6404 603.998 93.957 603.998 93.957C603.998 93.957 593.214 95.1658 575.822 84.7627C558.43 74.3596 559.002 67.043 559.002 67.043C559.002 67.043 569.786 65.8342 587.178 76.2373Z" fill="#ACACAC" fill-opacity="0.24"/>
<path d="M609.822 16.2373C592.43 26.6404 593.002 33.957 593.002 33.957C593.002 33.957 603.786 35.1658 621.178 24.7627C638.57 14.3596 637.998 7.04298 637.998 7.04298C637.998 7.04298 627.214 5.83418 609.822 16.2373Z" fill="#ACACAC" fill-opacity="0.24"/>
<path d="M16.8217 16.2373C-0.57048 26.6404 0.00218605 33.957 0.00218605 33.957C0.00218605 33.957 10.7861 35.1658 28.1783 24.7627C45.5705 14.3596 44.9978 7.04298 44.9978 7.04298C44.9978 7.04298 34.2139 5.83418 16.8217 16.2373Z" fill="#ACACAC" fill-opacity="0.24"/>
<path d="M166.822 1034.24C149.43 1044.64 150.002 1051.96 150.002 1051.96C150.002 1051.96 160.786 1053.17 178.178 1042.76C195.57 1032.36 194.998 1025.04 194.998 1025.04C194.998 1025.04 184.214 1023.83 166.822 1034.24Z" fill="#ACACAC" fill-opacity="0.24"/>
<path d="M166.822 520.237C149.43 530.64 150.002 537.957 150.002 537.957C150.002 537.957 160.786 539.166 178.178 528.763C195.57 518.36 194.998 511.043 194.998 511.043C194.998 511.043 184.214 509.834 166.822 520.237Z" fill="#ACACAC" fill-opacity="0.24"/>
<path d="M761.822 1034.24C744.43 1044.64 745.002 1051.96 745.002 1051.96C745.002 1051.96 755.786 1053.17 773.178 1042.76C790.57 1032.36 789.998 1025.04 789.998 1025.04C789.998 1025.04 779.214 1023.83 761.822 1034.24Z" fill="#ACACAC" fill-opacity="0.24"/>
<path d="M759.822 520.237C742.43 530.64 743.002 537.957 743.002 537.957C743.002 537.957 753.786 539.166 771.178 528.763C788.57 518.36 787.998 511.043 787.998 511.043C787.998 511.043 777.214 509.834 759.822 520.237Z" fill="#ACACAC" fill-opacity="0.24"/>
<path d="M166.822 779.237C149.43 789.64 150.002 796.957 150.002 796.957C150.002 796.957 160.786 798.166 178.178 787.763C195.57 777.36 194.998 770.043 194.998 770.043C194.998 770.043 184.214 768.834 166.822 779.237Z" fill="#ACACAC" fill-opacity="0.24"/>
<path d="M166.822 265.237C149.43 275.64 150.002 282.957 150.002 282.957C150.002 282.957 160.786 284.166 178.178 273.763C195.57 263.36 194.998 256.043 194.998 256.043C194.998 256.043 184.214 254.834 166.822 265.237Z" fill="#ACACAC" fill-opacity="0.24"/>
<path d="M761.822 779.237C744.43 789.64 745.002 796.957 745.002 796.957C745.002 796.957 755.786 798.166 773.178 787.763C790.57 777.36 789.998 770.043 789.998 770.043C789.998 770.043 779.214 768.834 761.822 779.237Z" fill="#ACACAC" fill-opacity="0.24"/>
<path d="M759.822 265.237C742.43 275.64 743.002 282.957 743.002 282.957C743.002 282.957 753.786 284.166 771.178 273.763C788.57 263.36 787.998 256.043 787.998 256.043C787.998 256.043 777.214 254.834 759.822 265.237Z" fill="#ACACAC" fill-opacity="0.24"/>
<path d="M466.822 1034.24C449.43 1044.64 450.002 1051.96 450.002 1051.96C450.002 1051.96 460.786 1053.17 478.178 1042.76C495.57 1032.36 494.998 1025.04 494.998 1025.04C494.998 1025.04 484.214 1023.83 466.822 1034.24Z" fill="#ACACAC" fill-opacity="0.24"/>
<path d="M466.822 520.237C449.43 530.64 450.002 537.957 450.002 537.957C450.002 537.957 460.786 539.166 478.178 528.763C495.57 518.36 494.998 511.043 494.998 511.043C494.998 511.043 484.214 509.834 466.822 520.237Z" fill="#ACACAC" fill-opacity="0.24"/>
<path d="M466.822 779.237C449.43 789.64 450.002 796.957 450.002 796.957C450.002 796.957 460.786 798.166 478.178 787.763C495.57 777.36 494.998 770.043 494.998 770.043C494.998 770.043 484.214 768.834 466.822 779.237Z" fill="#ACACAC" fill-opacity="0.24"/>
<path d="M466.822 265.237C449.43 275.64 450.002 282.957 450.002 282.957C450.002 282.957 460.786 284.166 478.178 273.763C495.57 263.36 494.998 256.043 494.998 256.043C494.998 256.043 484.214 254.834 466.822 265.237Z" fill="#ACACAC" fill-opacity="0.24"/>
<path d="M166.822 908.237C149.43 918.64 150.002 925.957 150.002 925.957C150.002 925.957 160.786 927.166 178.178 916.763C195.57 906.36 194.998 899.043 194.998 899.043C194.998 899.043 184.214 897.834 166.822 908.237Z" fill="#ACACAC" fill-opacity="0.24"/>
<path d="M166.822 394.237C149.43 404.64 150.002 411.957 150.002 411.957C150.002 411.957 160.786 413.166 178.178 402.763C195.57 392.36 194.998 385.043 194.998 385.043C194.998 385.043 184.214 383.834 166.822 394.237Z" fill="#ACACAC" fill-opacity="0.24"/>
<path d="M761.822 908.237C744.43 918.64 745.002 925.957 745.002 925.957C745.002 925.957 755.786 927.166 773.178 916.763C790.57 906.36 789.998 899.043 789.998 899.043C789.998 899.043 779.214 897.834 761.822 908.237Z" fill="#ACACAC" fill-opacity="0.24"/>
<path d="M759.822 394.237C742.43 404.64 743.002 411.957 743.002 411.957C743.002 411.957 753.786 413.166 771.178 402.763C788.57 392.36 787.998 385.043 787.998 385.043C787.998 385.043 777.214 383.834 759.822 394.237Z" fill="#ACACAC" fill-opacity="0.24"/>
<path d="M166.822 653.237C149.43 663.64 150.002 670.957 150.002 670.957C150.002 670.957 160.786 672.166 178.178 661.763C195.57 651.36 194.998 644.043 194.998 644.043C194.998 644.043 184.214 642.834 166.822 653.237Z" fill="#ACACAC" fill-opacity="0.24"/>
<path d="M166.822 139.237C149.43 149.64 150.002 156.957 150.002 156.957C150.002 156.957 160.786 158.166 178.178 147.763C195.57 137.36 194.998 130.043 194.998 130.043C194.998 130.043 184.214 128.834 166.822 139.237Z" fill="#ACACAC" fill-opacity="0.24"/>
<path d="M761.822 653.237C744.43 663.64 745.002 670.957 745.002 670.957C745.002 670.957 755.786 672.166 773.178 661.763C790.57 651.36 789.998 644.043 789.998 644.043C789.998 644.043 779.214 642.834 761.822 653.237Z" fill="#ACACAC" fill-opacity="0.24"/>
<path d="M759.822 139.237C742.43 149.64 743.002 156.957 743.002 156.957C743.002 156.957 753.786 158.166 771.178 147.763C788.57 137.36 787.998 130.043 787.998 130.043C787.998 130.043 777.214 128.834 759.822 139.237Z" fill="#ACACAC" fill-opacity="0.24"/>
<path d="M466.822 908.237C449.43 918.64 450.002 925.957 450.002 925.957C450.002 925.957 460.786 927.166 478.178 916.763C495.57 906.36 494.998 899.043 494.998 899.043C494.998 899.043 484.214 897.834 466.822 908.237Z" fill="#ACACAC" fill-opacity="0.24"/>
<path d="M466.822 394.237C449.43 404.64 450.002 411.957 450.002 411.957C450.002 411.957 460.786 413.166 478.178 402.763C495.57 392.36 494.998 385.043 494.998 385.043C494.998 385.043 484.214 383.834 466.822 394.237Z" fill="#ACACAC" fill-opacity="0.24"/>
<path d="M466.822 653.237C449.43 663.64 450.002 670.957 450.002 670.957C450.002 670.957 460.786 672.166 478.178 661.763C495.57 651.36 494.998 644.043 494.998 644.043C494.998 644.043 484.214 642.834 466.822 653.237Z" fill="#ACACAC" fill-opacity="0.24"/>
<path d="M466.822 139.237C449.43 149.64 450.002 156.957 450.002 156.957C450.002 156.957 460.786 158.166 478.178 147.763C495.57 137.36 494.998 130.043 494.998 130.043C494.998 130.043 484.214 128.834 466.822 139.237Z" fill="#ACACAC" fill-opacity="0.24"/>
<path d="M212.178 971.237C229.57 981.64 228.998 988.957 228.998 988.957C228.998 988.957 218.214 990.166 200.822 979.763C183.43 969.36 184.002 962.043 184.002 962.043C184.002 962.043 194.786 960.834 212.178 971.237Z" fill="#ACACAC" fill-opacity="0.24"/>
<path d="M212.178 457.237C229.57 467.64 228.998 474.957 228.998 474.957C228.998 474.957 218.214 476.166 200.822 465.763C183.43 455.36 184.002 448.043 184.002 448.043C184.002 448.043 194.786 446.834 212.178 457.237Z" fill="#ACACAC" fill-opacity="0.24"/>
<path d="M807.178 971.237C824.57 981.64 823.998 988.957 823.998 988.957C823.998 988.957 813.214 990.166 795.822 979.763C778.43 969.36 779.002 962.043 779.002 962.043C779.002 962.043 789.786 960.834 807.178 971.237Z" fill="#ACACAC" fill-opacity="0.24"/>
<path d="M805.178 457.237C822.57 467.64 821.998 474.957 821.998 474.957C821.998 474.957 811.214 476.166 793.822 465.763C776.43 455.36 777.002 448.043 777.002 448.043C777.002 448.043 787.786 446.834 805.178 457.237Z" fill="#ACACAC" fill-opacity="0.24"/>
<path d="M212.178 716.237C229.57 726.64 228.998 733.957 228.998 733.957C228.998 733.957 218.214 735.166 200.822 724.763C183.43 714.36 184.002 707.043 184.002 707.043C184.002 707.043 194.786 705.834 212.178 716.237Z" fill="#ACACAC" fill-opacity="0.24"/>
<path d="M212.178 202.237C229.57 212.64 228.998 219.957 228.998 219.957C228.998 219.957 218.214 221.166 200.822 210.763C183.43 200.36 184.002 193.043 184.002 193.043C184.002 193.043 194.786 191.834 212.178 202.237Z" fill="#ACACAC" fill-opacity="0.24"/>
<path d="M807.178 716.237C824.57 726.64 823.998 733.957 823.998 733.957C823.998 733.957 813.214 735.166 795.822 724.763C778.43 714.36 779.002 707.043 779.002 707.043C779.002 707.043 789.786 705.834 807.178 716.237Z" fill="#ACACAC" fill-opacity="0.24"/>
<path d="M805.178 202.237C822.57 212.64 821.998 219.957 821.998 219.957C821.998 219.957 811.214 221.166 793.822 210.763C776.43 200.36 777.002 193.043 777.002 193.043C777.002 193.043 787.786 191.834 805.178 202.237Z" fill="#ACACAC" fill-opacity="0.24"/>
<path d="M512.178 971.237C529.57 981.64 528.998 988.957 528.998 988.957C528.998 988.957 518.214 990.166 500.822 979.763C483.43 969.36 484.002 962.043 484.002 962.043C484.002 962.043 494.786 960.834 512.178 971.237Z" fill="#ACACAC" fill-opacity="0.24"/>
<path d="M512.178 457.237C529.57 467.64 528.998 474.957 528.998 474.957C528.998 474.957 518.214 476.166 500.822 465.763C483.43 455.36 484.002 448.043 484.002 448.043C484.002 448.043 494.786 446.834 512.178 457.237Z" fill="#ACACAC" fill-opacity="0.24"/>
<path d="M512.178 716.237C529.57 726.64 528.998 733.957 528.998 733.957C528.998 733.957 518.214 735.166 500.822 724.763C483.43 714.36 484.002 707.043 484.002 707.043C484.002 707.043 494.786 705.834 512.178 716.237Z" fill="#ACACAC" fill-opacity="0.24"/>
<path d="M512.178 202.237C529.57 212.64 528.998 219.957 528.998 219.957C528.998 219.957 518.214 221.166 500.822 210.763C483.43 200.36 484.002 193.043 484.002 193.043C484.002 193.043 494.786 191.834 512.178 202.237Z" fill="#ACACAC" fill-opacity="0.24"/>
<path d="M212.178 845.237C229.57 855.64 228.998 862.957 228.998 862.957C228.998 862.957 218.214 864.166 200.822 853.763C183.43 843.36 184.002 836.043 184.002 836.043C184.002 836.043 194.786 834.834 212.178 845.237Z" fill="#ACACAC" fill-opacity="0.24"/>
<path d="M212.178 331.237C229.57 341.64 228.998 348.957 228.998 348.957C228.998 348.957 218.214 350.166 200.822 339.763C183.43 329.36 184.002 322.043 184.002 322.043C184.002 322.043 194.786 320.834 212.178 331.237Z" fill="#ACACAC" fill-opacity="0.24"/>
<path d="M807.178 845.237C824.57 855.64 823.998 862.957 823.998 862.957C823.998 862.957 813.214 864.166 795.822 853.763C778.43 843.36 779.002 836.043 779.002 836.043C779.002 836.043 789.786 834.834 807.178 845.237Z" fill="#ACACAC" fill-opacity="0.24"/>
<path d="M805.178 331.237C822.57 341.64 821.998 348.957 821.998 348.957C821.998 348.957 811.214 350.166 793.822 339.763C776.43 329.36 777.002 322.043 777.002 322.043C777.002 322.043 787.786 320.834 805.178 331.237Z" fill="#ACACAC" fill-opacity="0.24"/>
<path d="M212.178 590.237C229.57 600.64 228.998 607.957 228.998 607.957C228.998 607.957 218.214 609.166 200.822 598.763C183.43 588.36 184.002 581.043 184.002 581.043C184.002 581.043 194.786 579.834 212.178 590.237Z" fill="#ACACAC" fill-opacity="0.24"/>
<path d="M212.178 76.2373C229.57 86.6404 228.998 93.957 228.998 93.957C228.998 93.957 218.214 95.1658 200.822 84.7627C183.43 74.3596 184.002 67.043 184.002 67.043C184.002 67.043 194.786 65.8342 212.178 76.2373Z" fill="#ACACAC" fill-opacity="0.24"/>
<path d="M807.178 590.237C824.57 600.64 823.998 607.957 823.998 607.957C823.998 607.957 813.214 609.166 795.822 598.763C778.43 588.36 779.002 581.043 779.002 581.043C779.002 581.043 789.786 579.834 807.178 590.237Z" fill="#ACACAC" fill-opacity="0.24"/>
<path d="M805.178 76.2373C822.57 86.6404 821.998 93.957 821.998 93.957C821.998 93.957 811.214 95.1658 793.822 84.7627C776.43 74.3596 777.002 67.043 777.002 67.043C777.002 67.043 787.786 65.8342 805.178 76.2373Z" fill="#ACACAC" fill-opacity="0.24"/>
<path d="M391.822 16.2373C374.43 26.6404 375.002 33.957 375.002 33.957C375.002 33.957 385.786 35.1658 403.178 24.7627C420.57 14.3596 419.998 7.04298 419.998 7.04298C419.998 7.04298 409.214 5.83418 391.822 16.2373Z" fill="#ACACAC" fill-opacity="0.24"/>
<path d="M512.178 845.237C529.57 855.64 528.998 862.957 528.998 862.957C528.998 862.957 518.214 864.166 500.822 853.763C483.43 843.36 484.002 836.043 484.002 836.043C484.002 836.043 494.786 834.834 512.178 845.237Z" fill="#ACACAC" fill-opacity="0.24"/>
<path d="M512.178 331.237C529.57 341.64 528.998 348.957 528.998 348.957C528.998 348.957 518.214 350.166 500.822 339.763C483.43 329.36 484.002 322.043 484.002 322.043C484.002 322.043 494.786 320.834 512.178 331.237Z" fill="#ACACAC" fill-opacity="0.24"/>
<path d="M512.178 590.237C529.57 600.64 528.998 607.957 528.998 607.957C528.998 607.957 518.214 609.166 500.822 598.763C483.43 588.36 484.002 581.043 484.002 581.043C484.002 581.043 494.786 579.834 512.178 590.237Z" fill="#ACACAC" fill-opacity="0.24"/>
<path d="M512.178 76.2373C529.57 86.6404 528.998 93.957 528.998 93.957C528.998 93.957 518.214 95.1658 500.822 84.7627C483.43 74.3596 484.002 67.043 484.002 67.043C484.002 67.043 494.786 65.8342 512.178 76.2373Z" fill="#ACACAC" fill-opacity="0.24"/>
<path d="M684.822 16.2373C667.43 26.6404 668.002 33.957 668.002 33.957C668.002 33.957 678.786 35.1658 696.178 24.7627C713.57 14.3596 712.998 7.04298 712.998 7.04298C712.998 7.04298 702.214 5.83418 684.822 16.2373Z" fill="#ACACAC" fill-opacity="0.24"/>
<path d="M91.8217 16.2373C74.4295 26.6404 75.0022 33.957 75.0022 33.957C75.0022 33.957 85.7861 35.1658 103.178 24.7627C120.57 14.3596 119.998 7.04298 119.998 7.04298C119.998 7.04298 109.214 5.83418 91.8217 16.2373Z" fill="#ACACAC" fill-opacity="0.24"/>
<path d="M241.822 1034.24C224.43 1044.64 225.002 1051.96 225.002 1051.96C225.002 1051.96 235.786 1053.17 253.178 1042.76C270.57 1032.36 269.998 1025.04 269.998 1025.04C269.998 1025.04 259.214 1023.83 241.822 1034.24Z" fill="#ACACAC" fill-opacity="0.24"/>
<path d="M241.822 520.237C224.43 530.64 225.002 537.957 225.002 537.957C225.002 537.957 235.786 539.166 253.178 528.763C270.57 518.36 269.998 511.043 269.998 511.043C269.998 511.043 259.214 509.834 241.822 520.237Z" fill="#ACACAC" fill-opacity="0.24"/>
<path d="M836.822 1034.24C819.43 1044.64 820.002 1051.96 820.002 1051.96C820.002 1051.96 830.786 1053.17 848.178 1042.76C865.57 1032.36 864.998 1025.04 864.998 1025.04C864.998 1025.04 854.214 1023.83 836.822 1034.24Z" fill="#ACACAC" fill-opacity="0.24"/>
<path d="M834.822 520.237C817.43 530.64 818.002 537.957 818.002 537.957C818.002 537.957 828.786 539.166 846.178 528.763C863.57 518.36 862.998 511.043 862.998 511.043C862.998 511.043 852.214 509.834 834.822 520.237Z" fill="#ACACAC" fill-opacity="0.24"/>
<path d="M241.822 779.237C224.43 789.64 225.002 796.957 225.002 796.957C225.002 796.957 235.786 798.166 253.178 787.763C270.57 777.36 269.998 770.043 269.998 770.043C269.998 770.043 259.214 768.834 241.822 779.237Z" fill="#ACACAC" fill-opacity="0.24"/>
<path d="M241.822 265.237C224.43 275.64 225.002 282.957 225.002 282.957C225.002 282.957 235.786 284.166 253.178 273.763C270.57 263.36 269.998 256.043 269.998 256.043C269.998 256.043 259.214 254.834 241.822 265.237Z" fill="#ACACAC" fill-opacity="0.24"/>
<path d="M836.822 779.237C819.43 789.64 820.002 796.957 820.002 796.957C820.002 796.957 830.786 798.166 848.178 787.763C865.57 777.36 864.998 770.043 864.998 770.043C864.998 770.043 854.214 768.834 836.822 779.237Z" fill="#ACACAC" fill-opacity="0.24"/>
<path d="M834.822 265.237C817.43 275.64 818.002 282.957 818.002 282.957C818.002 282.957 828.786 284.166 846.178 273.763C863.57 263.36 862.998 256.043 862.998 256.043C862.998 256.043 852.214 254.834 834.822 265.237Z" fill="#ACACAC" fill-opacity="0.24"/>
<path d="M541.822 1034.24C524.43 1044.64 525.002 1051.96 525.002 1051.96C525.002 1051.96 535.786 1053.17 553.178 1042.76C570.57 1032.36 569.998 1025.04 569.998 1025.04C569.998 1025.04 559.214 1023.83 541.822 1034.24Z" fill="#ACACAC" fill-opacity="0.24"/>
<path d="M541.822 520.237C524.43 530.64 525.002 537.957 525.002 537.957C525.002 537.957 535.786 539.166 553.178 528.763C570.57 518.36 569.998 511.043 569.998 511.043C569.998 511.043 559.214 509.834 541.822 520.237Z" fill="#ACACAC" fill-opacity="0.24"/>
<path d="M541.822 779.237C524.43 789.64 525.002 796.957 525.002 796.957C525.002 796.957 535.786 798.166 553.178 787.763C570.57 777.36 569.998 770.043 569.998 770.043C569.998 770.043 559.214 768.834 541.822 779.237Z" fill="#ACACAC" fill-opacity="0.24"/>
<path d="M541.822 265.237C524.43 275.64 525.002 282.957 525.002 282.957C525.002 282.957 535.786 284.166 553.178 273.763C570.57 263.36 569.998 256.043 569.998 256.043C569.998 256.043 559.214 254.834 541.822 265.237Z" fill="#ACACAC" fill-opacity="0.24"/>
<path d="M241.822 908.237C224.43 918.64 225.002 925.957 225.002 925.957C225.002 925.957 235.786 927.166 253.178 916.763C270.57 906.36 269.998 899.043 269.998 899.043C269.998 899.043 259.214 897.834 241.822 908.237Z" fill="#ACACAC" fill-opacity="0.24"/>
<path d="M241.822 394.237C224.43 404.64 225.002 411.957 225.002 411.957C225.002 411.957 235.786 413.166 253.178 402.763C270.57 392.36 269.998 385.043 269.998 385.043C269.998 385.043 259.214 383.834 241.822 394.237Z" fill="#ACACAC" fill-opacity="0.24"/>
<path d="M836.822 908.237C819.43 918.64 820.002 925.957 820.002 925.957C820.002 925.957 830.786 927.166 848.178 916.763C865.57 906.36 864.998 899.043 864.998 899.043C864.998 899.043 854.214 897.834 836.822 908.237Z" fill="#ACACAC" fill-opacity="0.24"/>
<path d="M834.822 394.237C817.43 404.64 818.002 411.957 818.002 411.957C818.002 411.957 828.786 413.166 846.178 402.763C863.57 392.36 862.998 385.043 862.998 385.043C862.998 385.043 852.214 383.834 834.822 394.237Z" fill="#ACACAC" fill-opacity="0.24"/>
<path d="M241.822 653.237C224.43 663.64 225.002 670.957 225.002 670.957C225.002 670.957 235.786 672.166 253.178 661.763C270.57 651.36 269.998 644.043 269.998 644.043C269.998 644.043 259.214 642.834 241.822 653.237Z" fill="#ACACAC" fill-opacity="0.24"/>
<path d="M241.822 139.237C224.43 149.64 225.002 156.957 225.002 156.957C225.002 156.957 235.786 158.166 253.178 147.763C270.57 137.36 269.998 130.043 269.998 130.043C269.998 130.043 259.214 128.834 241.822 139.237Z" fill="#ACACAC" fill-opacity="0.24"/>
<path d="M836.822 653.237C819.43 663.64 820.002 670.957 820.002 670.957C820.002 670.957 830.786 672.166 848.178 661.763C865.57 651.36 864.998 644.043 864.998 644.043C864.998 644.043 854.214 642.834 836.822 653.237Z" fill="#ACACAC" fill-opacity="0.24"/>
<path d="M834.822 139.237C817.43 149.64 818.002 156.957 818.002 156.957C818.002 156.957 828.786 158.166 846.178 147.763C863.57 137.36 862.998 130.043 862.998 130.043C862.998 130.043 852.214 128.834 834.822 139.237Z" fill="#ACACAC" fill-opacity="0.24"/>
<path d="M541.822 908.237C524.43 918.64 525.002 925.957 525.002 925.957C525.002 925.957 535.786 927.166 553.178 916.763C570.57 906.36 569.998 899.043 569.998 899.043C569.998 899.043 559.214 897.834 541.822 908.237Z" fill="#ACACAC" fill-opacity="0.24"/>
<path d="M541.822 394.237C524.43 404.64 525.002 411.957 525.002 411.957C525.002 411.957 535.786 413.166 553.178 402.763C570.57 392.36 569.998 385.043 569.998 385.043C569.998 385.043 559.214 383.834 541.822 394.237Z" fill="#ACACAC" fill-opacity="0.24"/>
<path d="M541.822 653.237C524.43 663.64 525.002 670.957 525.002 670.957C525.002 670.957 535.786 672.166 553.178 661.763C570.57 651.36 569.998 644.043 569.998 644.043C569.998 644.043 559.214 642.834 541.822 653.237Z" fill="#ACACAC" fill-opacity="0.24"/>
<path d="M541.822 139.237C524.43 149.64 525.002 156.957 525.002 156.957C525.002 156.957 535.786 158.166 553.178 147.763C570.57 137.36 569.998 130.043 569.998 130.043C569.998 130.043 559.214 128.834 541.822 139.237Z" fill="#ACACAC" fill-opacity="0.24"/>
<path d="M137.178 971.237C154.57 981.64 153.998 988.957 153.998 988.957C153.998 988.957 143.214 990.166 125.822 979.763C108.43 969.36 109.002 962.043 109.002 962.043C109.002 962.043 119.786 960.834 137.178 971.237Z" fill="#ACACAC" fill-opacity="0.24"/>
<path d="M137.178 457.237C154.57 467.64 153.998 474.957 153.998 474.957C153.998 474.957 143.214 476.166 125.822 465.763C108.43 455.36 109.002 448.043 109.002 448.043C109.002 448.043 119.786 446.834 137.178 457.237Z" fill="#ACACAC" fill-opacity="0.24"/>
<path d="M732.178 971.237C749.57 981.64 748.998 988.957 748.998 988.957C748.998 988.957 738.214 990.166 720.822 979.763C703.43 969.36 704.002 962.043 704.002 962.043C704.002 962.043 714.786 960.834 732.178 971.237Z" fill="#ACACAC" fill-opacity="0.24"/>
<path d="M730.178 457.237C747.57 467.64 746.998 474.957 746.998 474.957C746.998 474.957 736.214 476.166 718.822 465.763C701.43 455.36 702.002 448.043 702.002 448.043C702.002 448.043 712.786 446.834 730.178 457.237Z" fill="#ACACAC" fill-opacity="0.24"/>
<path d="M137.178 716.237C154.57 726.64 153.998 733.957 153.998 733.957C153.998 733.957 143.214 735.166 125.822 724.763C108.43 714.36 109.002 707.043 109.002 707.043C109.002 707.043 119.786 705.834 137.178 716.237Z" fill="#ACACAC" fill-opacity="0.24"/>
<path d="M137.178 202.237C154.57 212.64 153.998 219.957 153.998 219.957C153.998 219.957 143.214 221.166 125.822 210.763C108.43 200.36 109.002 193.043 109.002 193.043C109.002 193.043 119.786 191.834 137.178 202.237Z" fill="#ACACAC" fill-opacity="0.24"/>
<path d="M732.178 716.237C749.57 726.64 748.998 733.957 748.998 733.957C748.998 733.957 738.214 735.166 720.822 724.763C703.43 714.36 704.002 707.043 704.002 707.043C704.002 707.043 714.786 705.834 732.178 716.237Z" fill="#ACACAC" fill-opacity="0.24"/>
<path d="M730.178 202.237C747.57 212.64 746.998 219.957 746.998 219.957C746.998 219.957 736.214 221.166 718.822 210.763C701.43 200.36 702.002 193.043 702.002 193.043C702.002 193.043 712.786 191.834 730.178 202.237Z" fill="#ACACAC" fill-opacity="0.24"/>
<path d="M437.178 971.237C454.57 981.64 453.998 988.957 453.998 988.957C453.998 988.957 443.214 990.166 425.822 979.763C408.43 969.36 409.002 962.043 409.002 962.043C409.002 962.043 419.786 960.834 437.178 971.237Z" fill="#ACACAC" fill-opacity="0.24"/>
<path d="M437.178 457.237C454.57 467.64 453.998 474.957 453.998 474.957C453.998 474.957 443.214 476.166 425.822 465.763C408.43 455.36 409.002 448.043 409.002 448.043C409.002 448.043 419.786 446.834 437.178 457.237Z" fill="#ACACAC" fill-opacity="0.24"/>
<path d="M1032.18 971.237C1049.57 981.64 1049 988.957 1049 988.957C1049 988.957 1038.21 990.166 1020.82 979.763C1003.43 969.36 1004 962.043 1004 962.043C1004 962.043 1014.79 960.834 1032.18 971.237Z" fill="#ACACAC" fill-opacity="0.24"/>
<path d="M437.178 716.237C454.57 726.64 453.998 733.957 453.998 733.957C453.998 733.957 443.214 735.166 425.822 724.763C408.43 714.36 409.002 707.043 409.002 707.043C409.002 707.043 419.786 705.834 437.178 716.237Z" fill="#ACACAC" fill-opacity="0.24"/>
<path d="M437.178 202.237C454.57 212.64 453.998 219.957 453.998 219.957C453.998 219.957 443.214 221.166 425.822 210.763C408.43 200.36 409.002 193.043 409.002 193.043C409.002 193.043 419.786 191.834 437.178 202.237Z" fill="#ACACAC" fill-opacity="0.24"/>
<path d="M137.178 845.237C154.57 855.64 153.998 862.957 153.998 862.957C153.998 862.957 143.214 864.166 125.822 853.763C108.43 843.36 109.002 836.043 109.002 836.043C109.002 836.043 119.786 834.834 137.178 845.237Z" fill="#ACACAC" fill-opacity="0.24"/>
<path d="M137.178 331.237C154.57 341.64 153.998 348.957 153.998 348.957C153.998 348.957 143.214 350.166 125.822 339.763C108.43 329.36 109.002 322.043 109.002 322.043C109.002 322.043 119.786 320.834 137.178 331.237Z" fill="#ACACAC" fill-opacity="0.24"/>
<path d="M732.178 845.237C749.57 855.64 748.998 862.957 748.998 862.957C748.998 862.957 738.214 864.166 720.822 853.763C703.43 843.36 704.002 836.043 704.002 836.043C704.002 836.043 714.786 834.834 732.178 845.237Z" fill="#ACACAC" fill-opacity="0.24"/>
<path d="M730.178 331.237C747.57 341.64 746.998 348.957 746.998 348.957C746.998 348.957 736.214 350.166 718.822 339.763C701.43 329.36 702.002 322.043 702.002 322.043C702.002 322.043 712.786 320.834 730.178 331.237Z" fill="#ACACAC" fill-opacity="0.24"/>
<path d="M137.178 590.237C154.57 600.64 153.998 607.957 153.998 607.957C153.998 607.957 143.214 609.166 125.822 598.763C108.43 588.36 109.002 581.043 109.002 581.043C109.002 581.043 119.786 579.834 137.178 590.237Z" fill="#ACACAC" fill-opacity="0.24"/>
<path d="M137.178 76.2373C154.57 86.6404 153.998 93.957 153.998 93.957C153.998 93.957 143.214 95.1658 125.822 84.7627C108.43 74.3596 109.002 67.043 109.002 67.043C109.002 67.043 119.786 65.8342 137.178 76.2373Z" fill="#ACACAC" fill-opacity="0.24"/>
<path d="M732.178 590.237C749.57 600.64 748.998 607.957 748.998 607.957C748.998 607.957 738.214 609.166 720.822 598.763C703.43 588.36 704.002 581.043 704.002 581.043C704.002 581.043 714.786 579.834 732.178 590.237Z" fill="#ACACAC" fill-opacity="0.24"/>
<path d="M730.178 76.2373C747.57 86.6404 746.998 93.957 746.998 93.957C746.998 93.957 736.214 95.1658 718.822 84.7627C701.43 74.3596 702.002 67.043 702.002 67.043C702.002 67.043 712.786 65.8342 730.178 76.2373Z" fill="#ACACAC" fill-opacity="0.24"/>
<path d="M466.822 16.2373C449.43 26.6404 450.002 33.957 450.002 33.957C450.002 33.957 460.786 35.1658 478.178 24.7627C495.57 14.3596 494.998 7.04298 494.998 7.04298C494.998 7.04298 484.214 5.83418 466.822 16.2373Z" fill="#ACACAC" fill-opacity="0.24"/>
<path d="M437.178 845.237C454.57 855.64 453.998 862.957 453.998 862.957C453.998 862.957 443.214 864.166 425.822 853.763C408.43 843.36 409.002 836.043 409.002 836.043C409.002 836.043 419.786 834.834 437.178 845.237Z" fill="#ACACAC" fill-opacity="0.24"/>
<path d="M437.178 331.237C454.57 341.64 453.998 348.957 453.998 348.957C453.998 348.957 443.214 350.166 425.822 339.763C408.43 329.36 409.002 322.043 409.002 322.043C409.002 322.043 419.786 320.834 437.178 331.237Z" fill="#ACACAC" fill-opacity="0.24"/>
<path d="M1032.18 845.237C1049.57 855.64 1049 862.957 1049 862.957C1049 862.957 1038.21 864.166 1020.82 853.763C1003.43 843.36 1004 836.043 1004 836.043C1004 836.043 1014.79 834.834 1032.18 845.237Z" fill="#ACACAC" fill-opacity="0.24"/>
<path d="M437.178 590.237C454.57 600.64 453.998 607.957 453.998 607.957C453.998 607.957 443.214 609.166 425.822 598.763C408.43 588.36 409.002 581.043 409.002 581.043C409.002 581.043 419.786 579.834 437.178 590.237Z" fill="#ACACAC" fill-opacity="0.24"/>
<path d="M437.178 76.2373C454.57 86.6404 453.998 93.957 453.998 93.957C453.998 93.957 443.214 95.1658 425.822 84.7627C408.43 74.3596 409.002 67.043 409.002 67.043C409.002 67.043 419.786 65.8342 437.178 76.2373Z" fill="#ACACAC" fill-opacity="0.24"/>
<path d="M759.822 16.2373C742.43 26.6404 743.002 33.957 743.002 33.957C743.002 33.957 753.786 35.1658 771.178 24.7627C788.57 14.3596 787.998 7.04298 787.998 7.04298C787.998 7.04298 777.214 5.83418 759.822 16.2373Z" fill="#ACACAC" fill-opacity="0.24"/>
<path d="M166.822 16.2373C149.43 26.6404 150.002 33.957 150.002 33.957C150.002 33.957 160.786 35.1658 178.178 24.7627C195.57 14.3596 194.998 7.04298 194.998 7.04298C194.998 7.04298 184.214 5.83418 166.822 16.2373Z" fill="#ACACAC" fill-opacity="0.24"/>
<path fill-rule="evenodd" clip-rule="evenodd" d="M176.197 873C170.158 860.201 159.799 849.842 147 843.803V236.197C159.799 230.158 170.158 219.799 176.197 207H896V155H176.197C166.437 134.314 145.39 120 121 120C87.3106 120 60 147.311 60 181C60 205.39 74.3142 226.437 95 236.197V843.803C74.3142 853.563 60 874.61 60 899C60 932.689 87.3106 960 121 960C145.39 960 166.437 945.686 176.197 925H1048V873H176.197Z" fill="#A9A9A9"/>
<mask id="path-226-inside-1_23_807" fill="white">
<path fill-rule="evenodd" clip-rule="evenodd" d="M162.541 925L1054 925V913L167.971 913C166.699 917.273 164.86 921.303 162.541 925ZM167.971 885L1054 885V873L162.541 873C164.86 876.697 166.699 880.727 167.971 885Z"/>
</mask>
<path fill-rule="evenodd" clip-rule="evenodd" d="M162.541 925L1054 925V913L167.971 913C166.699 917.273 164.86 921.303 162.541 925ZM167.971 885L1054 885V873L162.541 873C164.86 876.697 166.699 880.727 167.971 885Z" fill="black"/>
<path d="M162.541 925L159.152 922.875L155.31 929H162.541V925ZM1054 925V929H1058V925H1054ZM1054 913H1058V909H1054V913ZM167.971 913V909H164.988L164.137 911.859L167.971 913ZM1054 885V889H1058V885H1054ZM167.971 885L164.137 886.141L164.988 889H167.971V885ZM1054 873H1058V869H1054V873ZM162.541 873V869H155.31L159.152 875.125L162.541 873ZM162.541 929L1054 929V921L162.541 921V929ZM1058 925V913H1050V925H1058ZM1054 909L167.971 909V917L1054 917V909ZM164.137 911.859C162.97 915.78 161.282 919.479 159.152 922.875L165.929 927.125C168.438 923.126 170.428 918.766 171.805 914.141L164.137 911.859ZM1054 881L167.971 881V889L1054 889V881ZM1050 873V885H1058V873H1050ZM162.541 877L1054 877V869L162.541 869V877ZM159.152 875.125C161.282 878.521 162.97 882.22 164.137 886.141L171.805 883.859C170.428 879.234 168.438 874.874 165.929 870.875L159.152 875.125Z" fill="black" mask="url(#path-226-inside-1_23_807)"/>
<mask id="path-228-inside-2_23_807" fill="white">
<path fill-rule="evenodd" clip-rule="evenodd" d="M162.541 207L1054 207V195L167.971 195C166.699 199.273 164.86 203.303 162.541 207ZM167.971 167L1054 167V155L162.541 155C164.86 158.697 166.699 162.727 167.971 167Z"/>
</mask>
<path fill-rule="evenodd" clip-rule="evenodd" d="M162.541 207L1054 207V195L167.971 195C166.699 199.273 164.86 203.303 162.541 207ZM167.971 167L1054 167V155L162.541 155C164.86 158.697 166.699 162.727 167.971 167Z" fill="black"/>
<path d="M162.541 207L159.152 204.875L155.31 211H162.541V207ZM1054 207V211H1058V207H1054ZM1054 195H1058V191H1054V195ZM167.971 195V191H164.988L164.137 193.859L167.971 195ZM1054 167V171H1058V167H1054ZM167.971 167L164.137 168.141L164.988 171H167.971V167ZM1054 155H1058V151H1054V155ZM162.541 155V151H155.31L159.152 157.125L162.541 155ZM162.541 211L1054 211V203L162.541 203V211ZM1058 207V195H1050V207H1058ZM1054 191L167.971 191V199L1054 199V191ZM164.137 193.859C162.97 197.78 161.282 201.479 159.152 204.875L165.929 209.125C168.438 205.126 170.428 200.766 171.805 196.141L164.137 193.859ZM1054 163L167.971 163V171L1054 171V163ZM1050 155V167H1058V155H1050ZM162.541 159L1054 159V151L162.541 151V159ZM159.152 157.125C161.282 160.521 162.97 164.22 164.137 168.141L171.805 165.859C170.428 161.234 168.438 156.874 165.929 152.875L159.152 157.125Z" fill="black" mask="url(#path-228-inside-2_23_807)"/>
<mask id="path-230-inside-3_23_807" fill="white">
<path fill-rule="evenodd" clip-rule="evenodd" d="M107 852.029C102.727 853.301 98.6975 855.14 95 857.459L95 222.541C98.6975 224.86 102.727 226.699 107 227.971L107 852.029ZM147 857.459C143.303 855.14 139.273 853.301 135 852.029L135 227.971C139.273 226.699 143.303 224.86 147 222.541L147 857.459Z"/>
</mask>
<path fill-rule="evenodd" clip-rule="evenodd" d="M107 852.029C102.727 853.301 98.6975 855.14 95 857.459L95 222.541C98.6975 224.86 102.727 226.699 107 227.971L107 852.029ZM147 857.459C143.303 855.14 139.273 853.301 135 852.029L135 227.971C139.273 226.699 143.303 224.86 147 222.541L147 857.459Z" fill="black"/>
<path d="M107 852.029L108.141 855.863L111 855.012V852.029H107ZM95 857.459H91L91 864.69L97.1254 860.848L95 857.459ZM95 222.541L97.1254 219.152L91 215.31V222.541H95ZM107 227.971H111V224.988L108.141 224.137L107 227.971ZM147 857.459L144.875 860.848L151 864.69V857.459H147ZM135 852.029H131V855.012L133.859 855.863L135 852.029ZM135 227.971L133.859 224.137L131 224.988V227.971H135ZM147 222.541H151V215.31L144.875 219.152L147 222.541ZM105.859 848.195C101.234 849.572 96.8738 851.562 92.8746 854.071L97.1254 860.848C100.521 858.718 104.22 857.03 108.141 855.863L105.859 848.195ZM99 857.459L99 222.541H91L91 857.459H99ZM92.8746 225.929C96.8738 228.438 101.234 230.428 105.859 231.805L108.141 224.137C104.22 222.97 100.521 221.282 97.1254 219.152L92.8746 225.929ZM103 227.971L103 852.029H111L111 227.971H103ZM149.125 854.071C145.126 851.562 140.766 849.572 136.141 848.195L133.859 855.863C137.78 857.03 141.479 858.718 144.875 860.848L149.125 854.071ZM139 852.029L139 227.971H131L131 852.029H139ZM136.141 231.805C140.766 230.428 145.126 228.438 149.125 225.929L144.875 219.152C141.479 221.282 137.78 222.97 133.859 224.137L136.141 231.805ZM143 222.541L143 857.459H151L151 222.541H143Z" fill="black" mask="url(#path-230-inside-3_23_807)"/>
<circle r="32.2941" transform="matrix(-1 0 0 1 121 181)" fill="black"/>
<circle r="32.2941" transform="matrix(-1 0 0 1 121 181)" stroke="black"/>
<path fill-rule="evenodd" clip-rule="evenodd" d="M71.9998 181C71.9998 198.881 81.5773 214.525 95.8822 223.081V236.605C74.7222 227.032 59.9998 205.735 59.9998 181C59.9998 147.311 87.3104 120 121 120C145.735 120 167.032 134.722 176.605 155.882H163.081C154.524 141.578 138.881 132 121 132C93.9379 132 71.9998 153.938 71.9998 181ZM146.117 223.081C153.077 218.918 158.918 213.077 163.081 206.118H176.605C170.497 219.618 159.618 230.497 146.117 236.605V223.081Z" fill="black"/>
<circle cx="121" cy="899" r="30.2941" transform="rotate(-180 121 899)" fill="black" stroke="black" stroke-width="4"/>
<path fill-rule="evenodd" clip-rule="evenodd" d="M71.9998 899C71.9998 881.119 81.5773 865.475 95.8822 856.919V843.395C74.7222 852.968 59.9998 874.265 59.9998 899C59.9998 932.689 87.3104 960 121 960C145.735 960 167.032 945.278 176.605 924.118H163.081C154.524 938.422 138.881 948 121 948C93.9379 948 71.9998 926.062 71.9998 899ZM146.117 856.919C153.077 861.082 158.918 866.923 163.081 873.882H176.605C170.497 860.382 159.618 849.503 146.117 843.395V856.919Z" fill="black"/>
<path d="M-448.755 1017L-402.374 1121H484.755L438.374 1017H-448.755Z" fill="#EBAA04" stroke="#080808" stroke-width="12"/>
<path d="M446.245 1017L492.626 1121H1379.75L1333.37 1017H446.245Z" fill="#EBAA04" stroke="#080808" stroke-width="12"/>
<path d="M529 1017L572.333 1121H627L583.667 1017H529Z" fill="#080808" stroke="#080808" stroke-width="12"/>
<path d="M668 1017L711.333 1121H766L722.667 1017H668Z" fill="#080808" stroke="#080808" stroke-width="12"/>
<path d="M-31 1017L12.3333 1121H67L23.6667 1017H-31Z" fill="#080808" stroke="#080808" stroke-width="12"/>
<path d="M807 1017L850.333 1121H905L861.667 1017H807Z" fill="#080808" stroke="#080808" stroke-width="12"/>
<path d="M108.03 1017L151.737 1121H206.97L163.263 1017H108.03Z" fill="#080808" stroke="#080808" stroke-width="12"/>
<path d="M946.03 1017L989.737 1121H1044.97L1001.26 1017H946.03Z" fill="#080808" stroke="#080808" stroke-width="12"/>
<path d="M248 1017L291.333 1121H346L302.667 1017H248Z" fill="#080808" stroke="#080808" stroke-width="12"/>
<path d="M388 1017L431.333 1121H486L442.667 1017H388Z" fill="#080808" stroke="#080808" stroke-width="12"/>
<path d="M-525.755 -43L-479.374 61H407.755L361.374 -43H-525.755Z" fill="#EBAA04" stroke="#080808" stroke-width="12"/>
<path d="M369.245 -43L415.626 61H1302.75L1256.37 -43H369.245Z" fill="#EBAA04" stroke="#080808" stroke-width="12"/>
<path d="M452 -43L495.333 61H550L506.667 -43H452Z" fill="#080808" stroke="#080808" stroke-width="12"/>
<path d="M591 -43L634.333 61H689L645.667 -43H591Z" fill="#080808" stroke="#080808" stroke-width="12"/>
<path d="M730 -43L773.333 61H828L784.667 -43H730Z" fill="#080808" stroke="#080808" stroke-width="12"/>
<path d="M31.0299 -43L74.7368 61H129.97L86.2632 -43H31.0299Z" fill="#080808" stroke="#080808" stroke-width="12"/>
<path d="M869.03 -43L912.737 61H967.97L924.263 -43H869.03Z" fill="#080808" stroke="#080808" stroke-width="12"/>
<path d="M171 -43L214.333 61H269L225.667 -43H171Z" fill="#080808" stroke="#080808" stroke-width="12"/>
<path d="M1009 -43L1052.33 61H1107L1063.67 -43H1009Z" fill="#080808" stroke="#080808" stroke-width="12"/>
<path d="M311 -43L354.333 61H409L365.667 -43H311Z" fill="#080808" stroke="#080808" stroke-width="12"/>
</g>
</svg>
