<svg width="1920" height="1080" viewBox="0 0 1920 1080" fill="none" xmlns="http://www.w3.org/2000/svg">
<mask id="mask0_31_1113" style="mask-type:alpha" maskUnits="userSpaceOnUse" x="0" y="0" width="1920" height="1080">
<rect width="1920" height="1080" fill="#D9D9D9"/>
</mask>
<g mask="url(#mask0_31_1113)">
<path fill-rule="evenodd" clip-rule="evenodd" d="M473.331 -151.518C473.161 -150.257 476.823 -137.843 481.467 -123.932C491.499 -93.8848 491.944 -88.7889 484.998 -83.4309C482.102 -81.1984 472.604 -71.7011 463.891 -62.3274C454.672 -52.41 446.614 -45.4636 444.613 -45.7119C442.723 -45.9459 429.374 -49.2452 414.949 -53.0391C400.523 -56.8351 387.861 -59.5577 386.807 -59.0885C385.755 -58.6203 378.891 -42.5102 371.552 -23.2901C362.189 1.23985 359.047 12.4919 361.012 14.4594C362.552 16.001 375.17 23.1017 389.049 30.2406L414.288 43.2174L414.119 62.9368C414.025 73.7827 414.553 87.2652 415.287 92.8981C416.024 98.5301 415.97 104.458 415.168 106.074C414.368 107.689 402.743 115.188 389.336 122.739C375.931 130.291 363.95 137.408 362.715 138.553C361.035 140.11 364.504 149.704 376.435 176.501L392.403 212.367L417.378 204.266C457.722 191.18 455.321 191.347 463.214 201.108C467.006 205.796 476.607 215.326 484.552 222.284C492.495 229.241 499.292 235.607 499.657 236.427C500.022 237.246 496.709 251.398 492.296 267.877L484.271 297.837L493.534 302.686C498.628 305.353 515.262 312.064 530.499 317.602L558.201 327.666L566.002 312.532C570.294 304.209 577.108 291.193 581.146 283.605L588.488 269.812L605.69 270.257C615.151 270.502 628.851 270.113 636.135 269.392C651.848 267.84 651.784 267.782 670.724 300.843L684.389 324.694L720.447 307.945L756.505 291.197L746.611 260.671L736.718 230.145L745.861 221.897C750.891 217.359 760.891 207.026 768.082 198.932L781.159 184.218L809.242 191.519C824.687 195.533 839.121 199.262 841.315 199.803C844.477 200.581 848.053 192.989 858.491 163.342L871.674 125.898L844.071 111.833C828.889 104.097 816.144 97.0405 815.748 96.1514C815.353 95.2644 815.025 84.2965 815.021 71.7785C815.017 59.2626 814.236 45.6792 813.285 41.5919C811.309 33.1072 810.411 33.8756 846.749 13.0083L869.558 -0.0887168L852.807 -36.1554L836.055 -72.2222L805.145 -62.2741L774.235 -52.3259L763.444 -64.0487C757.509 -70.4964 747.909 -79.6297 742.112 -84.3433C736.314 -89.0568 731.03 -94.1413 730.369 -95.6422C729.708 -97.1432 732.54 -111.313 736.661 -127.132C740.781 -142.951 743.726 -156.866 743.205 -158.055C741.979 -160.848 673.935 -186.926 671.134 -185.679C669.965 -185.159 662.687 -172.267 654.957 -157.03L640.903 -129.325L623.803 -130.089C614.398 -130.51 600.702 -130.214 593.366 -129.429C586.03 -128.645 579.378 -128.213 578.584 -128.467C577.789 -128.723 569.879 -141.353 561.007 -156.533L544.875 -184.132L509.258 -168.971C489.669 -160.631 473.502 -152.777 473.331 -151.518ZM590.927 -39.4422C624.469 -46.5881 659.708 -37.662 686.791 -15.1606L701.918 -2.59436L714.249 25.102C726.55 52.7305 726.58 52.8494 726.05 73.0047C724.634 126.825 685.906 171.899 633.65 180.54C613.443 183.882 595.6 181.882 574.528 173.915C491.807 142.64 477.189 31.9348 548.834 -20.6633C564.148 -31.9058 571.999 -35.4087 590.927 -39.4422Z" fill="#5E5E5E"/>
<path fill-rule="evenodd" clip-rule="evenodd" d="M1715.23 858.828C1714.93 859.811 1716.28 870.164 1718.23 881.833C1722.43 907.039 1722.14 911.155 1715.93 914.547C1713.34 915.961 1704.58 922.329 1696.45 928.698C1687.85 935.436 1680.56 939.953 1678.99 939.503C1677.52 939.078 1667.3 934.765 1656.28 929.922C1645.27 925.077 1635.53 921.31 1634.63 921.551C1633.73 921.791 1626.23 933.761 1617.96 948.148C1607.4 966.51 1603.48 975.078 1604.79 976.894C1605.83 978.317 1614.98 985.566 1625.14 993.005L1643.61 1006.53L1640.99 1022.22C1639.54 1030.85 1638.26 1041.66 1638.14 1046.24C1638.01 1050.82 1637.22 1055.53 1636.38 1056.72C1635.54 1057.91 1625.33 1062.41 1613.7 1066.74C1602.06 1071.06 1591.62 1075.22 1590.49 1075.98C1588.96 1077.01 1590.51 1085.09 1596.63 1107.94L1604.83 1138.53L1625.75 1135.23C1659.55 1129.9 1657.61 1129.73 1662.67 1138.5C1665.1 1142.71 1671.54 1151.52 1677 1158.06C1682.45 1164.61 1687.06 1170.54 1687.25 1171.24C1687.43 1171.94 1683.01 1182.79 1677.41 1195.37L1667.24 1218.22L1674.01 1223.26C1677.73 1226.02 1690.14 1233.47 1701.58 1239.81L1722.38 1251.32L1730.5 1240.25C1734.97 1234.16 1742.04 1224.65 1746.22 1219.11L1753.81 1209.05L1767.46 1211.57C1774.96 1212.96 1785.93 1214.38 1791.82 1214.73C1804.54 1215.47 1804.49 1215.42 1815.41 1244.15L1823.29 1264.88L1854.13 1256.08L1884.97 1247.29L1880.94 1221.72L1876.91 1196.15L1885.24 1190.73C1889.82 1187.75 1899.09 1180.78 1905.84 1175.24L1918.12 1165.16L1939.57 1174.53C1951.37 1179.67 1962.4 1184.46 1964.08 1185.17C1966.5 1186.19 1970.31 1180.59 1982.36 1158.29L1997.59 1130.12L1977.38 1115.43C1966.26 1107.35 1956.99 1100.12 1956.79 1099.36C1956.59 1098.61 1957.71 1089.83 1959.28 1079.85C1960.86 1069.88 1961.95 1058.96 1961.71 1055.58C1961.21 1048.57 1960.4 1049.07 1991.98 1037.03L2011.81 1029.48L2003.01 998.627L1994.21 967.778L1968.33 971.803L1942.45 975.829L1935.33 965.127C1931.42 959.241 1924.92 950.753 1920.9 946.266C1916.87 941.779 1913.3 937.061 1912.97 935.782C1912.63 934.502 1916.67 923.57 1921.95 911.486C1927.23 899.403 1931.33 888.688 1931.07 887.675C1930.44 885.295 1879.52 855.931 1877.13 856.571C1876.14 856.838 1868.71 866.192 1860.63 877.356L1845.94 897.656L1832.41 894.889C1824.97 893.367 1814.02 891.875 1808.08 891.574C1802.13 891.273 1796.78 890.778 1796.18 890.475C1795.58 890.171 1790.87 879.11 1785.71 865.896L1776.34 841.871L1746.05 849.456C1729.39 853.629 1715.52 857.847 1715.23 858.828ZM1794.78 962.962C1822.4 961.501 1849.35 973.06 1868.09 994.405L1878.56 1006.33L1884.89 1029.95C1891.2 1053.51 1891.21 1053.61 1888.24 1069.6C1880.32 1112.3 1843.78 1143.33 1801.06 1143.62C1784.53 1143.73 1770.57 1139.89 1754.79 1130.88C1692.83 1095.52 1695.15 1005.48 1758.87 972.612C1772.49 965.587 1779.19 963.787 1794.78 962.962Z" fill="#776D6D"/>
<path fill-rule="evenodd" clip-rule="evenodd" d="M112.227 -214.172C111.932 -213.189 113.284 -202.836 115.228 -191.167C119.429 -165.961 119.14 -161.845 112.93 -158.453C110.341 -157.039 101.575 -150.671 93.451 -144.302C84.8538 -137.564 77.5573 -133.047 75.9946 -133.497C74.5181 -133.922 64.2991 -138.235 53.2849 -143.078C42.2703 -147.923 32.5252 -151.69 31.6264 -151.449C30.7294 -151.209 23.2277 -139.239 14.955 -124.852C4.40018 -106.49 0.476177 -97.9215 1.79417 -96.106C2.82663 -94.6833 11.9833 -87.4338 22.1406 -79.9945L40.6114 -66.4707L37.9889 -50.7808C36.5448 -42.1515 35.264 -31.3429 35.1385 -26.7622C35.0148 -22.1821 34.2239 -17.4659 33.3807 -16.2798C32.5393 -15.0941 22.331 -10.5858 10.6971 -6.26187C-0.93636 -1.93618 -11.38 2.22201 -12.5089 2.97842C-14.0438 4.00655 -12.4906 12.0888 -6.36655 34.9441L1.83024 65.535L22.7506 62.2319C56.5452 56.8973 54.6116 56.7268 59.6681 65.4998C62.0979 69.7139 68.5447 78.5178 73.997 85.0645C79.4471 91.6099 84.0597 97.5397 84.2469 98.2383C84.4341 98.9369 80.009 109.795 74.4132 122.367L64.2391 145.224L71.0069 150.257C74.7296 153.024 87.1351 160.47 98.5761 166.805L119.377 178.32L127.503 167.246C131.972 161.156 139.044 151.646 143.218 146.11L150.808 136.048L164.458 138.572C171.965 139.962 182.93 141.38 188.823 141.725C201.538 142.472 201.495 142.417 212.413 171.148L220.29 191.875L251.133 183.081L281.975 174.288L277.944 148.718L273.914 123.148L282.239 117.731C286.819 114.75 296.09 107.779 302.841 102.238L315.117 92.1646L336.57 101.526C348.369 106.672 359.399 111.465 361.079 112.173C363.5 113.192 367.307 107.594 379.364 85.2909L394.593 57.1216L374.376 42.4323C363.256 34.3528 353.992 27.1223 353.789 26.364C353.586 25.6075 354.709 16.8276 356.285 6.85352C357.861 -3.11875 358.953 -14.0397 358.711 -17.4161C358.207 -24.4255 357.395 -23.9266 388.98 -35.9668L408.805 -43.5234L400.01 -74.3729L391.215 -105.222L365.332 -101.197L339.45 -97.1714L332.332 -107.873C328.417 -113.759 321.921 -122.247 317.897 -126.734C313.872 -131.221 310.304 -135.939 309.967 -137.218C309.63 -138.498 313.674 -149.43 318.953 -161.514C324.232 -173.597 328.335 -184.312 328.069 -185.325C327.445 -187.705 276.523 -217.069 274.134 -216.429C273.137 -216.162 265.712 -206.808 257.63 -195.644L242.937 -175.344L229.408 -178.111C221.969 -179.633 211.019 -181.125 205.075 -181.426C199.131 -181.727 193.777 -182.222 193.176 -182.525C192.575 -182.829 187.867 -193.89 182.714 -207.104L173.344 -231.129L143.054 -223.544C126.394 -219.371 112.522 -215.153 112.227 -214.172ZM191.776 -110.038C219.402 -111.499 246.352 -99.9404 265.091 -78.5951L275.557 -66.6743L281.887 -43.0516C288.201 -19.4867 288.21 -19.3883 285.244 -3.39681C277.324 39.3047 240.78 70.33 198.056 70.6201C181.535 70.7326 167.571 66.8877 151.787 57.8813C89.8275 22.5248 92.1509 -67.5223 155.87 -100.388C169.49 -107.413 176.187 -109.213 191.776 -110.038Z" fill="#202020"/>
<path fill-rule="evenodd" clip-rule="evenodd" d="M646.474 872.177C646.094 873.131 646.539 883.563 647.458 895.357C649.447 920.832 648.8 924.908 642.318 927.746C639.616 928.928 630.328 934.508 621.68 940.145C612.528 946.108 604.866 949.972 603.348 949.388C601.914 948.836 592.11 943.648 581.56 937.864C571.009 932.077 561.63 927.475 560.713 927.637C559.799 927.798 551.283 939.068 541.787 952.679C529.672 970.052 525.016 978.246 526.171 980.169C527.076 981.677 535.566 989.697 545.036 997.993L562.258 1013.07L558.278 1028.48C556.087 1036.95 553.869 1047.6 553.345 1052.16C552.823 1056.71 551.624 1061.34 550.68 1062.44C549.739 1063.55 539.176 1067.15 527.21 1070.45C515.244 1073.74 504.477 1076.97 503.287 1077.63C501.668 1078.52 502.511 1086.71 506.62 1110.01L512.119 1141.2L533.248 1139.73C567.379 1137.36 565.467 1137.02 569.74 1146.2C571.793 1150.61 577.448 1159.95 582.309 1166.94C587.168 1173.94 591.246 1180.25 591.372 1180.96C591.498 1181.67 586.143 1192.1 579.473 1204.14L567.345 1226.02L573.649 1231.63C577.116 1234.71 588.825 1243.21 599.671 1250.52L619.389 1263.8L628.449 1253.48C633.432 1247.8 641.306 1238.94 645.947 1233.79L654.385 1224.43L667.762 1228.13C675.119 1230.17 685.919 1232.54 691.76 1233.4C704.362 1235.25 704.323 1235.19 712.696 1264.76L718.737 1286.1L750.228 1280.03L781.719 1273.95L779.932 1248.13L778.147 1222.31L786.912 1217.63C791.734 1215.06 801.578 1208.93 808.786 1204L821.893 1195.03L842.449 1206.23C853.754 1212.38 864.324 1218.12 865.936 1218.97C868.259 1220.2 872.539 1214.95 886.495 1193.78L904.121 1167.05L885.26 1150.65C874.887 1141.64 866.289 1133.62 866.152 1132.85C866.016 1132.08 867.9 1123.43 870.339 1113.63C872.779 1103.84 874.819 1093.05 874.872 1089.67C874.981 1082.64 874.128 1083.07 906.642 1073.83L927.051 1068.03L920.978 1036.53L914.905 1005.03L888.77 1006.78L862.635 1008.54L856.477 997.255C853.09 991.05 847.358 982.028 843.74 977.208C840.122 972.387 836.978 967.376 836.754 966.072C836.53 964.769 841.512 954.23 847.824 942.653C854.136 931.075 859.157 920.759 858.981 919.726C858.566 917.301 810.397 883.611 807.961 884.04C806.945 884.22 798.733 892.89 789.709 903.308L773.302 922.249L760.067 918.314C752.788 916.15 742.01 913.708 736.115 912.891C730.22 912.073 724.929 911.113 724.357 910.759C723.785 910.404 720.059 898.975 716.077 885.362L708.836 860.612L678 865.528C661.04 868.233 646.854 871.225 646.474 872.177ZM716.645 982.848C744.293 983.801 770.132 997.664 786.939 1020.56L796.327 1033.35L800.574 1057.43C804.81 1081.46 804.811 1081.56 800.462 1097.23C788.851 1139.08 749.742 1166.8 707.155 1163.37C690.687 1162.04 677.111 1156.99 662.173 1146.64C603.53 1106.02 613.693 1016.52 680.034 989.332C694.215 983.521 701.043 982.311 716.645 982.848Z" fill="#202020"/>
<path fill-rule="evenodd" clip-rule="evenodd" d="M1076.46 814.214C1075.95 815.636 1077.14 830.954 1079.1 848.252C1083.33 885.614 1082.59 891.641 1073.2 896.148C1069.29 898.025 1055.92 906.708 1043.49 915.441C1030.34 924.681 1019.27 930.757 1017 929.975C1014.87 929.237 1000.18 922.112 984.37 914.147C968.558 906.179 954.527 899.893 953.188 900.178C951.852 900.462 939.906 917.473 926.642 937.978C909.717 964.148 903.291 976.437 905.088 979.206C906.496 981.376 919.393 992.735 933.746 1004.45L959.847 1025.74L954.785 1048.6C951.998 1061.17 949.284 1076.95 948.747 1083.67C948.212 1090.39 946.687 1097.26 945.356 1098.94C944.029 1100.62 928.681 1106.46 911.252 1111.92C893.823 1117.38 878.156 1122.68 876.439 1123.71C874.105 1125.1 875.764 1137.1 883.003 1171.15L892.693 1216.74L923.689 1213.5C973.761 1208.26 970.932 1207.86 977.687 1221.14C980.933 1227.52 989.729 1240.95 997.237 1250.99C1004.74 1261.03 1011.06 1270.1 1011.28 1271.14C1011.51 1272.18 1004.17 1287.8 994.976 1305.84L978.265 1338.65L987.822 1346.56C993.079 1350.92 1010.74 1362.81 1027.06 1373L1056.74 1391.53L1069.53 1375.88C1076.57 1367.28 1087.69 1353.84 1094.26 1346.03L1106.18 1331.83L1126.05 1336.59C1136.97 1339.21 1152.97 1342.14 1161.61 1343.1C1180.24 1345.18 1180.18 1345.09 1194.01 1388.15L1203.99 1419.22L1249.99 1408.67L1295.99 1398.12L1292.03 1360.24L1288.08 1322.35L1300.73 1315.03C1307.69 1311.01 1321.85 1301.48 1332.2 1293.85L1351.01 1280L1381.82 1295.41C1398.76 1303.88 1414.6 1311.77 1417.01 1312.94C1420.49 1314.62 1426.52 1306.69 1445.95 1274.84L1470.5 1234.62L1441.92 1211.48C1426.2 1198.75 1413.15 1187.41 1412.91 1186.28C1412.67 1185.15 1414.99 1172.34 1418.08 1157.8C1421.16 1143.27 1423.61 1127.31 1423.51 1122.33C1423.31 1111.99 1422.08 1112.66 1469.42 1097.4L1499.14 1087.82L1488.59 1041.81L1478.04 995.8L1439.69 999.722L1401.35 1003.64L1391.71 987.37C1386.42 978.419 1377.52 965.446 1371.95 958.542C1366.39 951.639 1361.51 944.431 1361.11 942.525C1360.71 940.62 1367.5 924.866 1376.19 907.516C1384.87 890.166 1391.73 874.736 1391.42 873.227C1390.68 869.682 1318.11 822.611 1314.55 823.368C1313.07 823.683 1301.44 836.856 1288.7 852.639L1265.55 881.338L1245.88 876.23C1235.06 873.421 1219.09 870.384 1210.38 869.485C1201.67 868.585 1193.84 867.445 1192.98 866.954C1192.12 866.46 1186.05 849.844 1179.5 830.029L1167.58 794.004L1122.48 802.817C1097.68 807.666 1076.97 812.795 1076.46 814.214ZM1185.34 973.364C1226.05 973.345 1264.76 992.406 1290.65 1025.22L1305.11 1043.54L1312.59 1078.74C1320.06 1113.85 1320.06 1114 1314.47 1137.27C1299.55 1199.41 1243.46 1242.19 1180.65 1239.32C1156.37 1238.22 1136.14 1231.49 1113.64 1217.04C1025.32 1160.31 1035.66 1028.17 1131.83 984.78C1152.39 975.506 1162.37 973.376 1185.34 973.364Z" fill="#5E5E5E"/>
<path fill-rule="evenodd" clip-rule="evenodd" d="M-248.894 656.823C-248.941 658.426 -242.716 673.502 -235.064 690.324C-218.533 726.659 -217.305 732.987 -225.304 740.617C-228.639 743.796 -239.291 756.95 -248.976 769.845C-259.224 783.488 -268.407 793.255 -270.947 793.208C-273.347 793.163 -290.511 790.787 -309.089 787.932C-327.668 785.075 -343.896 783.331 -345.155 784.058C-346.412 784.783 -352.892 805.877 -359.558 830.932C-368.06 862.907 -370.517 877.423 -367.794 879.63C-365.661 881.359 -348.913 888.596 -330.578 895.714L-297.239 908.653L-294.852 933.389C-293.542 946.994 -291.105 963.821 -289.442 970.784C-287.777 977.745 -287.063 985.181 -287.856 987.312C-288.646 989.441 -302.227 1000.37 -318.034 1011.6C-333.839 1022.83 -347.917 1033.33 -349.315 1034.93C-351.215 1037.1 -345.604 1048.67 -327.122 1080.68L-302.385 1123.52L-272.153 1110.08C-223.315 1088.37 -226.302 1088.89 -215.125 1100.08C-209.754 1105.46 -196.467 1116.14 -185.593 1123.81C-174.722 1131.49 -165.365 1138.57 -164.8 1139.55C-164.235 1140.53 -166.522 1158.7 -169.882 1179.93L-175.993 1218.54L-163.746 1223.39C-157.01 1226.07 -135.28 1232.28 -115.454 1237.22L-79.4113 1246.18L-71.6275 1226.19C-67.345 1215.19 -60.5202 1197.98 -56.4592 1187.94L-49.0748 1169.69L-27.4578 1167.98C-15.5686 1167.04 1.55066 1164.75 10.5835 1162.89C30.0718 1158.87 29.984 1158.81 58.075 1197.74L78.3424 1225.84L121.326 1200.1L164.31 1174.36L147.889 1137.4L131.471 1100.45L141.842 1088.91C147.548 1082.56 158.719 1068.29 166.665 1057.2L181.116 1037.04L217.272 1042.49C237.158 1045.48 255.739 1048.26 258.56 1048.64C262.625 1049.2 266.106 1039.22 275.283 1000.69L286.872 952.025L250.426 938.034C230.38 930.338 213.478 923.174 212.865 922.111C212.253 921.052 210.397 907.35 208.743 891.662C207.09 875.977 204.322 859.056 202.592 854.059C198.997 843.686 197.973 844.767 240.765 813.829L267.625 794.41L241.88 751.416L216.136 708.422L178.708 724.961L141.28 741.5L126.212 728.23C117.925 720.931 104.691 710.749 96.8046 705.606C88.9178 700.462 81.6253 694.786 80.5996 692.992C79.5739 691.198 81.2568 673.067 84.3367 652.699C87.4167 632.331 89.2752 614.503 88.4646 613.082C86.5607 609.743 -2.15094 586.024 -5.49689 587.956C-6.89251 588.762 -14.3154 605.878 -21.9964 625.992L-35.9604 662.564L-57.4923 663.858C-69.3336 664.571 -86.46 666.745 -95.5504 668.695C-104.641 670.644 -112.921 672.062 -113.949 671.848C-114.979 671.631 -126.555 656.845 -139.675 638.989L-163.527 606.526L-206.166 630.218C-229.618 643.25 -248.845 655.223 -248.894 656.823ZM-86.7539 781.793C-45.658 768.419 -0.319538 774.964 36.5866 799.596L57.1999 813.352L76.3022 846.438C95.3577 879.444 95.411 879.589 97.401 904.918C102.716 972.554 60.1175 1034.15 -4.23474 1051.86C-29.1181 1058.71 -51.744 1058.55 -79.2018 1051.34C-186.991 1023.04 -219.894 886.228 -137.033 810.872C-119.321 794.765 -109.944 789.341 -86.7539 781.793Z" fill="#5E5E5E"/>
<path fill-rule="evenodd" clip-rule="evenodd" d="M1798.22 -56.3489C1797.45 -55.0993 1795.48 -40.2859 1793.85 -23.4345C1790.32 12.966 1788.39 18.5492 1778.55 20.9385C1774.45 21.9334 1759.97 27.4898 1746.38 33.2848C1732 39.415 1720.24 42.9574 1718.25 41.7561C1716.37 40.6217 1703.84 30.874 1690.4 20.0992C1676.97 9.32168 1664.9 0.50446 1663.56 0.50446C1662.24 0.50446 1647.43 14.272 1630.67 31.0966C1609.27 52.5711 1600.67 62.9625 1601.82 65.9605C1602.72 68.3096 1612.7 81.7232 1623.98 95.7696L1644.51 121.307L1635.07 142.025C1629.88 153.419 1624.1 167.887 1622.23 174.173C1620.37 180.458 1617.53 186.685 1615.92 188.013C1614.32 189.34 1598.54 191.791 1580.85 193.459C1563.17 195.13 1547.19 197.009 1545.35 197.637C1542.85 198.49 1542 210.238 1542 244.102L1542 289.427L1572.14 292.61C1620.84 297.753 1618.23 296.801 1621.97 310.802C1623.77 317.528 1629.42 332.086 1634.53 343.156C1639.64 354.223 1643.82 364.129 1643.82 365.164C1643.82 366.199 1633.68 379.57 1621.29 394.877L1598.76 422.707L1606.25 432.17C1610.37 437.375 1624.76 452.264 1638.23 465.259L1662.72 488.881L1678.05 476.583C1686.49 469.82 1699.79 459.292 1707.61 453.186L1721.83 442.087L1739.76 450.633C1749.63 455.334 1764.26 461.357 1772.28 464.017C1789.58 469.759 1789.54 469.667 1793.99 513.429L1797.2 545L1843.1 544.268L1888.99 543.536L1892.89 506.695L1896.79 469.855L1910.3 465.449C1917.74 463.025 1933.14 456.822 1944.52 451.663L1965.22 442.285L1991.41 463.173C2005.82 474.658 2019.29 485.368 2021.35 486.969C2024.32 489.276 2031.66 482.947 2056.59 456.581L2088.07 423.281L2065.56 395.485C2053.19 380.197 2043.06 366.77 2043.06 365.647C2043.06 364.526 2047.86 352.804 2053.74 339.6C2059.61 326.398 2065.16 311.706 2066.08 306.948C2067.98 297.072 2066.67 297.461 2114.79 292.516L2145 289.413L2144.27 243.509L2143.54 197.605L2106.27 193.582L2068.99 189.56L2063.12 172.129C2059.89 162.542 2054.05 148.402 2050.15 140.708C2046.25 133.015 2043.06 125.171 2043.07 123.278C2043.08 121.385 2052.72 107.77 2064.49 93.0209C2076.27 78.2719 2085.91 64.979 2085.92 63.48C2085.93 59.959 2026.42 0.504458 2022.88 0.504458C2021.4 0.504458 2007.67 10.6839 1992.36 23.1241L1964.53 45.7437L1946.85 36.9077C1937.13 32.0486 1922.55 25.9291 1914.44 23.3118C1906.34 20.6945 1899.12 18.0263 1898.4 17.3854C1897.68 16.7418 1895.27 -0.291987 1893.04 -20.4686L1888.99 -57.1507L1844.31 -57.8855C1819.73 -58.2877 1798.99 -57.5959 1798.22 -56.3489ZM1869.62 117.073C1908.35 125.286 1941.32 151.247 1959.32 187.696L1969.37 208.052L1969.37 243.053C1969.37 277.968 1969.35 278.107 1959.32 299.115C1932.56 355.213 1870.55 384.566 1811.38 369.141C1788.5 363.177 1770.62 352.689 1752.14 334.392C1679.58 262.565 1716.15 138.944 1816.41 117.113C1837.84 112.447 1847.76 112.439 1869.62 117.073Z" fill="#A8A8A8"/>
</g>
</svg>
