<svg width="426" height="427" viewBox="0 0 426 427" fill="none" xmlns="http://www.w3.org/2000/svg">
<path fill-rule="evenodd" clip-rule="evenodd" d="M144.474 12.1771C144.095 13.1306 144.539 23.5625 145.458 35.3565C147.447 60.8324 146.8 64.9077 140.318 67.746C137.616 68.9283 128.328 74.5083 119.68 80.1448C110.528 86.108 102.866 89.9725 101.348 89.3877C99.9143 88.8357 90.1101 83.6483 79.5599 77.8638C69.0094 72.0774 59.6297 67.4754 58.7134 67.6369C57.7989 67.7982 49.2825 79.068 39.7874 92.6795C27.6723 110.052 23.0165 118.246 24.1712 120.169C25.0758 121.677 33.5658 129.697 43.036 137.993L60.2578 153.075L56.2779 168.477C54.0872 176.947 51.8692 187.603 51.3449 192.155C50.8225 196.707 49.6236 201.337 48.6803 202.445C47.7388 203.553 37.1763 207.154 25.2098 210.447C13.2437 213.743 2.47734 216.975 1.2868 217.63C-0.331812 218.52 0.511008 226.707 4.6198 250.009L10.1192 281.198L31.2479 279.731C65.3788 277.362 63.4674 277.024 67.7401 286.204C69.7933 290.614 75.4482 299.946 80.3093 306.943C85.1682 313.939 89.2464 320.248 89.372 320.96C89.4976 321.673 84.143 332.103 77.4728 344.14L65.3453 366.024L71.6487 371.627C75.1159 374.708 86.8253 383.207 97.6707 390.515L117.389 403.799L126.449 393.476C131.432 387.798 139.306 378.94 143.947 373.79L152.385 364.427L165.762 368.132C173.119 370.17 183.919 372.539 189.76 373.396C202.362 375.248 202.323 375.19 210.696 404.763L216.737 426.098L248.228 420.025L279.719 413.953L277.932 388.13L276.147 362.306L284.912 357.635C289.734 355.064 299.578 348.928 306.786 343.996L319.893 335.031L340.449 346.227C351.754 352.382 362.324 358.118 363.936 358.969C366.259 360.196 370.539 354.951 384.495 333.783L402.121 307.048L383.26 290.653C372.887 281.635 364.289 273.625 364.152 272.852C364.016 272.08 365.9 263.432 368.339 253.633C370.779 243.836 372.819 233.052 372.872 229.667C372.981 222.64 372.128 223.067 404.642 213.825L425.051 208.025L418.978 176.527L412.905 145.028L386.77 146.782L360.635 148.537L354.477 137.255C351.09 131.05 345.358 122.028 341.74 117.208C338.122 112.387 334.978 107.376 334.754 106.072C334.53 104.769 339.512 94.2304 345.824 82.6529C352.136 71.0753 357.157 60.7586 356.981 59.7261C356.566 57.301 308.397 23.611 305.961 24.0405C304.945 24.2196 296.733 32.8901 287.709 43.3077L271.302 62.2494L258.067 58.314C250.788 56.1498 240.01 53.7085 234.115 52.8909C228.22 52.0734 222.929 51.1132 222.357 50.7593C221.785 50.4036 218.059 38.975 214.077 25.3616L206.836 0.612018L176 5.52789C159.04 8.23298 144.854 11.2254 144.474 12.1771ZM214.645 122.848C242.293 123.801 268.132 137.664 284.939 160.561L294.327 173.349L298.574 197.433C302.81 221.459 302.811 221.558 298.462 237.23C286.851 279.079 247.742 306.801 205.155 303.366C188.687 302.038 175.111 296.991 160.173 286.643C101.53 246.021 111.693 156.519 178.034 129.332C192.215 123.521 199.043 122.311 214.645 122.848Z" fill="#202020"/>
</svg>
