<svg width="603" height="603" viewBox="0 0 603 603" fill="none" xmlns="http://www.w3.org/2000/svg">
<path fill-rule="evenodd" clip-rule="evenodd" d="M256.22 1.65109C255.448 2.90073 253.482 17.7141 251.847 34.5655C248.318 70.966 246.394 76.5492 236.553 78.9385C232.451 79.9334 217.973 85.4898 204.383 91.2848C190.003 97.415 178.243 100.957 176.249 99.7561C174.365 98.6217 161.836 88.874 148.404 78.0992C134.972 67.3217 122.896 58.5045 121.564 58.5045C120.235 58.5045 105.431 72.272 88.6657 89.0966C67.273 110.571 58.6746 120.962 59.8241 123.961C60.7244 126.31 70.6974 139.723 81.9832 153.77L102.508 179.307L93.0708 200.025C87.878 211.419 82.1038 225.887 80.2335 232.173C78.3659 238.458 75.5257 244.685 73.9207 246.013C72.3184 247.34 56.5364 249.791 38.8521 251.459C21.1677 253.13 5.1901 255.009 3.34932 255.637C0.846708 256.49 1.44674e-06 268.238 1.62938e-06 302.102L1.87384e-06 347.427L30.1438 350.61C78.8375 355.753 76.2277 354.801 79.9682 368.802C81.7662 375.527 87.4171 390.086 92.5295 401.156C97.6392 412.223 101.819 422.129 101.819 423.164C101.819 424.199 91.6801 437.57 79.2877 452.877L56.7562 480.707L64.2479 490.17C68.3689 495.375 82.7602 510.264 96.2299 523.259L120.72 546.881L136.055 534.583C144.489 527.82 157.788 517.292 165.609 511.186L179.829 500.087L197.762 508.633C207.625 513.334 222.258 519.357 230.277 522.017C247.579 527.759 247.539 527.667 251.989 571.429L255.202 603L301.095 602.268L346.989 601.536L350.888 564.695L354.789 527.855L368.304 523.449C375.74 521.025 391.138 514.822 402.523 509.663L423.225 500.285L449.414 521.173C463.819 532.658 477.291 543.368 479.351 544.969C482.32 547.276 489.656 540.947 514.586 514.581L546.072 481.281L523.565 453.485C511.186 438.197 501.058 424.77 501.058 423.647C501.058 422.526 505.862 410.804 511.735 397.6C517.609 384.398 523.163 369.706 524.079 364.948C525.979 355.072 524.672 355.461 572.794 350.516L603 347.413L602.268 301.509L601.537 255.605L564.266 251.582L526.995 247.56L521.119 230.129C517.887 220.542 512.051 206.402 508.15 198.708C504.249 191.015 501.063 183.171 501.071 181.278C501.079 179.385 510.72 165.77 522.493 151.021C534.267 136.272 543.907 122.979 543.915 121.48C543.934 117.959 484.415 58.5045 480.876 58.5045C479.4 58.5045 465.67 68.6839 450.362 81.1241L422.531 103.744L404.854 94.9077C395.133 90.0486 380.549 83.9291 372.444 81.3118C364.339 78.6945 357.12 76.0263 356.402 75.3854C355.684 74.7418 353.272 57.708 351.043 37.5314L346.989 0.849278L302.307 0.11451C277.731 -0.287735 256.992 0.404127 256.22 1.65109ZM327.617 175.073C366.348 183.286 399.321 209.247 417.319 245.696L427.373 266.052L427.373 301.053C427.373 335.968 427.349 336.107 417.325 357.115C390.56 413.213 328.549 442.566 269.379 427.141C246.499 421.177 228.619 410.689 210.136 392.392C137.579 320.565 174.146 196.944 274.405 175.113C295.836 170.447 305.76 170.439 327.617 175.073Z" fill="#A8A8A8"/>
</svg>
