<svg width="423" height="424" viewBox="0 0 423 424" fill="none" xmlns="http://www.w3.org/2000/svg">
<path fill-rule="evenodd" clip-rule="evenodd" d="M126.227 17.8277C125.932 18.8106 127.284 29.1642 129.228 40.8331C133.429 66.0388 133.14 70.1549 126.93 73.5473C124.341 74.9607 115.575 81.3289 107.451 87.6978C98.8538 94.4358 91.5573 98.9535 89.9946 98.5031C88.5181 98.0782 78.2991 93.7651 67.2849 88.922C56.2703 84.0772 46.5252 80.3102 45.6264 80.551C44.7294 80.7914 37.2277 92.7606 28.955 107.148C18.4002 125.51 14.4762 134.078 15.7942 135.894C16.8266 137.317 25.9833 144.566 36.1406 152.005L54.6114 165.529L51.9889 181.219C50.5448 189.849 49.264 200.657 49.1385 205.238C49.0148 209.818 48.2239 214.534 47.3807 215.72C46.5393 216.906 36.331 221.414 24.6971 225.738C13.0636 230.064 2.61999 234.222 1.49109 234.978C-0.0437603 236.007 1.50939 244.089 7.63346 266.944L15.8302 297.535L36.7506 294.232C70.5452 288.897 68.6116 288.727 73.6681 297.5C76.0979 301.714 82.5447 310.518 87.997 317.064C93.4471 323.61 98.0597 329.54 98.2469 330.238C98.4341 330.937 94.009 341.795 88.4132 354.367L78.2392 377.224L85.0069 382.257C88.7296 385.024 101.135 392.47 112.576 398.805L133.377 410.32L141.503 399.246C145.972 393.156 153.044 383.646 157.218 378.11L164.808 368.048L178.458 370.572C185.965 371.962 196.93 373.38 202.823 373.725C215.538 374.472 215.495 374.417 226.413 403.148L234.29 423.875L265.133 415.081L295.975 406.288L291.944 380.718L287.914 355.148L296.239 349.731C300.819 346.75 310.09 339.779 316.841 334.238L329.117 324.165L350.57 333.526C362.369 338.672 373.399 343.465 375.079 344.173C377.5 345.192 381.307 339.594 393.364 317.291L408.593 289.122L388.376 274.432C377.256 266.353 367.992 259.122 367.789 258.364C367.586 257.607 368.709 248.828 370.285 238.854C371.861 228.881 372.953 217.96 372.711 214.584C372.207 207.574 371.395 208.073 402.98 196.033L422.805 188.477L414.01 157.627L405.215 126.778L379.332 130.803L353.45 134.829L346.332 124.127C342.417 118.241 335.921 109.753 331.897 105.266C327.872 100.779 324.304 96.0608 323.967 94.7816C323.63 93.5024 327.674 82.5701 332.953 70.4865C338.232 58.4029 342.335 47.6878 342.069 46.6746C341.445 44.2948 290.523 14.9313 288.134 15.5714C287.137 15.8384 279.712 25.1917 271.63 36.3561L256.937 56.6557L243.408 53.8888C235.969 52.3673 225.019 50.8745 219.075 50.5739C213.131 50.2733 207.777 49.7778 207.176 49.4751C206.575 49.1706 201.867 38.1103 196.714 24.8958L187.344 0.871411L157.054 8.4561C140.394 12.629 126.522 16.8465 126.227 17.8277ZM205.776 121.962C233.402 120.501 260.352 132.06 279.091 153.405L289.557 165.326L295.887 188.948C302.201 212.513 302.21 212.612 299.244 228.603C291.324 271.305 254.78 302.33 212.056 302.62C195.535 302.733 181.571 298.888 165.787 289.881C103.828 254.525 106.151 164.478 169.87 131.612C183.49 124.587 190.187 122.787 205.776 121.962Z" fill="#776D6D"/>
</svg>
