<svg width="656" height="660" viewBox="0 0 656 660" fill="none" xmlns="http://www.w3.org/2000/svg">
<path fill-rule="evenodd" clip-rule="evenodd" d="M120.106 69.8231C120.059 71.4255 126.284 86.502 133.936 103.324C150.467 139.659 151.695 145.987 143.696 153.617C140.361 156.796 129.709 169.95 120.024 182.845C109.776 196.488 100.593 206.255 98.0525 206.208C95.6528 206.163 78.489 203.787 59.911 200.932C41.3316 198.075 25.1036 196.331 23.8448 197.058C22.5885 197.783 16.1082 218.877 9.44222 243.932C0.939782 275.907 -1.51698 290.423 1.20588 292.63C3.33902 294.359 20.0872 301.596 38.4218 308.714L71.7612 321.653L74.1478 346.389C75.4578 359.994 77.8953 376.821 79.5579 383.784C81.223 390.745 81.9366 398.181 81.1438 400.312C80.3536 402.441 66.7726 413.372 50.9658 424.6C35.1605 435.831 21.0828 446.328 19.6852 447.926C17.7849 450.098 23.3964 461.666 41.8782 493.677L66.6152 536.523L96.8475 523.08C145.685 501.367 142.698 501.891 153.875 513.085C159.246 518.461 172.533 529.139 183.407 536.813C194.278 544.486 203.635 551.569 204.2 552.548C204.765 553.526 202.478 571.699 199.118 592.932L193.007 631.537L205.254 636.394C211.99 639.065 233.72 645.285 253.546 650.218L289.589 659.182L297.373 639.188C301.655 628.191 308.48 610.981 312.541 600.941L319.925 582.688L341.542 580.979C353.431 580.04 370.551 577.747 379.583 575.885C399.072 571.87 398.984 571.806 427.075 610.745L447.342 638.835L490.326 613.096L533.31 587.356L516.889 550.403L500.471 513.449L510.842 501.908C516.548 495.558 527.719 481.291 535.665 470.2L550.116 450.037L586.272 455.488C606.158 458.484 624.739 461.256 627.56 461.645C631.625 462.204 635.106 452.218 644.283 413.688L655.872 365.025L619.426 351.034C599.38 343.338 582.478 336.174 581.865 335.111C581.253 334.052 579.397 320.35 577.743 304.662C576.09 288.977 573.322 272.056 571.592 267.059C567.997 256.686 566.973 257.767 609.765 226.829L636.625 207.41L610.88 164.416L585.136 121.422L547.708 137.961L510.28 154.5L495.212 141.23C486.925 133.931 473.691 123.749 465.805 118.606C457.918 113.462 450.625 107.786 449.6 105.992C448.574 104.198 450.257 86.0666 453.337 65.6987C456.417 45.3308 458.275 27.5034 457.465 26.082C455.561 22.7433 366.849 -0.975673 363.503 0.956089C362.107 1.76188 354.685 18.8777 347.004 38.9919L333.04 75.5639L311.508 76.8584C299.666 77.5705 282.54 79.7454 273.45 81.6949C264.359 83.6445 256.079 85.0618 255.051 84.8479C254.021 84.6314 242.445 69.8455 229.325 51.9891L205.473 19.526L162.834 43.2179C139.382 56.2505 120.155 68.2232 120.106 69.8231ZM282.246 194.793C323.342 181.419 368.68 187.964 405.587 212.596L426.2 226.352L445.302 259.438C464.358 292.444 464.411 292.589 466.401 317.918C471.716 385.554 429.117 447.146 364.765 464.858C339.882 471.707 317.256 471.551 289.798 464.343C182.009 436.043 149.106 299.228 231.967 223.872C249.679 207.765 259.056 202.341 282.246 194.793Z" fill="#5E5E5E"/>
</svg>
