<svg width="512" height="514" viewBox="0 0 512 514" fill="none" xmlns="http://www.w3.org/2000/svg">
<path fill-rule="evenodd" clip-rule="evenodd" d="M113.331 34.4818C113.161 35.7425 116.823 48.1574 121.467 62.0679C131.499 92.1152 131.944 97.2111 124.998 102.569C122.102 104.802 112.604 114.299 103.891 123.673C94.6715 133.59 86.6137 140.536 84.613 140.288C82.7228 140.054 69.3741 136.755 54.949 132.961C40.523 129.165 27.8605 126.442 26.8067 126.912C25.7551 127.38 18.891 143.49 11.552 162.71C2.18949 187.24 -0.953461 198.492 1.0124 200.459C2.55244 202.001 15.1699 209.102 29.0492 216.241L54.2877 229.217L54.1194 248.937C54.0247 259.783 54.5525 273.265 55.2871 278.898C56.0239 284.53 55.9701 290.458 55.1678 292.074C54.3675 293.689 42.7426 301.188 29.3364 308.739C15.9312 316.291 3.95029 323.408 2.71474 324.553C1.03484 326.109 4.5039 335.704 16.4345 362.501L32.4032 398.367L57.3777 390.266C97.7216 377.18 95.321 377.347 103.214 387.108C107.006 391.796 116.607 401.326 124.552 408.284C132.495 415.241 139.292 421.607 139.657 422.427C140.022 423.246 136.709 437.398 132.296 453.877L124.271 483.837L133.534 488.686C138.628 491.353 155.262 498.064 170.499 503.602L198.201 513.666L206.002 498.532C210.294 490.209 217.108 477.193 221.146 469.605L228.488 455.812L245.69 456.257C255.151 456.502 268.851 456.113 276.135 455.392C291.848 453.84 291.784 453.782 310.724 486.843L324.389 510.694L360.447 493.945L396.505 477.197L386.611 446.671L376.718 416.145L385.861 407.897C390.891 403.359 400.891 393.026 408.082 384.932L421.159 370.218L449.242 377.519C464.687 381.533 479.121 385.262 481.315 385.803C484.477 386.581 488.053 378.989 498.491 349.342L511.674 311.898L484.071 297.833C468.889 290.097 456.144 283.041 455.748 282.151C455.353 281.264 455.025 270.296 455.021 257.778C455.017 245.263 454.236 231.679 453.285 227.592C451.309 219.107 450.411 219.876 486.749 199.008L509.558 185.911L492.807 149.845L476.055 113.778L445.145 123.726L414.235 133.674L403.444 121.951C397.509 115.504 387.909 106.37 382.112 101.657C376.314 96.9432 371.03 91.8587 370.369 90.3578C369.708 88.8568 372.54 74.6868 376.661 58.8679C380.781 43.0489 383.726 29.1335 383.205 27.9445C381.979 25.1517 313.935 -0.926017 311.134 0.321016C309.965 0.841167 302.687 13.7334 294.957 28.9705L280.903 56.675L263.803 55.9106C254.398 55.4904 240.702 55.7862 233.366 56.5708C226.03 57.3553 219.378 57.7871 218.584 57.5329C217.789 57.2766 209.879 44.6473 201.007 29.4667L184.875 1.86811L149.258 17.0289C129.669 25.3691 113.502 33.2232 113.331 34.4818ZM230.927 146.558C264.469 139.412 299.708 148.338 326.791 170.839L341.918 183.406L354.249 211.102C366.55 238.731 366.58 238.849 366.05 259.005C364.634 312.825 325.906 357.899 273.65 366.54C253.443 369.881 235.6 367.882 214.528 359.915C131.807 328.64 117.189 217.935 188.834 165.337C204.148 154.094 211.999 150.591 230.927 146.558Z" fill="#5E5E5E"/>
</svg>
