<svg width="625" height="626" viewBox="0 0 625 626" fill="none" xmlns="http://www.w3.org/2000/svg">
<path fill-rule="evenodd" clip-rule="evenodd" d="M201.46 20.2142C200.951 21.636 202.14 36.9544 204.098 54.2515C208.331 91.6144 207.589 97.6408 198.202 102.148C194.289 104.025 180.917 112.708 168.488 121.441C155.336 130.681 144.266 136.757 142.004 135.975C139.867 135.237 125.183 128.112 109.37 120.147C93.5576 112.179 79.5275 105.893 78.1882 106.178C76.8516 106.462 64.9061 123.473 51.6416 143.978C34.7172 170.148 28.2911 182.437 30.088 185.206C31.4957 187.376 44.393 198.735 58.7461 210.449L84.8471 231.744L79.7851 254.599C76.9984 267.168 74.2839 282.952 73.7467 289.674C73.2122 296.395 71.6868 303.264 70.3564 304.942C69.0287 306.62 53.6805 312.459 36.2516 317.917C18.8233 323.377 3.15629 328.683 1.43913 329.708C-0.895483 331.101 0.764403 343.097 8.00349 377.154L17.6927 422.738L48.6892 419.496C98.7607 414.259 95.9325 413.86 102.687 427.141C105.933 433.52 114.729 446.954 122.237 456.994C129.741 467.032 136.063 476.101 136.284 477.142C136.505 478.183 129.167 493.798 119.976 511.841L103.265 544.647L112.822 552.563C118.079 556.917 135.736 568.814 152.06 579.004L181.74 597.526L194.533 581.88C201.571 573.275 212.694 559.844 219.255 552.031L231.183 537.829L251.046 542.59C261.971 545.209 277.974 548.139 286.609 549.1C305.236 551.176 305.176 551.092 319.007 594.153L328.987 625.217L374.986 614.67L420.986 604.123L417.031 566.239L413.08 528.354L425.73 521.034C432.69 517.006 446.851 507.476 457.198 499.854L476.013 485.997L506.817 501.405C523.759 509.877 539.598 517.769 542.012 518.938C545.491 520.623 551.516 512.69 570.952 480.844L595.5 440.622L566.922 417.48C551.204 404.751 538.147 393.412 537.907 392.282C537.668 391.155 539.994 378.339 543.078 363.804C546.163 349.271 548.608 333.307 548.513 328.327C548.312 317.988 547.08 318.659 594.421 303.398L624.136 293.821L613.587 247.81L603.038 201.8L564.694 205.722L526.35 209.644L516.714 193.37C511.415 184.419 502.523 171.446 496.955 164.542C491.387 157.639 486.506 150.431 486.109 148.525C485.713 146.62 492.498 130.866 501.186 113.516C509.874 96.166 516.728 80.7362 516.415 79.2269C515.682 75.6818 443.113 28.6109 439.553 29.3675C438.069 29.6831 426.437 42.8558 413.701 58.6393L390.546 87.3378L370.879 82.23C360.064 79.4212 344.088 76.3844 335.377 75.4848C326.666 74.5853 318.836 73.4449 317.977 72.9538C317.117 72.4601 311.05 55.8445 304.495 36.0291L292.576 0.00402049L247.481 8.8169C222.679 13.666 201.969 18.7952 201.46 20.2142ZM310.337 179.364C351.046 179.345 389.757 198.406 415.65 231.215L430.112 249.539L437.594 284.74C445.058 319.854 445.064 320 439.473 343.27C424.547 405.41 368.457 448.187 305.651 445.323C281.366 444.216 261.142 437.49 238.642 423.04C150.316 366.312 160.665 234.168 256.83 190.78C277.386 181.506 287.365 179.376 310.337 179.364Z" fill="#5E5E5E"/>
</svg>
