<svg width="335" height="913" viewBox="0 0 335 913" fill="none" xmlns="http://www.w3.org/2000/svg">
<path d="M325 90.0866V70C325 36.8629 298.137 10 265 10H10.217C9.92767 10 9.92766 903 10.217 903H265.022C298.159 903 325 876.137 325 843V771.932C325 755.972 318.641 740.67 307.33 729.41L206.387 628.924C183.123 605.765 182.788 568.211 205.635 544.641L285.04 462.723C307.389 439.668 307.625 403.105 285.577 379.763L208.363 298.016C184.568 272.824 187 232.769 213.669 210.641L303.313 136.262C317.051 124.863 325 107.938 325 90.0866Z" stroke="white" stroke-width="20"/>
</svg>
