<svg width="122" height="123" viewBox="0 0 122 123" fill="none" xmlns="http://www.w3.org/2000/svg">
<rect y="0.122559" width="122" height="122" rx="40" fill="#06C755"/>
<path fill-rule="evenodd" clip-rule="evenodd" d="M59.4546 22.0884C59.3321 22.0954 58.9148 22.1188 58.5271 22.1406C45.3189 22.8797 33.2585 28.8618 26.3302 38.1106C23.2597 42.2095 21.3528 46.7123 20.6704 51.4753C20.4583 52.9561 20.4287 53.4237 20.4277 55.3082C20.4272 56.4333 20.4436 57.2115 20.475 57.5502C20.6316 59.2418 20.8498 60.553 21.2243 62.0529C23.7275 72.078 31.8341 80.6216 43.1498 85.1603C46.5552 86.5262 50.2913 87.5258 54.0196 88.0683C55.8984 88.3417 57.2753 88.8871 57.9763 89.6358C58.4751 90.1683 58.6505 90.9163 58.6085 92.3304C58.5808 93.2597 58.5449 93.5358 58.1356 95.9622C57.8783 97.4877 57.7905 98.0952 57.7769 98.4451C57.7426 99.3333 57.9583 99.815 58.5054 100.071C58.7012 100.163 58.7432 100.168 59.2691 100.166C59.7723 100.163 59.8675 100.152 60.2631 100.045C61.3433 99.7554 62.7846 99.0616 65.2419 97.6485C70.1842 94.8066 76.635 90.4854 81.6825 86.6353C87.6476 82.0854 91.7176 78.3324 95.1592 74.2084C99.2059 69.3591 101.564 64.3712 102.3 59.1067C102.497 57.6928 102.525 57.2329 102.525 55.3452C102.525 53.4196 102.496 52.9686 102.282 51.4753C101.318 44.7432 97.8514 38.4471 92.3053 33.3544C86.5373 28.0579 78.9425 24.4013 70.5163 22.8636C68.6171 22.517 66.8815 22.3068 64.5185 22.1373C63.9836 22.0989 59.9518 22.06 59.4546 22.0884ZM37.8081 46.4926C37.9967 46.549 38.1999 46.7196 38.2909 46.8978C38.363 47.0388 38.3641 47.1494 38.3641 54.232V61.4229L42.3058 61.4257C44.4737 61.4272 46.2872 61.4358 46.3356 61.4447C46.6084 61.495 46.901 61.7565 46.9697 62.0113C46.9953 62.1064 47.0087 62.7228 47.0072 63.7411C47.0051 65.2381 47.001 65.3308 46.932 65.4659C46.8524 65.6218 46.6175 65.8753 46.5839 65.8416C46.5723 65.8301 46.5628 65.8365 46.5628 65.856C46.5628 65.8754 46.5253 65.8986 46.4794 65.9076C46.3703 65.9289 34.5129 65.9289 34.4038 65.9076C34.3579 65.8986 34.3203 65.882 34.3203 65.8706C34.3203 65.8592 34.2618 65.8183 34.1903 65.7799C34.1023 65.7326 34.0303 65.6486 33.9674 65.5203L33.8746 65.3307L33.875 56.1987L33.8754 47.0667L33.9535 46.9056C34.0314 46.7448 34.2715 46.5181 34.3807 46.5021C34.4124 46.4974 34.4474 46.4847 34.4583 46.4738C34.5008 46.4313 37.6624 46.449 37.8081 46.4926ZM53.3437 46.4945C53.5637 46.5499 53.835 46.8109 53.9001 47.0297C53.9619 47.2378 53.9662 65.1443 53.9044 65.3697C53.8782 65.4654 53.8007 65.5791 53.6858 65.6905C53.422 65.9462 53.3757 65.9516 51.5711 65.9376L50.0315 65.9256L49.8545 65.8217C49.7571 65.7645 49.6319 65.649 49.5763 65.565L49.4751 65.4122L49.4656 56.2343L49.4561 47.0564L49.5426 46.8927C49.6388 46.7107 49.8634 46.5332 50.0547 46.4881C50.2636 46.4388 53.1446 46.4444 53.3437 46.4945ZM60.6783 46.504C60.75 46.5339 60.8087 46.5508 60.8087 46.5414C60.8087 46.4648 61.143 46.8702 61.6967 47.6184C62.0587 48.1075 63.1285 49.5501 64.074 50.824C65.0195 52.0979 66.0711 53.5154 66.4107 53.974C66.7504 54.4326 67.4681 55.3999 68.0055 56.1235C68.5429 56.847 69.0424 57.5219 69.1156 57.6232L69.2486 57.8072L69.2671 52.4163C69.2849 47.2459 69.2885 47.0197 69.355 46.886C69.414 46.7674 69.5203 46.6574 69.6952 46.5338C69.7797 46.4741 69.9006 46.4692 71.4992 46.4604C73.1536 46.4514 73.1565 46.4515 73.3126 46.5346C73.5396 46.6552 73.7082 46.8689 73.755 47.095C73.7822 47.2264 73.7913 50.0614 73.7844 56.3088L73.7746 65.3327L73.6933 65.4844C73.5866 65.6837 73.3846 65.8573 73.2026 65.9063C73.1093 65.9314 72.4757 65.9448 71.4548 65.9434C70.0631 65.9414 69.8418 65.9334 69.7643 65.8828C69.7153 65.8507 69.6747 65.8389 69.6741 65.8565C69.6735 65.8742 69.656 65.8594 69.6351 65.8237C69.6143 65.788 69.5731 65.7589 69.5435 65.7589C69.5139 65.7589 69.4897 65.7463 69.4897 65.7311C69.4897 65.7158 69.4471 65.6538 69.395 65.5934C69.343 65.5329 69.2665 65.4287 69.2251 65.3617C69.1837 65.2948 69.1335 65.24 69.1135 65.24C69.0936 65.24 69.0869 65.2245 69.0986 65.2055C69.1104 65.1865 69.0821 65.1445 69.0359 65.1121C68.9896 65.0798 68.9601 65.0469 68.9703 65.0391C68.9805 65.0313 68.9342 64.9649 68.8674 64.8916C68.8006 64.8183 68.7572 64.7583 68.7711 64.7583C68.7849 64.7583 68.7577 64.7249 68.7107 64.6841C68.6636 64.6434 68.6386 64.61 68.655 64.61C68.6714 64.61 68.6464 64.5767 68.5994 64.5359C68.5523 64.4951 68.5289 64.4615 68.5473 64.4612C68.5657 64.4609 68.564 64.4484 68.5434 64.4334C68.5228 64.4185 68.4644 64.3438 68.4135 64.2675C68.3627 64.1912 68.3086 64.1287 68.2933 64.1285C68.278 64.1284 68.2655 64.1027 68.2655 64.0715C68.2655 64.0403 68.2404 64.0051 68.2098 63.9934C68.1792 63.9817 68.1542 63.9488 68.1542 63.9205C68.1542 63.8921 68.137 63.8688 68.1159 63.8688C68.0949 63.8688 68.0665 63.8397 68.0529 63.804C68.0296 63.7432 68.0075 63.7112 67.9117 63.5989C67.8905 63.5741 67.8004 63.4496 67.7115 63.3222C67.6226 63.1948 67.5328 63.0906 67.5119 63.0906C67.4911 63.0906 67.4847 63.0799 67.4978 63.0668C67.5198 63.0449 67.2574 62.6993 67.1716 62.6372C67.1509 62.6222 67.149 62.6097 67.1675 62.6094C67.1859 62.6091 67.1625 62.5755 67.1154 62.5347C67.0684 62.4939 67.0449 62.4603 67.0634 62.46C67.0818 62.4597 67.0801 62.4472 67.0597 62.4322C67.0392 62.4173 66.9743 62.3341 66.9155 62.2475C66.8567 62.1609 66.7931 62.09 66.7743 62.09C66.7555 62.09 66.7504 62.0732 66.7631 62.0527C66.7759 62.0321 66.7601 62.0054 66.7282 61.9931C66.6964 61.9809 66.6702 61.9471 66.6702 61.9181C66.6702 61.8891 66.6452 61.8557 66.6146 61.844C66.584 61.8323 66.5589 61.807 66.5589 61.788C66.5589 61.7689 66.542 61.7332 66.5211 61.7086C66.3904 61.5537 66.3271 61.4705 66.2033 61.291C66.1269 61.1801 66.0494 61.0894 66.0312 61.0894C66.013 61.0894 66.0077 61.0739 66.0195 61.0549C66.0312 61.0359 66.0094 60.9984 65.971 60.9715C65.9326 60.9446 65.9031 60.9118 65.9054 60.8985C65.9078 60.8852 65.8551 60.8143 65.7883 60.741C65.7214 60.6676 65.6781 60.6076 65.6919 60.6076C65.7057 60.6076 65.6785 60.5743 65.6315 60.5335C65.5844 60.4927 65.5575 60.4594 65.5716 60.4594C65.5857 60.4594 65.5758 60.4338 65.5494 60.4025C65.4439 60.277 65.4238 60.2503 65.3347 60.1168C65.2836 60.0405 65.2294 59.978 65.2141 59.9779C65.1988 59.9777 65.1863 59.959 65.1863 59.9362C65.1863 59.9134 65.1404 59.841 65.0843 59.7753C65.0281 59.7096 64.9572 59.6178 64.9266 59.5713C64.896 59.5248 64.8536 59.468 64.8325 59.445C64.8113 59.422 64.7213 59.299 64.6323 59.1716C64.5434 59.0442 64.4554 58.94 64.4368 58.94C64.4181 58.94 64.4125 58.9244 64.4242 58.9054C64.4359 58.8864 64.4082 58.8448 64.3625 58.8128C64.3168 58.7808 64.2946 58.7547 64.3132 58.7547C64.3318 58.7547 64.3147 58.7233 64.2751 58.6851C64.1658 58.5793 64.0712 58.4582 64.0979 58.4582C64.1111 58.4582 64.0833 58.4248 64.0362 58.3841C63.9892 58.3433 63.9658 58.3097 63.9842 58.3094C64.0026 58.3091 64.0009 58.2966 63.9803 58.2816C63.9597 58.2666 63.9012 58.192 63.8504 58.1157C63.7996 58.0393 63.7455 57.9768 63.7302 57.9767C63.7149 57.9765 63.7024 57.9509 63.7024 57.9197C63.7024 57.8884 63.6773 57.8533 63.6467 57.8416C63.6161 57.8298 63.5911 57.7988 63.5911 57.7726C63.5911 57.7464 63.566 57.7153 63.5354 57.7036C63.5048 57.6919 63.4798 57.6644 63.4798 57.6425C63.4798 57.606 63.4629 57.581 63.3485 57.447C63.3274 57.4223 63.2373 57.2978 63.1484 57.1704C63.0595 57.043 62.9715 56.9388 62.9528 56.9388C62.9342 56.9388 62.9285 56.9232 62.9403 56.9042C62.952 56.8852 62.9302 56.8477 62.8918 56.8208C62.8534 56.794 62.8212 56.7582 62.8202 56.7412C62.8193 56.7243 62.7665 56.6534 62.7031 56.5837C62.6396 56.514 62.5989 56.457 62.6127 56.457C62.6265 56.457 62.5993 56.4236 62.5523 56.3829C62.5053 56.3421 62.4788 56.3088 62.4936 56.3088C62.5084 56.3088 62.4984 56.2858 62.4715 56.2577C62.4445 56.2296 62.3974 56.1685 62.3668 56.1219C62.3362 56.0752 62.2833 56.0079 62.2493 55.9722C62.2153 55.9365 62.1969 55.8979 62.2082 55.8865C62.2197 55.8751 62.2016 55.8553 62.1681 55.8424C62.1345 55.8296 62.1071 55.7953 62.1071 55.7663C62.1071 55.7372 62.0821 55.7039 62.0515 55.6922C62.0209 55.6804 61.9958 55.6547 61.9958 55.6351C61.9958 55.6154 61.975 55.5775 61.9495 55.5509C61.924 55.5243 61.878 55.4656 61.8474 55.4204C61.8168 55.3753 61.7618 55.3031 61.7252 55.26C61.6885 55.217 61.6246 55.1268 61.583 55.0597C61.5415 54.9925 61.4912 54.9376 61.4712 54.9376C61.4513 54.9376 61.4446 54.922 61.4563 54.903C61.4681 54.884 61.4441 54.845 61.4031 54.8163C61.3621 54.7876 61.3369 54.7558 61.347 54.7456C61.3572 54.7354 61.332 54.6967 61.291 54.6596L61.2163 54.5921L61.217 59.9531C61.2176 64.44 61.2094 65.3338 61.1663 65.4346C61.1144 65.5564 60.8829 65.867 60.8829 65.815C60.8829 65.7995 60.8562 65.809 60.8236 65.836C60.791 65.863 60.7284 65.8942 60.6845 65.9054C60.6406 65.9165 59.8526 65.9256 58.9335 65.9256C57.3962 65.9256 57.2544 65.9204 57.1621 65.8599C57.1069 65.8238 57.0617 65.8035 57.0617 65.8149C57.0617 65.8494 56.8534 65.5984 56.8 65.4994C56.7725 65.4485 56.7453 65.3818 56.7397 65.3512C56.7341 65.3206 56.7291 61.1941 56.7288 56.1812L56.7281 47.0667L56.8062 46.9056C56.8841 46.7448 57.1242 46.5181 57.2334 46.5021C57.2651 46.4974 57.3 46.4847 57.3109 46.4738C57.3219 46.4629 58.0547 46.453 58.9394 46.4518C60.2735 46.45 60.5702 46.4588 60.6783 46.504ZM89.2084 46.5309C89.3729 46.6211 89.5243 46.783 89.6016 46.9513C89.6643 47.0877 89.6698 47.2272 89.6705 48.7035C89.6712 50.0711 89.6628 50.3278 89.6137 50.4453C89.5406 50.6203 89.3968 50.7718 89.2076 50.8734L89.0592 50.9531L85.0711 50.9567L81.083 50.9604L81.0733 52.4487L81.0636 53.937H84.9897C89.3656 53.937 89.1659 53.9257 89.4198 54.186C89.6747 54.4474 89.6714 54.4207 89.6705 56.2057C89.6696 57.9932 89.6724 57.9718 89.4092 58.2275C89.1634 58.4664 89.3211 58.4582 84.9902 58.4582H81.0645V59.9498V61.4415L85.0618 61.4434C89.0527 61.4454 89.0595 61.4455 89.2076 61.5234C89.2892 61.5663 89.401 61.6488 89.456 61.7067C89.6701 61.932 89.6713 61.9433 89.6713 63.6936V65.2996L89.5773 65.488C89.477 65.6892 89.2884 65.8467 89.0748 65.908C88.8743 65.9654 77.3124 65.9566 77.1178 65.8989C76.8987 65.8339 76.6374 65.5628 76.582 65.343C76.5192 65.0937 76.5192 47.3015 76.582 47.0521C76.6378 46.8307 76.9048 46.553 77.1156 46.497C77.2151 46.4706 79.1551 46.46 83.1791 46.4638C88.6118 46.469 89.1055 46.4746 89.2084 46.5309Z" fill="white"/>
</svg>
