<svg width="501" height="416" viewBox="0 0 501 416" fill="none" xmlns="http://www.w3.org/2000/svg">
<path fill-rule="evenodd" clip-rule="evenodd" d="M241.4 6.11411C238.302 9.4766 235.452 12.8427 235.068 13.5938C234.685 14.3448 233.829 15.5818 233.167 16.3431C230.318 19.6194 224.912 31.5119 222.936 38.8495C222.44 40.6915 221.527 44.9748 220.906 48.3685C219.303 57.1324 219.287 69.8764 220.867 79.9317C223.292 95.363 226.26 105.807 232.481 120.791C235.151 127.221 243.691 144.452 246.962 150.007C254.567 162.922 260.82 178.93 263.57 192.522C265.004 199.611 265.011 212.549 263.583 220.147C261.565 230.9 259.284 237.298 253.399 248.726C248.228 258.766 242.086 266.892 232.482 276.399C229.417 279.433 226.998 282.004 227.105 282.112C227.213 282.22 229.326 282.115 231.801 281.879C237.894 281.297 241.502 279.531 246.736 274.57L250.521 270.982L253.632 274.11C257.114 277.61 261.977 280.326 267.049 281.603C271.536 282.732 278.213 282.214 290.016 279.821C304.521 276.881 305.989 276.712 313.855 277.074C328.661 277.755 334.279 281.551 339.96 294.713L342.113 299.7L343.577 296.535C345.215 292.995 349.605 287.837 354.273 283.971C356.682 281.975 357.487 280.916 359.319 277.33C368.214 259.921 373.715 241.798 375.93 222.603C376.876 214.409 376.668 200.95 375.48 193.354C371.884 170.379 363.773 151.163 347.107 126.139C339.184 114.243 332.51 105.028 327.385 98.9099C325.945 97.1907 324.144 94.8799 323.382 93.7747C322.62 92.6695 321.448 91.2628 320.778 90.6488C320.108 90.0348 317.53 87.0207 315.049 83.9506C312.568 80.8806 308.359 75.857 305.694 72.787C303.03 69.717 299.918 66.1205 298.778 64.7952C297.638 63.4694 296.404 62.0538 296.036 61.6492C295.668 61.2447 294.188 59.3598 292.746 57.4611C291.305 55.5619 289.652 53.6346 289.072 53.1778C288.492 52.7215 287.264 51.3447 286.341 50.119C285.419 48.8932 283.223 46.3082 281.461 44.3746C279.7 42.4411 277.426 39.6033 276.407 38.068C275.389 36.5333 274.38 35.2771 274.165 35.2771C273.95 35.2771 272.697 33.8196 271.382 32.0383C270.066 30.2571 268.694 28.4986 268.332 28.1311C267.971 27.7635 267.05 26.5467 266.285 25.4272C265.52 24.3082 264.573 23.1253 264.18 22.7989C263.787 22.472 262.737 20.8153 261.845 19.1166C260.864 17.2478 259.758 15.7872 259.044 15.417C258.349 15.0575 255.794 11.7549 252.842 7.40284C250.081 3.33123 247.645 0 247.428 0C247.211 0 244.499 2.75117 241.4 6.11411ZM208.406 60.8004C199.539 68.7949 190.293 78.4041 179.834 90.4925C174.126 97.0898 160.792 115.32 155.63 123.586C145.899 139.166 141.224 148.145 135.578 162.096C130.471 174.716 127.367 185.597 124.939 199.383C123.752 206.12 123.681 207.266 123.677 219.477C123.673 233.699 123.893 235.642 126.817 247.32C129.306 257.257 134.914 269.444 141.374 278.955C146.684 286.772 146.653 286.735 156.109 296.66L159.111 299.811L159.602 298.403C159.871 297.628 160.527 296.193 161.059 295.215C161.591 294.237 162.586 292.409 163.271 291.154C165.221 287.579 170.644 282.623 174.936 280.494C182.773 276.605 190.87 276.176 205.233 278.889C208.449 279.497 213.013 280.334 215.375 280.75L219.667 281.506L226.301 274.735C233.941 266.935 235.56 265.09 240.695 258.341C245.224 252.388 246.823 249.809 250.675 242.251C254.448 234.848 255.161 232.963 257.091 225.308C259.991 213.803 259.732 202.105 256.307 190.005C253.186 178.977 246.935 163.798 236.723 142.448C229.254 126.834 227.897 123.886 226.013 119.18C218.047 99.285 214.368 83.918 213.437 66.647C213.155 61.4282 212.811 57.1632 212.672 57.1695C212.533 57.1762 210.613 58.8101 208.406 60.8004ZM246.089 280.926C244.249 281.928 242.518 282.935 242.24 283.162C241.963 283.391 239.957 284.193 237.781 284.947C234.328 286.143 233.025 286.348 227.527 286.56C219.898 286.853 216.568 286.411 205.773 283.675C198.628 281.863 197.165 281.632 193.017 281.657C178.405 281.745 167.287 288.928 163.86 300.495C162.8 304.072 162.945 307.897 164.306 312.209C166.704 319.813 170.786 326.889 176.274 332.956C178.609 335.538 179.061 336.249 178.367 336.249C177.255 336.249 172.617 333.153 168.368 329.575C163.848 325.769 161.88 322.622 158.438 313.703C152.973 299.536 150.654 295.787 144.435 291.054C140.289 287.899 131.532 283.698 127.91 283.128C123.207 282.386 115.823 282.598 105.835 283.761C91.2898 285.455 89.6697 285.509 82.8684 284.521C79.5571 284.041 76.7766 283.715 76.6896 283.798C76.6027 283.88 77.2908 284.614 78.2193 285.427C81.5104 288.31 85.9834 293.823 88.4366 298.021C90.0487 300.779 92.4328 307.246 94.6934 314.991C97.1364 323.36 99.4085 328.445 102.272 331.952C105.057 335.362 103.079 334.163 99.9392 330.538C96.0036 325.995 93.6543 321.916 90.6499 314.413C83.3496 296.181 78.9591 290.393 69.1516 286.073C63.5548 283.607 51.9809 281.324 45.0761 281.324C41.2418 281.324 32.4203 282.422 21.8091 284.22C14.6983 285.425 5.87463 285.718 2.20261 284.87C1.12785 284.622 0.150311 284.517 0.0299025 284.638C-0.0900602 284.758 1.15506 286.322 2.79752 288.114C6.18457 291.809 10.4399 297.952 12.6122 302.284C13.4202 303.896 15.8329 309.735 17.9739 315.261C22.1731 326.1 24.2481 330.12 27.7123 334.127C30.7586 337.65 36.54 340.984 44.293 343.687L47.4147 344.775L250.995 344.485L454.574 344.195L458.588 342.846C467.378 339.893 472.424 336.202 476.77 329.551C477.652 328.2 480.515 321.669 483.132 315.038C488.629 301.108 492.122 294.758 497.705 288.544C499.597 286.438 501.078 284.648 500.997 284.567C500.915 284.486 499.969 284.622 498.895 284.87C494.369 285.914 486.319 285.437 472.595 283.31L459.48 281.278L452.491 281.736C442.104 282.418 436.275 283.813 429.824 287.163C422.972 290.721 419.25 295.088 415.012 304.544C413.415 308.106 411.041 313.408 409.736 316.328C406.806 322.882 403.294 328.576 400.25 331.705C397.801 334.223 395.526 335.874 396.81 334.201C397.171 333.731 398.208 332.515 399.115 331.498C401.477 328.85 403.718 323.713 406.199 315.261C409.225 304.951 409.921 303.096 412.511 298.414C414.954 293.998 416.978 291.382 421.712 286.523C423.531 284.656 424.347 283.554 423.803 283.699C417.492 285.383 406.307 285.492 395.262 283.975C386.333 282.749 377.104 282.384 373.092 283.099C369.206 283.791 360.588 288.025 356.446 291.276C350.193 296.185 348.429 298.955 343.357 311.818C340.892 318.071 338.745 322.805 337.79 324.098C334.322 328.789 328.789 333.261 323.809 335.399C321.9 336.218 321.781 336.226 322.413 335.49C330.351 326.239 331.932 323.919 334.582 317.628C337.829 309.919 338.392 302.029 336.052 297.049C332.815 290.162 326.216 285.211 317.043 282.787C309.943 280.911 304.978 281.242 292.023 284.457C280.824 287.235 276.193 287.663 269.705 286.517C264.97 285.681 261.048 284.29 255.568 281.502C252.962 280.176 250.516 279.094 250.132 279.097C249.748 279.101 247.929 279.924 246.089 280.926ZM42.2019 351.839C34.8525 354.241 30.6806 357.15 25.8112 363.265C23.044 366.74 22.7457 367.355 18.5595 378.208C12.312 394.405 8.95798 400.531 3.22207 406.219C-0.346042 409.757 -0.814743 410.654 1.14658 410.19C1.82131 410.03 5.1825 409.787 8.61638 409.649C14.4772 409.415 15.4471 409.504 24.4479 411.104C33.904 412.786 34.1894 412.809 45.1849 412.786L56.3339 412.763L62.068 411.122C71.3096 408.477 76.637 405.133 81.217 399.104C83.1203 396.598 84.8186 393.28 88.7046 384.476C95.4346 369.23 97.4561 365.899 102.534 361.688L104.939 359.693L102.669 362.595C98.9929 367.295 98.163 369.115 94.2804 380.992C92.2487 387.206 89.8619 393.798 88.9767 395.64C87.076 399.594 81.9943 406.208 79.1531 408.424C77.1329 410 76.0002 411.605 77.2449 411.126C81.2166 409.6 98.6727 409.658 109.18 411.231C117.381 412.459 125.279 412.462 129.703 411.24C134.238 409.987 140.442 406.984 144.3 404.174C149.779 400.183 153.858 393.803 157.498 383.529C161.239 372.969 163.872 368.858 170.04 363.947C172.918 361.655 178.756 358.248 178.739 358.87C178.733 359.077 177.317 360.854 175.592 362.819C170.436 368.693 165.758 376.883 164.266 382.652C163.333 386.254 163.341 392.442 164.281 395.64C166.258 402.362 172.637 408.121 181.871 411.518C184.74 412.574 186.072 412.777 191.236 412.945C197.232 413.139 197.295 413.131 206.622 410.89C211.773 409.652 217.178 408.427 218.633 408.168C227.221 406.638 238.08 408.91 246.906 414.083L250.176 416L254.865 413.591C262.572 409.633 266.255 408.56 273.131 408.269C280.681 407.949 285.769 408.6 295.59 411.142L303.395 413.163L309.638 412.939C314.951 412.75 316.407 412.532 319.407 411.481C327.472 408.653 333.263 403.886 335.933 397.872C337.019 395.428 337.253 394.23 337.414 390.281C337.778 381.333 334.797 374.501 325.627 363.266C323.823 361.057 322.348 359.078 322.348 358.87C322.348 358.373 326.768 360.862 330.152 363.264C336.316 367.639 339.155 371.834 343.059 382.335C347.079 393.148 349.135 396.857 353.429 401.041C355.343 402.906 358.255 405.265 359.898 406.281C363.458 408.483 369.338 410.968 372.741 411.709C376.39 412.504 386.326 412.06 396.6 410.643C406.262 409.311 411.489 409.3 420.16 410.598C422.402 410.933 424.314 411.129 424.41 411.033C424.506 410.938 423.908 410.298 423.081 409.613C417.406 404.906 411.062 395.208 408.829 387.825C404.977 375.088 404.2 372.8 402.588 369.432C401.625 367.421 399.79 364.407 398.511 362.734L396.185 359.693L398.067 361.183C402.721 364.869 407.357 372.502 412.215 384.476C417.781 398.194 422.273 403.908 430.716 408.011C433.703 409.462 437.255 410.746 440.527 411.557C445.448 412.777 446.078 412.827 456.135 412.807C466.17 412.787 467.042 412.713 476.637 411.086C485.864 409.522 487.138 409.406 492.692 409.624C496.01 409.755 499.322 410.01 500.053 410.19C501.314 410.502 501.25 410.374 498.78 407.656C492.64 400.898 487.817 392.556 484.218 382.467C477.093 362.494 471.645 356.048 458.196 351.68L454.684 350.539L250.38 350.556L46.0768 350.573L42.2019 351.839Z" fill="#C8000B"/>
</svg>
