<svg width="359" height="359" viewBox="0 0 359 359" fill="none" xmlns="http://www.w3.org/2000/svg">
<circle cx="179.329" cy="179.329" r="179.329" fill="white"/>
<path d="M278.531 227.106H80.6641V131.016H278.531V227.106Z" fill="#B7F766" stroke="#73D373" stroke-width="8"/>
<circle cx="119.168" cy="177.615" r="8.96329" fill="#70D272"/>
<circle cx="234.246" cy="177.615" r="8.96329" fill="#70D272"/>
<circle cx="176.707" cy="178.483" r="28.9138" fill="#70D272"/>
<path fill-rule="evenodd" clip-rule="evenodd" d="M180.178 159.399H174.207V162.339C166.913 163.037 162.467 167.367 163.137 175.272C163.545 180.089 169.262 182.343 174.207 183.393V186.371C173.78 186.33 173.384 186.273 173.039 186.194C170.491 185.612 165.54 182.19 165.54 182.19L161.025 189.252C161.025 189.252 163.17 193.856 174.207 194.436V199.301H180.178V194.34C190.58 193.377 192.587 188.085 191.461 182.19C190.409 176.684 182.526 174.857 180.178 174.432V170.792C182.779 171.81 185.782 173.743 185.782 173.743L190.66 166.681C190.66 166.681 186.464 163.546 180.178 162.543V159.399ZM174.207 170.274C173.084 170.55 172.267 171.076 172.166 171.85C172.088 172.447 173 172.933 174.207 173.312V170.274ZM180.178 184.229V186.269C180.673 186.227 180.976 186.194 180.976 186.194C180.976 186.194 181.995 185.685 181.995 185.029C181.995 184.374 181.486 184.301 181.486 184.301C181.486 184.301 180.996 184.289 180.178 184.229Z" fill="#FEFEFD"/>
<mask id="mask0_23_742" style="mask-type:alpha" maskUnits="userSpaceOnUse" x="76" y="127" width="207" height="105">
<rect x="76.6641" y="127.016" width="205.866" height="104.09" fill="#D9D9D9"/>
</mask>
<g mask="url(#mask0_23_742)">
<circle cx="85.9174" cy="219.54" r="20.2397" fill="#73D373"/>
<circle cx="268.074" cy="219.54" r="20.2397" fill="#73D373"/>
<circle cx="85.9174" cy="138.582" r="20.2397" fill="#73D373"/>
<circle cx="268.074" cy="138.582" r="20.2397" fill="#73D373"/>
</g>
</svg>
