<svg width="419" height="977" viewBox="0 0 419 977" fill="none" xmlns="http://www.w3.org/2000/svg">
<path d="M367 122.087V102C367 68.8629 340.137 42 307 42H52.217C51.9277 42 51.9277 935 52.217 935H307.022C340.159 935 367 908.137 367 875V803.932C367 787.972 360.641 772.67 349.33 761.41L248.387 660.924C225.123 637.765 224.788 600.211 247.635 576.641L327.04 494.723C349.389 471.668 349.625 435.105 327.577 411.763L250.363 330.016C226.568 304.824 229 264.769 255.669 242.641L345.313 168.262C359.051 156.863 367 139.938 367 122.087Z" stroke="white" stroke-width="20"/>
</svg>
