<svg width="1233" height="335" viewBox="0 0 1233 335" fill="none" xmlns="http://www.w3.org/2000/svg">
<path d="M55.3711 114.784V190.458H93.208C98.3936 190.458 103.271 189.491 107.842 187.558C112.412 185.536 116.411 182.812 119.839 179.384C123.267 175.956 125.947 171.957 127.881 167.387C129.902 162.729 130.913 157.807 130.913 152.621C130.913 147.436 129.902 142.558 127.881 137.987C125.947 133.329 123.267 129.286 119.839 125.858C116.411 122.431 112.412 119.75 107.842 117.816C103.271 115.795 98.3936 114.784 93.208 114.784H55.3711ZM55.3711 266H17.5342V76.9473H93.208C100.151 76.9473 106.831 77.8701 113.247 79.7158C119.663 81.4736 125.64 84.0225 131.177 87.3623C136.802 90.6143 141.899 94.5693 146.47 99.2275C151.128 103.798 155.083 108.896 158.335 114.521C161.675 120.146 164.224 126.166 165.981 132.582C167.827 138.998 168.75 145.678 168.75 152.621C168.75 162.992 166.772 172.792 162.817 182.021C158.862 191.161 153.457 199.159 146.602 206.015C139.746 212.87 131.704 218.275 122.476 222.23C113.335 226.186 103.579 228.163 93.208 228.163H55.3711V266ZM302.3 190.458V152.621C302.3 147.436 301.289 142.558 299.268 137.987C297.334 133.329 294.653 129.286 291.226 125.858C287.798 122.431 283.755 119.75 279.097 117.816C274.526 115.795 269.648 114.784 264.463 114.784C259.277 114.784 254.355 115.795 249.697 117.816C245.127 119.75 241.128 122.431 237.7 125.858C234.272 129.286 231.548 133.329 229.526 137.987C227.593 142.558 226.626 147.436 226.626 152.621V190.458H302.3ZM340.137 266H302.3V228.163H226.626V266H188.921V152.621C188.921 142.162 190.898 132.362 194.854 123.222C198.809 113.993 204.17 105.951 210.938 99.0957C217.793 92.2402 225.791 86.835 234.932 82.8799C244.16 78.9248 254.004 76.9473 264.463 76.9473C274.922 76.9473 284.722 78.9248 293.862 82.8799C303.091 86.835 311.133 92.2402 317.988 99.0957C324.844 105.951 330.249 113.993 334.204 123.222C338.159 132.362 340.137 142.162 340.137 152.621V266ZM524.443 171.474C524.443 180.175 523.301 188.568 521.016 196.654C518.818 204.652 515.654 212.167 511.523 219.198C507.393 226.142 502.471 232.514 496.758 238.314C491.045 244.027 484.673 248.949 477.642 253.08C470.61 257.211 463.052 260.419 454.966 262.704C446.968 264.901 438.618 266 429.917 266H372.964V76.9473H429.917C438.618 76.9473 446.968 78.0898 454.966 80.375C463.052 82.5723 470.61 85.7363 477.642 89.8672C484.673 93.998 491.045 98.9639 496.758 104.765C502.471 110.478 507.393 116.85 511.523 123.881C515.654 130.824 518.818 138.339 521.016 146.425C523.301 154.423 524.443 162.772 524.443 171.474ZM486.606 171.474C486.606 163.651 485.112 156.312 482.124 149.457C479.224 142.602 475.181 136.625 469.995 131.527C464.897 126.342 458.877 122.255 451.934 119.267C445.078 116.278 437.739 114.784 429.917 114.784H411.064V228.163H429.917C437.739 228.163 445.078 226.713 451.934 223.812C458.877 220.824 464.897 216.781 469.995 211.684C475.181 206.498 479.224 200.478 482.124 193.622C485.112 186.679 486.606 179.296 486.606 171.474ZM680.405 266H534.067L614.751 114.784H534.067V76.9473H680.405L599.985 228.163H680.405V266ZM855.088 209.311C855.088 217.133 853.594 224.472 850.605 231.327C847.617 238.183 843.53 244.203 838.345 249.389C833.247 254.486 827.271 258.529 820.415 261.518C813.56 264.506 806.221 266 798.398 266H703.872V76.9473H798.398C806.221 76.9473 813.56 78.4414 820.415 81.4297C827.271 84.418 833.247 88.5049 838.345 93.6904C843.53 98.7881 847.617 104.765 850.605 111.62C853.594 118.476 855.088 125.814 855.088 133.637C855.088 137.152 854.604 140.756 853.638 144.447C852.671 148.139 851.309 151.698 849.551 155.126C847.793 158.554 845.684 161.674 843.223 164.486C840.762 167.299 838.037 169.628 835.049 171.474C838.125 173.144 840.894 175.429 843.354 178.329C845.815 181.142 847.925 184.262 849.683 187.689C851.44 191.117 852.759 194.721 853.638 198.5C854.604 202.191 855.088 205.795 855.088 209.311ZM741.709 228.163H798.398C801.035 228.163 803.496 227.68 805.781 226.713C808.066 225.746 810.044 224.428 811.714 222.758C813.472 221 814.834 218.979 815.801 216.693C816.768 214.408 817.251 211.947 817.251 209.311C817.251 206.674 816.768 204.213 815.801 201.928C814.834 199.643 813.472 197.665 811.714 195.995C810.044 194.237 808.066 192.875 805.781 191.908C803.496 190.941 801.035 190.458 798.398 190.458H741.709V228.163ZM741.709 152.621H798.398C801.035 152.621 803.496 152.138 805.781 151.171C808.066 150.204 810.044 148.886 811.714 147.216C813.472 145.458 814.834 143.437 815.801 141.151C816.768 138.778 817.251 136.273 817.251 133.637C817.251 131 816.768 128.539 815.801 126.254C814.834 123.969 813.472 121.991 811.714 120.321C810.044 118.563 808.066 117.201 805.781 116.234C803.496 115.268 801.035 114.784 798.398 114.784H741.709V152.621ZM1173.21 266H1135.5V114.784H1078.68V76.9473H1229.9V114.784H1173.21V266Z" fill="black"/>
<path fill-rule="evenodd" clip-rule="evenodd" d="M959.232 67.5751C958.964 68.0103 958.279 73.1692 957.709 79.0379C956.48 91.7146 955.81 93.659 952.383 94.4911C950.954 94.8376 945.913 96.7727 941.18 98.7908C936.172 100.926 932.076 102.159 931.382 101.741C930.726 101.346 926.362 97.9513 921.684 94.1988C917.007 90.4455 912.801 87.3748 912.337 87.3748C911.874 87.3748 906.719 92.1695 900.88 98.0288C893.43 105.507 890.435 109.126 890.836 110.17C891.149 110.989 894.622 115.66 898.553 120.552L905.701 129.445L902.414 136.661C900.606 140.629 898.595 145.667 897.943 147.856C897.293 150.045 896.304 152.214 895.745 152.676C895.187 153.138 889.691 153.992 883.532 154.573C877.373 155.155 871.809 155.809 871.168 156.028C870.296 156.325 870.001 160.416 870.001 172.21V187.994L880.499 189.103C897.457 190.894 896.548 190.563 897.851 195.439C898.477 197.781 900.445 202.851 902.226 206.706C904.005 210.56 905.461 214.01 905.461 214.371C905.461 214.731 901.93 219.388 897.614 224.718L889.767 234.41L892.376 237.706C893.812 239.519 898.823 244.704 903.514 249.23L912.043 257.456L917.384 253.173C920.321 250.818 924.952 247.152 927.676 245.025L932.628 241.16L938.874 244.136C942.309 245.773 947.405 247.871 950.198 248.797C956.223 250.797 956.209 250.765 957.759 266.005L958.878 277L974.861 276.745L990.843 276.49L992.201 263.66L993.56 250.83L998.267 249.296C1000.86 248.452 1006.22 246.291 1010.18 244.495L1017.39 241.229L1026.51 248.503C1031.53 252.503 1036.22 256.233 1036.94 256.79C1037.97 257.594 1040.53 255.39 1049.21 246.207L1060.18 234.61L1052.34 224.93C1048.03 219.606 1044.5 214.93 1044.5 214.539C1044.5 214.148 1046.17 210.066 1048.22 205.468C1050.26 200.87 1052.2 195.753 1052.52 194.097C1053.18 190.657 1052.72 190.792 1069.48 189.07L1080 187.99L1079.75 172.003L1079.49 156.017L1066.51 154.616L1053.53 153.215L1051.49 147.145C1050.36 143.806 1048.33 138.881 1046.97 136.202C1045.61 133.523 1044.5 130.791 1044.5 130.132C1044.51 129.472 1047.86 124.731 1051.96 119.594C1056.06 114.458 1059.42 109.829 1059.42 109.307C1059.43 108.08 1038.7 87.3748 1037.47 87.3748C1036.96 87.3748 1032.18 90.9199 1026.84 95.2523L1017.15 103.13L1011 100.053C1007.61 98.3603 1002.53 96.2291 999.708 95.3176C996.885 94.4062 994.372 93.4769 994.122 93.2537C993.871 93.0296 993.032 87.0974 992.255 80.0707L990.843 67.2959L975.282 67.04C966.724 66.8999 959.501 67.1409 959.232 67.5751ZM984.097 127.971C997.585 130.831 1009.07 139.872 1015.34 152.566L1018.84 159.655V171.844C1018.84 184.004 1018.83 184.052 1015.34 191.369C1006.02 210.905 984.421 221.127 963.815 215.756C955.847 213.679 949.62 210.026 943.183 203.654C917.915 178.64 930.649 135.588 965.565 127.985C973.029 126.36 976.485 126.357 984.097 127.971Z" fill="#7C7C7C"/>
</svg>
