<svg width="211" height="210" viewBox="0 0 211 210" fill="none" xmlns="http://www.w3.org/2000/svg">
<path fill-rule="evenodd" clip-rule="evenodd" d="M89.2323 0.575128C88.9635 1.01033 88.2786 6.16921 87.7094 12.0379C86.4804 24.7146 85.8104 26.659 82.383 27.4911C80.9543 27.8376 75.9126 29.7727 71.1797 31.7908C66.1715 33.9257 62.076 35.1594 61.3817 34.741C60.7257 34.346 56.3623 30.9513 51.6845 27.1988C47.0066 23.4455 42.801 20.3748 42.3372 20.3748C41.8744 20.3748 36.7187 25.1695 30.8801 31.0288C23.4299 38.5075 20.4354 42.1263 20.8357 43.1704C21.1493 43.9885 24.6224 48.6599 28.5528 53.5517L35.7007 62.4453L32.4142 69.6606C30.6057 73.6288 28.5948 78.6672 27.9435 80.8562C27.2931 83.0453 26.3039 85.2138 25.745 85.6761C25.187 86.1384 19.6908 86.992 13.532 87.5729C7.37329 88.1547 1.80896 88.8093 1.16789 89.0279C0.296338 89.3249 0.00146484 93.4163 0.00146484 105.21L0.00146484 120.994L10.4993 122.103C27.4573 123.894 26.5484 123.563 27.8511 128.439C28.4772 130.781 30.4452 135.851 32.2257 139.706C34.0052 143.56 35.4609 147.01 35.4609 147.371C35.4609 147.731 31.9299 152.388 27.6141 157.718L19.7673 167.41L22.3763 170.706C23.8115 172.519 28.8234 177.704 33.5143 182.23L42.0433 190.456L47.3836 186.173C50.3212 183.818 54.9523 180.152 57.6762 178.025L62.6284 174.16L68.8739 177.136C72.3088 178.773 77.4047 180.871 80.1976 181.797C86.2229 183.797 86.2089 183.765 87.7588 199.005L88.8777 210L104.861 209.745L120.843 209.49L122.201 196.66L123.56 183.83L128.267 182.296C130.856 181.452 136.219 179.291 140.184 177.495L147.393 174.229L156.514 181.503C161.53 185.503 166.222 189.233 166.94 189.79C167.974 190.594 170.529 188.39 179.21 179.207L190.176 167.61L182.337 157.93C178.026 152.606 174.499 147.93 174.499 147.539C174.499 147.148 176.172 143.066 178.218 138.468C180.263 133.87 182.197 128.753 182.517 127.097C183.178 123.657 182.723 123.792 199.482 122.07L210.001 120.99L209.747 105.003L209.492 89.0167L196.512 87.6158L183.532 86.215L181.485 80.1446C180.36 76.8059 178.328 71.8814 176.969 69.202C175.61 66.5227 174.501 63.791 174.504 63.1317C174.507 62.4723 177.864 57.7309 181.964 52.5945C186.064 47.458 189.422 42.8286 189.425 42.3066C189.431 41.0804 168.703 20.3748 167.471 20.3748C166.956 20.3748 162.175 23.9199 156.844 28.2523L147.151 36.1297L140.996 33.0525C137.61 31.3603 132.531 29.2291 129.708 28.3176C126.885 27.4062 124.372 26.4769 124.122 26.2537C123.871 26.0296 123.032 20.0974 122.255 13.0707L120.843 0.295891L105.282 0.0400018C96.7235 -0.100084 89.501 0.140863 89.2323 0.575128ZM114.097 60.9706C127.585 63.8312 139.069 72.8723 145.336 85.5659L148.838 92.6552V104.844C148.838 117.004 148.829 117.052 145.338 124.369C136.017 143.905 114.421 154.127 93.8149 148.756C85.8468 146.679 79.62 143.026 73.1831 136.654C47.9146 111.64 60.6492 68.5875 95.5655 60.9846C103.029 59.3596 106.485 59.3568 114.097 60.9706Z" fill="#7C7C7C"/>
</svg>
