<svg width="359" height="359" viewBox="0 0 359 359" fill="none" xmlns="http://www.w3.org/2000/svg">
<circle cx="179.645" cy="179.329" r="179.329" fill="white"/>
<circle cx="179.914" cy="179.061" r="90.0666" fill="#FFD829"/>
<path d="M179.646 245.539C126.238 245.539 117.449 196.571 116.277 187.475C116.188 186.779 116.827 186.234 117.506 186.414C123.188 187.916 145.973 193.323 179.646 193.323C213.319 193.323 236.105 187.916 241.787 186.414C242.466 186.234 243.105 186.779 243.015 187.475C241.843 196.571 233.055 245.539 179.646 245.539Z" fill="#876431"/>
<path d="M178.896 211.228C143.087 211.228 123.93 205.797 121.055 204.915C120.802 204.837 120.61 204.661 120.512 204.415C120.192 203.62 119.39 201.402 117.994 196.217C116.8 191.785 116.366 188.87 116.208 187.335C116.14 186.679 116.74 186.196 117.381 186.356C123.042 187.764 147.192 193.268 178.896 193.268C210.549 193.268 235.808 187.782 241.815 186.363C242.485 186.204 243.106 186.746 243.02 187.429C242.842 188.837 242.488 191.241 241.835 194.34C240.98 198.402 239.936 201.254 239.549 202.243C239.452 202.49 239.271 202.674 239.022 202.767C236.018 203.884 214.906 211.228 178.896 211.228Z" fill="#F7F7F7"/>
<path d="M179.644 226.239C161.491 226.239 154.886 235.936 153.107 239.155C152.812 239.689 153.018 240.483 153.553 240.777C156.102 242.176 163.816 245.539 179.061 245.539C195.065 245.539 203.391 242.017 205.742 240.831C206.164 240.618 206.331 240.137 206.123 239.712C204.7 236.802 198.252 226.239 179.644 226.239Z" fill="#FD8F94"/>
<path d="M150.426 159.148C142.531 159.148 137.268 169.947 134.344 169.947C131.42 169.947 132.885 159.148 135.516 153.894C138.148 148.64 142.531 143.678 150.426 143.678C158.321 143.678 162.704 148.64 165.336 153.894C167.967 159.148 169.432 169.947 166.508 169.947C163.584 169.947 158.321 159.148 150.426 159.148Z" fill="#876431"/>
<path d="M209.668 159.148C201.893 159.148 196.709 169.947 193.829 169.947C190.95 169.947 192.392 159.148 194.984 153.894C197.576 148.64 201.893 143.678 209.668 143.678C217.443 143.678 221.76 148.64 224.352 153.894C226.943 159.148 228.386 169.947 225.506 169.947C222.626 169.947 217.443 159.148 209.668 159.148Z" fill="#876431"/>
</svg>
