<svg width="122" height="123" viewBox="0 0 122 123" fill="none" xmlns="http://www.w3.org/2000/svg">
<path fill-rule="evenodd" clip-rule="evenodd" d="M30.115 9.44618C38.8765 3.89287 48.0743 0.858879 58.3603 0.129245C65.7136 -0.392284 73.9883 0.679544 81.085 3.07287C88.4661 5.56215 95.0365 9.30677 101.025 14.4368C102.743 15.9091 105.907 19.0767 107.355 20.775C111.576 25.7255 115.03 31.4357 117.397 37.3777C121.028 46.4896 122.335 56.1187 121.284 66.0206C120.169 76.5374 116.147 86.7281 109.756 95.2339C101 106.885 88.3029 114.922 74.122 117.788C72.5902 118.098 70.6247 118.438 69.7543 118.544C64.5512 119.178 58.1356 119.101 53.3596 118.348C46.822 117.318 40.9621 115.413 34.9954 112.38L33.4689 111.604L26.4499 113.859C11.2068 118.758 7.65145 119.898 4.30212 120.964C2.38729 121.573 0.780865 122.094 0.732377 122.122C0.648188 122.17 1.90064 118.403 8.4551 98.8923L11.356 90.2571L10.5393 88.8166C4.38428 77.96 1.75404 64.9651 3.23184 52.7131C4.55848 41.7142 8.39522 32.1775 15.0126 23.4299C16.7804 21.0929 17.915 19.8029 20.308 17.4085C23.4509 14.2639 26.7854 11.5566 30.115 9.44618ZM81.0098 13.637C76.0857 11.629 70.2589 10.2704 65.7031 10.0681C62.4652 9.92436 61.7927 9.91764 59.6896 10.0081C50.4621 10.4052 41.1109 13.6758 33.4889 19.172C26.9629 23.8778 21.5729 30.1828 18.0473 37.2347C14.4684 44.3937 12.7843 51.5158 12.7843 59.4936C12.7843 63.8273 13.2146 67.3934 14.2369 71.5337C15.5947 77.0322 17.8497 82.1111 21.1309 87.0611L22.1489 88.5969L21.2037 91.4084C20.6838 92.9547 19.2945 97.0855 18.1163 100.588C16.0048 106.865 15.9791 106.955 16.31 106.876C16.4946 106.832 19.4371 105.898 22.849 104.801C33.5851 101.349 34.7447 100.981 34.9393 100.97C35.0438 100.964 35.6989 101.322 36.3952 101.765C37.0915 102.209 38.6939 103.096 39.9561 103.736C46.5678 107.088 53.4061 108.824 60.9556 109.067C68.318 109.305 76.2808 107.648 83.1003 104.46C91.51 100.528 98.8308 94.1369 103.829 86.3622C115.103 68.8252 114.285 46.3554 101.765 29.6914C99.1788 26.2489 95.4036 22.4635 92.0357 19.9359C88.5568 17.325 84.8234 15.1922 81.0098 13.637Z" fill="white"/>
<path fill-rule="evenodd" clip-rule="evenodd" d="M65.7031 10.0681C70.2589 10.2704 76.0857 11.629 81.0098 13.637C84.8234 15.1922 88.5568 17.325 92.0357 19.9359C95.4036 22.4635 99.1788 26.2489 101.765 29.6914C114.285 46.3554 115.103 68.8252 103.829 86.3622C98.8308 94.1369 91.51 100.528 83.1003 104.46C76.2808 107.648 68.318 109.305 60.9556 109.067C53.4061 108.824 46.5678 107.088 39.9561 103.736C38.6939 103.096 37.0915 102.209 36.3952 101.765C35.6989 101.322 35.0438 100.964 34.9393 100.97C34.7447 100.981 33.5851 101.349 22.849 104.801C19.4371 105.898 16.4946 106.832 16.31 106.876C15.9791 106.955 16.0048 106.865 18.1163 100.588C19.2945 97.0855 20.6838 92.9547 21.2037 91.4084L22.1489 88.5969L21.1309 87.0611C17.8497 82.1111 15.5947 77.0322 14.2369 71.5337C13.2146 67.3934 12.7843 63.8273 12.7843 59.4936C12.7843 51.5158 14.4684 44.3937 18.0473 37.2347C21.5729 30.1828 26.9629 23.8778 33.4889 19.172C41.1109 13.6758 50.4621 10.4052 59.6896 10.0081C61.7927 9.91764 62.4652 9.92436 65.7031 10.0681ZM37.8997 32.625C39.1847 31.3534 39.8725 30.9 41.0161 30.5707C41.4131 30.4563 42.0079 30.4298 42.9784 30.4833C46.2753 30.6646 46.7852 30.7219 47.1329 30.9503C47.9459 31.4841 48.3001 32.2404 50.2611 37.6312C51.7654 41.7667 52.4038 43.4813 52.8035 44.4592C53.4298 45.9919 53.4222 46.3631 52.7357 47.73C52.1315 48.9332 51.091 50.235 49.1075 52.2695C47.6305 53.7844 47.5391 54.2524 48.397 55.908C50.204 59.3952 53.1772 63.3648 56.1684 66.2839C59.485 69.5206 62.5829 71.6671 67.1308 73.8798C69.3681 74.9682 69.9839 75.1077 70.7654 74.7031C71.1947 74.4809 73.4733 72.0188 75.578 69.5031C76.3959 68.5257 77.1576 67.6489 77.2709 67.5548C77.6136 67.2701 78.5221 67.2365 79.2668 67.4811C80.3007 67.8208 83.2699 69.348 90.4518 73.2343C92.9462 74.5842 92.9737 74.6132 93.03 75.9696C93.1073 77.8324 92.5146 80.4914 91.5864 82.4452C90.5677 84.5892 86.9833 87.2303 83.4536 88.4376C82.3637 88.8104 79.2924 89.2741 77.9833 89.2635C75.9762 89.2471 72.985 88.41 68.2984 86.553C62.4498 84.2355 59.9652 82.9962 56.5879 80.7119C51.7929 77.4685 46.5052 72.2667 42.3702 66.7246C41.1653 65.1099 38.1336 60.5674 36.9095 58.543C35.4377 56.1092 33.9886 52.8322 33.3782 50.5585C32.7794 48.3273 32.6141 47.1764 32.6136 45.2355C32.6128 42.2588 33.0854 40.1107 34.3005 37.5678C35.1934 35.6992 36.2256 34.2819 37.8997 32.625Z" fill="#06C755"/>
<path fill-rule="evenodd" clip-rule="evenodd" d="M37.8997 32.625C39.1847 31.3534 39.8725 30.9 41.0161 30.5707C41.4131 30.4563 42.0079 30.4298 42.9784 30.4833C46.2753 30.6646 46.7852 30.7219 47.1329 30.9503C47.9459 31.4841 48.3001 32.2404 50.2611 37.6312C51.7654 41.7667 52.4038 43.4813 52.8035 44.4592C53.4298 45.9919 53.4222 46.3631 52.7357 47.73C52.1315 48.9332 51.091 50.235 49.1075 52.2695C47.6305 53.7844 47.5391 54.2524 48.397 55.908C50.204 59.3952 53.1772 63.3648 56.1684 66.2839C59.485 69.5206 62.5829 71.6671 67.1308 73.8798C69.3681 74.9682 69.9839 75.1077 70.7654 74.7031C71.1947 74.4809 73.4733 72.0188 75.578 69.5031C76.3959 68.5257 77.1576 67.6489 77.2709 67.5548C77.6136 67.2701 78.5221 67.2365 79.2668 67.4811C80.3007 67.8208 83.2699 69.348 90.4518 73.2343C92.9462 74.5842 92.9737 74.6132 93.03 75.9696C93.1073 77.8324 92.5146 80.4914 91.5864 82.4452C90.5677 84.5892 86.9833 87.2303 83.4536 88.4376C82.3637 88.8104 79.2924 89.2741 77.9833 89.2635C75.9762 89.2471 72.985 88.41 68.2984 86.553C62.4498 84.2355 59.9652 82.9962 56.5879 80.7119C51.7929 77.4685 46.5052 72.2667 42.3702 66.7246C41.1653 65.1099 38.1336 60.5674 36.9095 58.543C35.4377 56.1092 33.9886 52.8322 33.3782 50.5585C32.7794 48.3273 32.6141 47.1764 32.6136 45.2355C32.6128 42.2588 33.0854 40.1107 34.3005 37.5678C35.1934 35.6992 36.2256 34.2819 37.8997 32.625Z" fill="#06C755"/>
<path d="M41.0161 30.5707C39.8725 30.9 39.1847 31.3534 37.8997 32.625C36.2256 34.2819 35.1934 35.6992 34.3005 37.5678C33.0854 40.1107 32.6128 42.2588 32.6136 45.2355C32.6141 47.1764 32.7794 48.3273 33.3782 50.5585C33.9886 52.8322 35.4377 56.1092 36.9095 58.543C38.1336 60.5674 41.1653 65.1099 42.3702 66.7246C46.5052 72.2667 51.7929 77.4685 56.5879 80.7119C59.9652 82.9962 62.4498 84.2355 68.2984 86.553C72.985 88.41 75.9762 89.2471 77.9833 89.2635C79.2924 89.2741 82.3637 88.8104 83.4536 88.4376C86.9833 87.2303 90.5677 84.5892 91.5864 82.4452C92.5146 80.4914 93.1073 77.8324 93.03 75.9696C92.9737 74.6132 92.9462 74.5842 90.4518 73.2343C83.2699 69.348 80.3007 67.8208 79.2668 67.4811C78.5221 67.2365 77.6136 67.2701 77.2709 67.5548C77.1576 67.6489 76.3959 68.5257 75.578 69.5031C73.4733 72.0188 71.1947 74.4809 70.7654 74.7031C69.9839 75.1077 69.3681 74.9682 67.1308 73.8798C62.5829 71.6671 59.485 69.5206 56.1684 66.2839C53.1772 63.3648 50.204 59.3952 48.397 55.908C47.5391 54.2524 47.6305 53.7844 49.1075 52.2695C51.091 50.235 52.1315 48.9332 52.7357 47.73C53.4222 46.3631 53.4298 45.9919 52.8035 44.4592C52.4038 43.4813 51.7654 41.7667 50.2611 37.6312C48.3001 32.2404 47.9459 31.4841 47.1329 30.9503C46.7852 30.7219 46.2753 30.6646 42.9784 30.4833C42.0079 30.4298 41.4131 30.4563 41.0161 30.5707Z" fill="white"/>
</svg>
