<svg width="377" height="376" viewBox="0 0 377 376" fill="none" xmlns="http://www.w3.org/2000/svg">
<path fill-rule="evenodd" clip-rule="evenodd" d="M171.4 0.578057C166.021 1.10883 157.22 2.4146 151.841 3.47832L142.062 5.41363L141.519 14.9741L140.975 24.5345L132.826 27.2589C128.343 28.7568 120.211 32.0891 114.755 34.6637L104.835 39.344L98.2227 32.7392L91.6118 26.1355L82.2703 32.4744C63.3264 45.328 44.9726 63.7585 32.1082 82.8457L26.008 91.896L32.5614 98.4422L39.1147 104.988L34.7509 114.293C32.3506 119.409 29.0082 127.533 27.3239 132.343L24.2619 141.092L15.0083 141.406L5.75373 141.718L4.7019 145.747C-0.992999 167.543 -1.57651 199.985 3.28931 224.127L5.14958 233.353L14.8714 233.67L24.5933 233.987L42.3082 216.315L60.0231 198.644L60.0296 188.863C60.0514 155.345 72.3289 124.604 95.3258 100.485C138.751 54.9416 206.859 47.0994 259.8 81.5476C287.578 99.6221 306.36 127.662 313.863 162.258C316.642 175.072 316.643 201.534 313.865 214.358C302.799 265.448 265.065 302.659 213.013 313.815C198.924 316.834 176.847 316.43 161.621 312.875C155.047 311.34 146.795 309.002 143.283 307.68L136.898 305.276L150.984 291.205L165.07 277.134L171.769 278.45C181.857 280.433 205.266 279.206 214.864 276.19C263.732 260.841 291.516 209.132 276.546 161.394L274.743 155.645L246.433 183.791L218.124 211.938L197.013 206.274L175.902 200.609L170.179 179.534L164.456 158.459L192.763 130.116L221.069 101.773L212.38 99.431C161.873 85.8176 110.242 117.118 98.4433 168.504C96.1712 178.398 95.8887 196.855 97.875 205.631L99.2159 211.558L62.757 247.989L26.2971 284.421L29.6775 289.746C42.7298 310.304 62.9885 330.762 84.4261 345.035L91.9867 350.069L98.6128 343.509L105.239 336.949L115.501 341.772C121.145 344.425 129.307 347.731 133.641 349.119L141.519 351.644V361.044V370.443L146.68 371.65C171.466 377.45 205.019 377.45 229.805 371.65L234.967 370.443L234.986 361.053L235.006 351.664L243.35 349.025C247.938 347.572 256.055 344.264 261.387 341.672C272.299 336.366 271.117 336.153 279.707 344.984L284.823 350.243L294.691 343.491C308.268 334.203 322.196 321.668 332.281 309.662C340.122 300.326 350.147 286.1 350.147 284.308C350.147 283.887 347.457 280.877 344.17 277.62C340.883 274.364 338.194 271.236 338.194 270.67C338.194 270.106 339.49 267.095 341.075 263.981C342.659 260.866 345.99 252.945 348.478 246.378L353.001 234.438L362.299 234.127L371.597 233.815L373.364 224.901C378.052 201.254 378.205 178.25 373.834 154.388L371.497 141.635H362.025H352.552L349.598 132.68C347.973 127.755 344.544 119.522 341.978 114.386L337.312 105.047L343.837 98.5291L350.361 92.0122L348.693 88.7885C345.548 82.7144 333.72 67.6422 324.82 58.3672C314.678 47.7984 304.261 39.0456 292.779 31.4443L284.853 26.1963L278.11 32.8141L271.368 39.432L263.155 35.2683C258.638 32.978 250.447 29.5361 244.955 27.6204L234.967 24.1361V15.1108C234.967 10.1461 234.523 5.8109 233.982 5.47658C233.441 5.14227 227.45 3.92985 220.671 2.78147C205.589 0.226382 184.498 -0.716856 171.4 0.578057Z" fill="#436CFF"/>
</svg>
